<?xml version="1.0" encoding="UTF-8"?>
<svg version="1.1" xmlns="http://www.w3.org/2000/svg" width="507" height="411">
<path d="M0 0 C2.21462095 1.0124465 2.21462095 1.0124465 5.34375 -0.625 C6.21 -1.181875 7.07625 -1.73875 7.96875 -2.3125 C8.95875 -1.9825 9.94875 -1.6525 10.96875 -1.3125 C10.61773727 1.84661453 9.95965921 2.6956584 7.53125 4.875 C4.88883658 7.77520985 4.61817353 8.48118306 4.03125 12.125 C3.26495164 16.41483847 1.89968517 18.72741763 -1.38671875 21.58203125 C-4.05413974 23.37509571 -5.82193336 23.89235 -9.03125 23.6875 C-11.96875 21.5625 -11.96875 21.5625 -14.03125 18.6875 C-14.14108379 14.2941486 -11.87266786 11.85365133 -9.03125 8.6875 C-7.7027828 7.34931823 -6.3701855 6.01520753 -5.03125 4.6875 C-16.91197644 3.95712747 -26.47338505 4.99699409 -36.15625 12.6875 C-39.87759581 16.25492153 -40.89724955 19.0391109 -41.31640625 24.1953125 C-41.27716497 29.66293092 -39.16301708 34.23258192 -37.03125 39.1875 C-36.6496875 40.1053125 -36.268125 41.023125 -35.875 41.96875 C-34.93951445 44.21391531 -33.99151235 46.45284693 -33.03125 48.6875 C-32.15082031 48.543125 -31.27039063 48.39875 -30.36328125 48.25 C-29.20183594 48.064375 -28.04039062 47.87875 -26.84375 47.6875 C-25.12091797 47.4090625 -25.12091797 47.4090625 -23.36328125 47.125 C-20.52709607 46.75260523 -17.88405436 46.60153979 -15.03125 46.6875 C-14.7425 45.90375 -14.45375 45.12 -14.15625 44.3125 C-13.03125 41.6875 -13.03125 41.6875 -11.03125 39.6875 C-8.40625 40.0625 -8.40625 40.0625 -6.03125 40.6875 C-6.36125 42.6675 -6.69125 44.6475 -7.03125 46.6875 C-6.19980469 46.65269531 -5.36835938 46.61789063 -4.51171875 46.58203125 C-2.88169922 46.54142578 -2.88169922 46.54142578 -1.21875 46.5 C-0.13980469 46.46519531 0.93914062 46.43039063 2.05078125 46.39453125 C4.96875 46.6875 4.96875 46.6875 6.8046875 48.01953125 C8.56291931 50.53887683 8.78622163 52.64536045 8.96875 55.6875 C8.03125 58.5625 8.03125 58.5625 6.96875 60.6875 C11.48868602 58.45514067 13.65121876 55.60180572 16.15625 51.375 C16.93314617 50.11660041 17.71320062 48.86014621 18.49609375 47.60546875 C18.89812012 46.96013184 19.30014648 46.31479492 19.71435547 45.64990234 C21.77814175 42.42126978 23.98701295 39.3015028 26.21875 36.1875 C26.61860107 35.62506592 27.01845215 35.06263184 27.43041992 34.4831543 C35.66507331 23.03239897 35.66507331 23.03239897 39.96875 21.6875 C42.59375 21.4375 42.59375 21.4375 44.96875 21.6875 C46.96875 23.6875 46.96875 23.6875 47.46875 26.875 C46.79408586 32.0193141 44.78713419 34.30880853 40.96875 37.6875 C38.05470494 39.83868123 35.06484285 41.80920367 31.96875 43.6875 C33.061875 43.914375 34.155 44.14125 35.28125 44.375 C38.96875 45.6875 38.96875 45.6875 41.09375 47.8125 C42.38765709 52.063909 40.96754612 54.851101 38.96875 58.6875 C38.01050747 60.05115283 37.02153825 61.39544169 35.96875 62.6875 C35.47375 64.1725 35.47375 64.1725 34.96875 65.6875 C35.9175 64.8625 36.86625 64.0375 37.84375 63.1875 C40.71875 60.6875 40.71875 60.6875 42.96875 60.6875 C43.34 59.883125 43.34 59.883125 43.71875 59.0625 C47.44241332 51.98753969 51.48646972 48.04069714 58.46875 44.375 C61.83189896 43.45013404 64.49461071 43.31527079 67.96875 43.6875 C71.10466544 45.52814602 72.5773704 46.78962915 74.03125 50.125 C73.96875 52.6875 73.96875 52.6875 72.71875 55.25 C67.39718655 59.96684033 59.96760977 61.93086651 52.96875 62.6875 C53.29875 63.6775 53.62875 64.6675 53.96875 65.6875 C62.91367947 66.40886528 68.72140593 64.20104232 75.63671875 58.48046875 C80.35803524 53.97471414 80.35803524 53.97471414 82.19921875 47.95703125 C81.90212873 45.33276966 81.90212873 45.33276966 81.2109375 42.9140625 C80.96875 40.6875 80.96875 40.6875 82.25390625 38.421875 C83.96875 36.6875 83.96875 36.6875 86.53125 36.3125 C88.96875 36.6875 88.96875 36.6875 90.96875 38.6875 C91.42578125 40.67578125 91.42578125 40.67578125 91.78125 43 C92.50617639 46.71970428 92.84072009 47.55947009 95.65625 50.375 C97.96875 52.6875 97.96875 52.6875 98.09375 55.5 C96.62931088 59.64924416 94.45299506 63.07571936 91.96875 66.6875 C99.86115286 62.44624598 99.86115286 62.44624598 105.78125 55.875 C109.761083 50.07581477 114.88246062 45.07394792 121.96875 43.6875 C125.90481953 43.37261444 128.63918175 43.46778784 131.96875 45.6875 C133.53305248 48.81610495 133.32502284 51.24352925 132.96875 54.6875 C129.36043341 58.87780314 124.2274669 60.44201442 118.96875 61.6875 C115.40625 61.875 115.40625 61.875 112.96875 61.6875 C112.96875 63.0075 112.96875 64.3275 112.96875 65.6875 C120.01953524 66.12817408 126.19553859 65.71376956 131.8828125 61.15234375 C133.05763327 60.09500506 134.20914336 59.01079692 135.328125 57.89453125 C136.96875 56.6875 136.96875 56.6875 140.96875 56.6875 C141.29875 57.6775 141.62875 58.6675 141.96875 59.6875 C134.96322305 67.11760434 127.33954838 72.59906324 116.78125 73.0625 C112.75833243 72.66680319 110.42129807 71.72764204 106.96875 69.6875 C106.185 69.295625 105.40125 68.90375 104.59375 68.5 C104.0575 68.231875 103.52125 67.96375 102.96875 67.6875 C102.040625 68.326875 101.1125 68.96625 100.15625 69.625 C95.58452121 72.58317745 92.37181536 73.07343324 86.96875 72.6875 C85.03125 71.5625 85.03125 71.5625 83.96875 69.6875 C83.39985349 66.55856921 83.43670394 64.57424343 85.09375 61.8125 C85.99195982 60.58766842 86.91840706 59.38292296 87.875 58.203125 C89.16381176 56.72871115 89.16381176 56.72871115 88.96875 54.6875 C86.00963231 55.78346951 84.83602745 56.85535499 82.84375 59.375 C77.04704933 66.60758066 68.99517019 70.99504621 59.96875 72.6875 C54.38042464 73.25580427 50.82273741 72.3086532 45.96875 69.6875 C45.63875 68.6975 45.30875 67.7075 44.96875 66.6875 C44.38867188 67.0484375 43.80859375 67.409375 43.2109375 67.78125 C35.17482375 72.55517896 35.17482375 72.55517896 29.96875 71.6875 C28.48375 70.6975 28.48375 70.6975 26.96875 69.6875 C25.8157992 63.53842909 28.21763645 60.00834427 31.55859375 54.921875 C33.11078873 52.65955673 33.11078873 52.65955673 33.96875 49.6875 C24.13877162 53.79821823 17.6469472 60.78467242 12.35546875 69.9375 C10.96875 71.6875 10.96875 71.6875 8.92578125 72.5625 C8.27996094 72.60375 7.63414062 72.645 6.96875 72.6875 C6.30875 72.0275 5.64875 71.3675 4.96875 70.6875 C4.96875 69.3675 4.96875 68.0475 4.96875 66.6875 C4.35128906 67.10902344 3.73382813 67.53054687 3.09765625 67.96484375 C-2.44509392 71.55033663 -7.27062743 74.29621506 -14.03125 73.6875 C-17.40625 72.3125 -17.40625 72.3125 -20.03125 70.6875 C-21.02125 70.3575 -22.01125 70.0275 -23.03125 69.6875 C-23.5159375 70.35394531 -24.000625 71.02039063 -24.5 71.70703125 C-25.90850566 73.64372653 -27.32158827 75.57709818 -28.73828125 77.5078125 C-30.2493105 79.60317503 -31.72708517 81.72298414 -33.16796875 83.8671875 C-33.84472656 84.85976562 -34.52148438 85.85234375 -35.21875 86.875 C-35.83105469 87.79667969 -36.44335938 88.71835938 -37.07421875 89.66796875 C-39.03125 91.6875 -39.03125 91.6875 -41.76953125 91.98828125 C-42.88908203 91.83939453 -42.88908203 91.83939453 -44.03125 91.6875 C-43.55325456 86.41334697 -41.55601136 82.72365909 -38.71875 78.375 C-38.28449707 77.694375 -37.85024414 77.01375 -37.40283203 76.3125 C-32.20739951 68.25802077 -26.63193799 60.46302559 -21.03125 52.6875 C-24.66125 53.3475 -28.29125 54.0075 -32.03125 54.6875 C-32.0725 56.151875 -32.11375 57.61625 -32.15625 59.125 C-32.84972421 65.92489985 -35.85095892 70.63820489 -40.73828125 75.32421875 C-45.39897556 78.99596212 -49.77655857 79.9145715 -55.71875 79.5 C-58.68500228 78.45780325 -60.0756179 77.13204012 -62.03125 74.6875 C-63.16095768 71.58559078 -63.10017904 69.86302492 -61.71875 66.875 C-57.55930626 59.14620662 -48.69770217 55.23678341 -41.03125 51.6875 C-42.39659084 47.51961745 -43.76328763 43.38133113 -45.34375 39.2890625 C-48.84025379 30.13060656 -51.07783998 23.68743375 -46.96875 14.5 C-41.90053595 5.35456348 -33.02756417 0.30971502 -23.15625 -2.625 C-14.6873778 -4.38720977 -7.65077501 -3.9917087 0 0 Z M-6.03125 13.6875 C-5.03125 15.6875 -5.03125 15.6875 -5.03125 15.6875 Z M-14.03125 56.6875 C-14.03125 57.3475 -14.03125 58.0075 -14.03125 58.6875 C-9.74125 59.0175 -5.45125 59.3475 -1.03125 59.6875 C-0.37125 57.3775 0.28875 55.0675 0.96875 52.6875 C-0.1032419 51.41641938 -0.1032419 51.41641938 -2.59375 51.3125 C-7.1679541 51.81150408 -10.51334236 53.74102914 -14.03125 56.6875 Z M55.96875 54.6875 C57.66987992 55.49219849 57.66987992 55.49219849 59.96875 55.6875 C63.18587945 54.32935993 63.18587945 54.32935993 65.96875 52.6875 C65.96875 52.3575 65.96875 52.0275 65.96875 51.6875 C61.69531908 51.32120592 59.48062196 52.27935923 55.96875 54.6875 Z M119.84375 52.6875 C119.11929688 53.05875 118.39484375 53.43 117.6484375 53.8125 C116.81699219 54.245625 116.81699219 54.245625 115.96875 54.6875 C115.96875 55.0175 115.96875 55.3475 115.96875 55.6875 C121.1380989 55.28193869 121.1380989 55.28193869 125.96875 53.6875 C125.96875 52.6975 125.96875 51.7075 125.96875 50.6875 C123.44399538 50.6875 122.07972066 51.53345063 119.84375 52.6875 Z M-54.59375 66.8125 C-56.43687103 68.82279886 -56.43687103 68.82279886 -56.03125 72.6875 C-52.69179737 73.09641257 -50.08749792 73.30705072 -47.11328125 71.5625 C-43.28370852 68.42698629 -40.84145695 65.37274152 -39.03125 60.6875 C-39.03125 60.0275 -39.03125 59.3675 -39.03125 58.6875 C-45.46077842 58.6875 -49.77303711 62.81483566 -54.59375 66.8125 Z M-14.03125 63.6875 C-14.03125 64.6775 -14.03125 65.6675 -14.03125 66.6875 C-11.61505177 66.93780977 -11.61505177 66.93780977 -9.03125 66.6875 C-8.37125 65.6975 -7.71125 64.7075 -7.03125 63.6875 C-9.34125 63.6875 -11.65125 63.6875 -14.03125 63.6875 Z " fill="#FDF7FD" transform="translate(309.03125,142.3125)"/>
<path d="M0 0 C1.36219977 0.56887562 2.74050961 1.10000246 4.12890625 1.6015625 C5.21473999 1.99722412 5.21473999 1.99722412 6.32250977 2.40087891 C7.15286743 2.69744385 7.15286743 2.69744385 8 3 C8.11698258 6.20802233 8.18750607 9.41549025 8.25 12.625 C8.28351563 13.52863281 8.31703125 14.43226562 8.3515625 15.36328125 C8.43534015 21.10205055 7.95349981 24.50899396 4 29 C2.948125 29.680625 1.89625 30.36125 0.8125 31.0625 C-2.22349943 32.73044323 -2.22349943 32.73044323 -2.875 35.75 C-2.91625 36.4925 -2.9575 37.235 -3 38 C-4.4562672 38.36256858 -5.91511185 38.71479793 -7.375 39.0625 C-8.59316406 39.35833984 -8.59316406 39.35833984 -9.8359375 39.66015625 C-12 40 -12 40 -14 39 C-14.144375 39.763125 -14.28875 40.52625 -14.4375 41.3125 C-15 44 -15 44 -16 47 C-12.74056224 45.50197558 -9.78210929 43.61341185 -6.77026367 41.67382812 C0.84907956 36.77535006 8.61017638 32.51916268 16.76953125 28.59375 C20.0393722 27.06715421 20.0393722 27.06715421 23 25 C22.525625 24.608125 22.05125 24.21625 21.5625 23.8125 C19.64820367 21.59191626 19.38733012 19.86624291 19 17 C23.75 16 23.75 16 26 16 C25.505 15.195625 25.505 15.195625 25 14.375 C23.74556808 11.3957242 23.72707761 9.20683803 24 6 C24.66 5.01 25.32 4.02 26 3 C28.19378912 3.98342271 29.74983972 4.69450123 31.2890625 6.57421875 C33.73532525 8.61277104 35.440824 8.19952124 38.5625 8 C41.50390625 7.8125 41.50390625 7.8125 44 8 C44.99 9.485 44.99 9.485 46 11 C41.85672083 15.89660266 41.85672083 15.89660266 37.375 16.4375 C36.26125 16.623125 35.1475 16.80875 34 17 C32.25600583 19.9720022 32.25600583 19.9720022 31 23 C31.97839844 22.65066406 32.95679688 22.30132812 33.96484375 21.94140625 C41.00712761 19.47898757 47.48802527 17.39536709 55 17 C55 17.99 55 18.98 55 20 C53.87207031 20.268125 52.74414062 20.53625 51.58203125 20.8125 C38.97798197 23.91513929 27.0330615 28.1531746 15 33 C18.2664116 34.93807088 18.86610417 35.02375571 22.875 34.3125 C26.44180556 33.77449022 26.92210033 33.95590585 30.3125 35.875 C33.77207811 39.2026051 34.86980368 43.44947272 36 48 C32.01112175 49.28213944 29.67941518 48.65583001 25.859375 47.1640625 C23.64184046 45.77577407 23.21436125 44.76622227 22.25 42.375 C21.45962441 40.47328099 21.45962441 40.47328099 20 39 C12.94108878 36.92689832 7.52246863 37.7496972 1 41 C-6.1597785 45.37238382 -12.77467191 50.48079656 -19.1875 55.875 C-19.74002441 56.3390625 -20.29254883 56.803125 -20.86181641 57.28125 C-23.3371324 59.4062781 -25.17672543 61.26508815 -27 64 C-24.69 64.66 -22.38 65.32 -20 66 C-19.71125 65.05125 -19.4225 64.1025 -19.125 63.125 C-18 60 -18 60 -16 58 C-13.8359375 57.5859375 -13.8359375 57.5859375 -11.375 57.375 C-10.55773437 57.30023438 -9.74046875 57.22546875 -8.8984375 57.1484375 C-8.27195313 57.09945312 -7.64546875 57.05046875 -7 57 C-7.33 59.64 -7.66 62.28 -8 65 C-7.03578125 64.71125 -6.0715625 64.4225 -5.078125 64.125 C-3.81484375 63.75375 -2.5515625 63.3825 -1.25 63 C0.00296875 62.62875 1.2559375 62.2575 2.546875 61.875 C6 61 6 61 10 61 C13.73941223 64.17850039 16.58607268 67.7292055 19 72 C18 75 18 75 16 76 C10.68149224 76.60437588 8.1543342 75.27043331 4 72 C2.29671681 70.3707726 0.61838719 68.71358643 -1 67 C-0.67 67.66 -0.34 68.32 0 69 C0.06950541 70.54023996 0.08452357 72.08334988 0.0625 73.625 C0.05347656 74.44226563 0.04445312 75.25953125 0.03515625 76.1015625 C0.02355469 76.72804688 0.01195312 77.35453125 0 78 C-0.99 78.495 -0.99 78.495 -2 79 C-5.83082186 77.40382422 -7.66656647 76.50015029 -10 73 C-10 71.68 -10 70.36 -10 69 C-10.83402344 69.01160156 -11.66804688 69.02320312 -12.52734375 69.03515625 C-13.65269531 69.04417969 -14.77804688 69.05320312 -15.9375 69.0625 C-17.72220703 69.08570312 -17.72220703 69.08570312 -19.54296875 69.109375 C-22.54837256 69.01428878 -24.87425141 68.56846943 -27.75 67.8125 C-29.89105149 67.40649464 -29.89105149 67.40649464 -32 68 C-35.64544518 71.21293473 -38.26497766 75.00686739 -41 79 C-41.68835938 79.94230469 -42.37671875 80.88460937 -43.0859375 81.85546875 C-46.59790873 86.6335923 -46.59790873 86.6335923 -49 92 C-48.01 92 -47.02 92 -46 92 C-45.731875 91.236875 -45.46375 90.47375 -45.1875 89.6875 C-44.03868178 87.08754297 -43.32721056 85.61114577 -41 84 C-38.8125 84.3125 -38.8125 84.3125 -37 85 C-36.67 87.31 -36.34 89.62 -36 92 C-33.07471774 91.66916219 -33.07471774 91.66916219 -30 90 C-28.77916885 87.77251861 -27.91508841 85.50451 -27 83.13671875 C-26 81 -26 81 -23.4375 78.875 C-21 78 -21 78 -18 79 C-17.67386382 83.67461851 -18.29417212 86.16674383 -21 90 C-20.1028125 90.37125 -20.1028125 90.37125 -19.1875 90.75 C-16.71352479 92.16370012 -15.56629745 93.65055383 -14 96 C-15.22265625 97.5078125 -15.22265625 97.5078125 -17 99 C-21.18496555 99.35452747 -24.98985559 98.61594171 -28.5625 96.4375 C-29.036875 95.963125 -29.51125 95.48875 -30 95 C-29.505 95.99 -29.505 95.99 -29 97 C-28.960008 98.99960012 -28.95653201 101.00047242 -29 103 C-34.50588235 102.51058824 -34.50588235 102.51058824 -36.875 100.0625 C-38 98 -38 98 -38 96 C-42.95 96 -47.9 96 -53 96 C-53.45375 97.464375 -53.9075 98.92875 -54.375 100.4375 C-55.1484375 102.93359375 -55.1484375 102.93359375 -56 105 C-56.99 105.495 -56.99 105.495 -58 106 C-58.66 105.67 -59.32 105.34 -60 105 C-59.67 103.35 -59.34 101.7 -59 100 C-58.34 100 -57.68 100 -57 100 C-56.90460938 99.28714844 -56.80921875 98.57429688 -56.7109375 97.83984375 C-55.88419907 94.53743255 -54.52083374 92.38225272 -52.625 89.5625 C-51.68720703 88.12003906 -51.68720703 88.12003906 -50.73046875 86.6484375 C-50.15941406 85.77445312 -49.58835937 84.90046875 -49 84 C-46.90096697 80.89885818 -46.90096697 80.89885818 -46 78 C-46.60578253 75.98072489 -47.26919734 73.97746603 -48 72 C-47.125 69.625 -47.125 69.625 -46 68 C-44.68 68.66 -43.36 69.32 -42 70 C-42 70.66 -42 71.32 -42 72 C-39.2953546 69.70805254 -36.64332724 67.36230906 -34 65 C-32.86691406 64.02160156 -32.86691406 64.02160156 -31.7109375 63.0234375 C-25.10866777 56.96568486 -21.30756559 50.2742316 -18 42 C-18 41.01 -18 40.02 -18 39 C-18.78375 38.71125 -19.5675 38.4225 -20.375 38.125 C-23 37 -23 37 -25 35 C-24.979375 34.05125 -24.95875 33.1025 -24.9375 32.125 C-24.68459366 29.0193185 -24.68459366 29.0193185 -26.44921875 27.16796875 C-29.38274964 23.06693691 -29.1353785 17.90585914 -29 13 C-28.26387275 10.4446538 -27.19981501 8.39963002 -26 6 C-25.83242243 2.79129767 -25.83242243 2.79129767 -26 0 C-25.67 -0.66 -25.34 -1.32 -25 -2 C-22.68025766 -2.41755362 -20.34214207 -2.7355646 -18 -3 C-16.845 -3.20625 -15.69 -3.4125 -14.5 -3.625 C-8.52407813 -4.26527734 -4.68226707 -3.68905891 0 0 Z M-11 -1 C-11.33 -0.01 -11.66 0.98 -12 2 C-8.535 1.505 -8.535 1.505 -5 1 C-5.33 0.34 -5.66 -0.32 -6 -1 C-7.65 -1 -9.3 -1 -11 -1 Z M-21 0 C-21.48108275 1.41601714 -21.95978141 2.83284437 -22.4375 4.25 C-22.70433594 5.03890625 -22.97117188 5.8278125 -23.24609375 6.640625 C-23.91954708 8.74821988 -24.49150595 10.84753973 -25 13 C-20.57883696 11.64908907 -18.51923342 9.86882275 -16 6 C-15.21053391 3.31492671 -15.21053391 3.31492671 -15 1 C-17.97 0.505 -17.97 0.505 -21 0 Z M-2 3 C-2 3.99 -2 4.98 -2 6 C-1.01 6 -0.02 6 1 6 C1 5.01 1 4.02 1 3 C0.01 3 -0.98 3 -2 3 Z M-1.94921875 9.19921875 C-5.51708016 10.59238368 -9.24825963 11.27687544 -13 12 C-13 12.33 -13 12.66 -13 13 C-9.7 13 -6.4 13 -3 13 C-1.52806688 15.94386623 -2.15063827 18.37390036 -2.4375 21.625 C-2.53933594 22.81351563 -2.64117187 24.00203125 -2.74609375 25.2265625 C-2.82988281 26.14179687 -2.91367188 27.05703125 -3 28 C0.04844542 28.30559859 0.04844542 28.30559859 2.109375 26.37109375 C4.37224508 23.53315544 4.76326318 21.63641014 5.25 18.0625 C5.39953125 17.04285156 5.5490625 16.02320313 5.703125 14.97265625 C5.97127566 12.28762131 6.05956878 9.69548742 6 7 C2.7912398 7 0.92678916 7.89978048 -1.94921875 9.19921875 Z M27 8 C27.33 9.98 27.66 11.96 28 14 C28.99 14.33 29.98 14.66 31 15 C30.67 13.02 30.34 11.04 30 9 C29.01 8.67 28.02 8.34 27 8 Z M38 11 C38 11.66 38 12.32 38 13 C39.32 12.34 40.64 11.68 42 11 C40.68 11 39.36 11 38 11 Z M-26 20 C-24.93704022 25.44766886 -22.31006532 28.23271853 -18.16015625 31.64453125 C-14.96458557 33.64970851 -12.66256426 33.63390535 -9 33 C-7.68 32.34 -6.36 31.68 -5 31 C-5.33 26.38 -5.66 21.76 -6 17 C-16.9345014 15.17770757 -16.9345014 15.17770757 -26 20 Z M26 38 C25.67 39.32 25.34 40.64 25 42 C27.475 43.485 27.475 43.485 30 45 C30.77242269 43.16299211 30.77242269 43.16299211 31 41 C29.77045984 39.18700508 29.77045984 39.18700508 28 38 C27.34 38 26.68 38 26 38 Z M-16 62 C-16 63.32 -16 64.64 -16 66 C-14.35 65.34 -12.7 64.68 -11 64 C-11 62.68 -11 61.36 -11 60 C-13.32357511 59.81509993 -13.32357511 59.81509993 -16 62 Z M4 65 C4 65.99 4 66.98 4 68 C8.2365956 72.24128858 8.2365956 72.24128858 14 73 C13.88658466 70.59122743 13.88658466 70.59122743 13 68 C9.68035674 65.39811744 8.30683959 65 4 65 Z M-6 68 C-7.01111093 71.04913228 -7.01111093 71.04913228 -6 74 C-5.01 74 -4.02 74 -3 74 C-3.34444881 71.52733235 -3.34444881 71.52733235 -4 69 C-4.66 68.67 -5.32 68.34 -6 68 Z M-22 82 C-22.99 82.495 -22.99 82.495 -24 83 C-24 83.66 -24 84.32 -24 85 C-23.01 84.67 -22.02 84.34 -21 84 C-21.33 83.34 -21.66 82.68 -22 82 Z M-42 89 C-42 89.99 -42 90.98 -42 92 C-41.34 92 -40.68 92 -40 92 C-40 91.01 -40 90.02 -40 89 C-40.66 89 -41.32 89 -42 89 Z M-26 92 C-25.67 92.99 -25.34 93.98 -25 95 C-22.98491642 95.73323796 -22.98491642 95.73323796 -21 96 C-20.67 95.01 -20.34 94.02 -20 93 C-22.97 92.505 -22.97 92.505 -26 92 Z M-35 97 C-34.34 97.66 -33.68 98.32 -33 99 C-32.67 98.34 -32.34 97.68 -32 97 C-32.99 97 -33.98 97 -35 97 Z " fill="#FEF1FE" transform="translate(162,34)"/>
<path d="M0 0 C0.99 0.33 1.98 0.66 3 1 C2.625 2.9375 2.625 2.9375 2 5 C1.34 5.33 0.68 5.66 0 6 C-0.78507492 7.42901277 -1.50349968 8.8949447 -2.1875 10.375 C-5.0085264 16.21976129 -8.43029691 21.58886506 -12 27 C-11.01 28.485 -11.01 28.485 -10 30 C-10.375 33.6875 -10.375 33.6875 -11 37 C-12.98 36.505 -12.98 36.505 -15 36 C-15 35.34 -15 34.68 -15 34 C-27.35392657 40.67657061 -35.45263205 52.20325828 -39.51953125 65.34765625 C-39.75736328 66.16556641 -39.75736328 66.16556641 -40 67 C-38.576875 67.37125 -38.576875 67.37125 -37.125 67.75 C-34 69 -34 69 -32.75 70.8125 C-32.5025 71.534375 -32.255 72.25625 -32 73 C-30.83443914 75.98674972 -29.79466019 78.30800971 -28 81 C-26.67502544 87.90381484 -26.48283962 92.80979773 -30 99 C-30.25934422 101.72311427 -30.14190858 104.25643404 -30 107 C-34.56748393 108.8487435 -37.21926258 108.8314326 -42 108 C-42.99 108.495 -42.99 108.495 -44 109 C-46.95936046 110.47968023 -48.86760134 109.84835797 -52 109 C-53.34990354 108.02248365 -54.68036291 107.01800576 -56 106 C-58.95897671 104.56939909 -61.97113198 103.27497222 -65 102 C-65.30343008 83.18733509 -65.30343008 83.18733509 -60 77 C-58.700625 76.01 -58.700625 76.01 -57.375 75 C-54.71106371 73.15818585 -54.71106371 73.15818585 -54.25 69.875 C-53.8375 68.92625 -53.425 67.9775 -53 67 C-50.98828125 66.453125 -50.98828125 66.453125 -48.5625 66.125 C-46.14448036 65.84866997 -46.14448036 65.84866997 -44 65 C-42.23580218 62.3482244 -41.76250828 60.15170089 -41 57 C-41.70165283 57.56267578 -42.40330566 58.12535156 -43.1262207 58.70507812 C-50.76468301 64.65352675 -58.51857393 69.19549463 -67.1875 73.5 C-69.59941502 74.71529375 -72.00849012 75.93612534 -74.41796875 77.15625 C-75.46750732 77.68025391 -76.5170459 78.20425781 -77.59838867 78.74414062 C-79.88947411 79.78982789 -79.88947411 79.78982789 -81 81 C-80.34 81.391875 -79.68 81.78375 -79 82.1875 C-77 84 -77 84 -76.75 86.6875 C-76.8325 87.450625 -76.915 88.21375 -77 89 C-79.475 89.99 -79.475 89.99 -82 91 C-81.79375 92.0725 -81.5875 93.145 -81.375 94.25 C-81.0123809 97.87619096 -81.01637931 99.08291076 -83 102 C-85.96167018 101.56123405 -87.05036428 100.95371931 -89.3125 98.875 C-91.94475417 96.61123752 -91.94475417 96.61123752 -95.5625 97.3125 C-96.696875 97.539375 -97.83125 97.76625 -99 98 C-101.4375 97.5625 -101.4375 97.5625 -103 97 C-102.875 94.6875 -102.875 94.6875 -102 92 C-99.05332216 90.12484137 -96.7146648 89.09745429 -93.25 88.625 C-92.13625 88.315625 -92.13625 88.315625 -91 88 C-89.8342928 85.50262312 -89.8342928 85.50262312 -89 83 C-90.10794922 83.39832031 -90.10794922 83.39832031 -91.23828125 83.8046875 C-98.10955987 86.1969751 -104.80507039 87.92359321 -112 89 C-112.33 88.01 -112.66 87.02 -113 86 C-112.42781738 85.8548999 -111.85563477 85.7097998 -111.26611328 85.56030273 C-100.90535292 82.90547424 -90.66828516 80.12275791 -80.6875 76.25 C-79.9238916 75.95665771 -79.1602832 75.66331543 -78.37353516 75.36108398 C-74.48100318 74.03097458 -74.48100318 74.03097458 -72 71 C-76.58468413 70.78674811 -76.58468413 70.78674811 -81 71.75 C-83.93680778 72.11710097 -85.93244824 70.88938821 -88.3828125 69.375 C-91.21211124 66.96941266 -91.92712416 64.53417923 -93 61 C-93 59.68 -93 58.36 -93 57 C-87.96878252 57.02236097 -84.17200064 57.25692264 -80.4375 60.875 C-78 64 -78 64 -78 67 C-66.20291374 68.17481357 -59.57642095 66.27566714 -50 59 C-48.82582098 58.13891348 -47.65133622 57.27824374 -46.4765625 56.41796875 C-42.18057664 53.21888097 -38.01044169 50.02910042 -34.25 46.19921875 C-32 44 -32 44 -30 44 C-30 43.01 -30 42.02 -30 41 C-32.31 41 -34.62 41 -37 41 C-37.20625 41.763125 -37.4125 42.52625 -37.625 43.3125 C-39.46297567 46.90490699 -41.26807727 47.60967585 -45 49 C-47.875 49.1875 -47.875 49.1875 -50 49 C-51.3542168 45.34361463 -50.51496224 43.48672608 -49 40 C-50.04800781 40.3609375 -51.09601563 40.721875 -52.17578125 41.09375 C-53.55460651 41.56273818 -54.93351725 42.0314751 -56.3125 42.5 C-57.00279297 42.73847656 -57.69308594 42.97695313 -58.40429688 43.22265625 C-61.38931489 44.23208263 -63.82658914 45 -67 45 C-67 44.01 -67 43.02 -67 42 C-67.7425 41.773125 -68.485 41.54625 -69.25 41.3125 C-72.5840064 39.72126967 -74.01256359 38.09156776 -76 35 C-76 33.68 -76 32.36 -76 31 C-72.93570224 29.46785112 -70.3834358 29.77061452 -67 30 C-63.33790106 31.70330183 -60.64934765 33.9581564 -58 37 C-58 37.66 -58 38.32 -58 39 C-57.34 39 -56.68 39 -56 39 C-56.33 38.34 -56.66 37.68 -57 37 C-57.06996014 35.29297265 -57.08440154 33.58331997 -57.0625 31.875 C-57.05347656 30.96492188 -57.04445313 30.05484375 -57.03515625 29.1171875 C-57.02355469 28.41851562 -57.01195312 27.71984375 -57 27 C-52.14957612 27.41575062 -50.15680495 29.41659978 -47 33 C-46.34 33.99 -45.68 34.98 -45 36 C-42.08651247 36.55070232 -42.08651247 36.55070232 -38.75 36.625 C-35.30232039 36.79182321 -32.18599537 36.95538856 -28.82421875 37.76171875 C-25.95293638 38.31400071 -25.95293638 38.31400071 -23.91015625 36.48046875 C-23.30042969 35.72378906 -22.69070313 34.96710938 -22.0625 34.1875 C-21.38960938 33.35992187 -20.71671875 32.53234375 -20.0234375 31.6796875 C-13.2910115 22.7831416 -13.2910115 22.7831416 -8 13 C-9.32 13 -10.64 13 -12 13 C-12.0825 13.928125 -12.165 14.85625 -12.25 15.8125 C-13 19 -13 19 -14.875 20.875 C-17 22 -17 22 -20 22 C-21.125 15.25 -21.125 15.25 -20 13 C-23.18891813 14.05641115 -26.15511054 15.19771275 -29 17 C-30.39038745 20.49026242 -30.39038745 20.49026242 -31 24 C-32.875 25.9375 -32.875 25.9375 -35 27 C-36.32 27 -37.64 27 -39 27 C-39.25 20.375 -39.25 20.375 -37 17 C-38.98 15.02 -40.96 13.04 -43 11 C-42.375 9.0625 -42.375 9.0625 -41 7 C-37.99228896 5.8808517 -36.04773704 5.54857021 -33.05078125 6.83984375 C-31.32539362 7.8232797 -29.65751595 8.90603947 -28 10 C-28.495 6.535 -28.495 6.535 -29 3 C-27.3125 2.25 -27.3125 2.25 -25 2 C-20.31876566 4.9393797 -20.31876566 4.9393797 -19.35546875 8.14453125 C-19.23816406 8.75683594 -19.12085938 9.36914062 -19 10 C-18.40832031 9.91621094 -17.81664062 9.83242188 -17.20703125 9.74609375 C-12.90060543 9.19110576 -9.24447356 8.76773348 -5 10 C-3.85855076 7.7986336 -2.85017977 5.62104295 -1.9375 3.3125 C-1 1 -1 1 0 0 Z M-24 7 C-24 7.66 -24 8.32 -24 9 C-23.34 8.67 -22.68 8.34 -22 8 C-22.66 7.67 -23.32 7.34 -24 7 Z M-38 10 C-37.67 10.99 -37.34 11.98 -37 13 C-34.03 13.495 -34.03 13.495 -31 14 C-31.66 12.68 -32.32 11.36 -33 10 C-34.65 10 -36.3 10 -38 10 Z M-16 13 C-16.33 14.32 -16.66 15.64 -17 17 C-16.34 16.67 -15.68 16.34 -15 16 C-15.33 15.01 -15.66 14.02 -16 13 Z M-35 20 C-34.67 20.99 -34.34 21.98 -34 23 C-33.67 22.01 -33.34 21.02 -33 20 C-33.66 20 -34.32 20 -35 20 Z M-54 31 C-54.33 32.32 -54.66 33.64 -55 35 C-53.02 35.99 -53.02 35.99 -51 37 C-50.67 36.34 -50.34 35.68 -50 35 C-50.89163577 32.88316159 -50.89163577 32.88316159 -52 31 C-52.66 31 -53.32 31 -54 31 Z M-71 33 C-71.33 33.66 -71.66 34.32 -72 35 C-68.82679218 38.53586014 -66.83256305 40.58578031 -62 41 C-61.67 40.34 -61.34 39.68 -61 39 C-63.23407889 35.64888166 -64.26215824 34.18446044 -68.25 33.1875 C-69.1575 33.125625 -70.065 33.06375 -71 33 Z M-45.6875 41.5 C-46.120625 41.995 -46.55375 42.49 -47 43 C-46.01 44.485 -46.01 44.485 -45 46 C-42.94009522 44.70532323 -42.94009522 44.70532323 -41 43 C-41 42.01 -41 41.02 -41 40 C-44.00259517 39.66781808 -44.00259517 39.66781808 -45.6875 41.5 Z M-88 61 C-87.81171228 63.44480079 -87.81171228 63.44480079 -87 66 C-85.03241727 67.36020151 -85.03241727 67.36020151 -83 68 C-82.22757731 66.16299211 -82.22757731 66.16299211 -82 64 C-83.16666667 62.16666667 -83.16666667 62.16666667 -85 61 C-85.99 61 -86.98 61 -88 61 Z M-50 74.0625 C-51.56751549 77.09956126 -50.55952116 79.69882513 -50 83 C-50.28640437 85.00725774 -50.6126194 87.00976198 -51 89 C-48.22890693 89.05392397 -45.45886182 89.09363455 -42.6875 89.125 C-41.90181641 89.14175781 -41.11613281 89.15851563 -40.30664062 89.17578125 C-39.54931641 89.18222656 -38.79199219 89.18867188 -38.01171875 89.1953125 C-36.96697388 89.21102295 -36.96697388 89.21102295 -35.90112305 89.22705078 C-33.668827 89.10574595 -33.668827 89.10574595 -31 87 C-30.24248985 82.83369416 -30.80462604 81.29026988 -33.1875 77.75 C-37.04198259 73.98117258 -39.30228041 73.14635514 -44.625 72.6875 C-47.87696631 72.76977169 -47.87696631 72.76977169 -50 74.0625 Z M-60 81 C-61.59412284 84.18824568 -61.10174735 87.62896662 -61.0625 91.125 C-61.05798828 91.87910156 -61.05347656 92.63320313 -61.04882812 93.41015625 C-61.03703499 95.27347127 -61.01909942 97.13674555 -61 99 C-60.154375 98.73445313 -59.30875 98.46890625 -58.4375 98.1953125 C-52.3230377 96.29149128 -46.23421929 94.46687513 -40 93 C-40 92.67 -40 92.34 -40 92 C-41.60407328 91.97291433 -43.2082785 91.95356517 -44.8125 91.9375 C-45.70582031 91.92589844 -46.59914063 91.91429687 -47.51953125 91.90234375 C-50.13413791 91.88990033 -50.13413791 91.88990033 -53 93 C-54.13626323 89.60699174 -53.8241769 87.32624078 -53 83.875 C-51.98340052 80.33495184 -51.98340052 80.33495184 -53 77 C-56.16377669 77 -57.68855276 78.98489215 -60 81 Z M-83 84 C-83 84.66 -83 85.32 -83 86 C-82.34 86 -81.68 86 -81 86 C-81 85.34 -81 84.68 -81 84 C-81.66 84 -82.32 84 -83 84 Z M-88 91 C-88.25030977 93.41619823 -88.25030977 93.41619823 -88 96 C-86.515 96.99 -86.515 96.99 -85 98 C-84.67 97.01 -84.34 96.02 -84 95 C-85.32 93.68 -86.64 92.36 -88 91 Z M-37 95 C-38.63668811 97.28488141 -39.76460928 99.43770814 -41 102 C-40.67 102.99 -40.34 103.98 -40 105 C-37.03 105.495 -37.03 105.495 -34 106 C-32.5563532 103.1127064 -32.4321732 100.18727731 -32 97 C-31.68033861 95.33065717 -31.35268934 93.6626783 -31 92 C-33.92719025 92 -34.83816642 93.02891644 -37 95 Z M-97 93 C-97.33 93.66 -97.66 94.32 -98 95 C-97.01 94.67 -96.02 94.34 -95 94 C-95.66 93.67 -96.32 93.34 -97 93 Z M-42 96 C-42.66 96.66 -43.32 97.32 -44 98 C-43.01 98 -42.02 98 -41 98 C-41.33 97.34 -41.66 96.68 -42 96 Z M-57 100 C-56.67 100.99 -56.34 101.98 -56 103 C-55.34 103 -54.68 103 -54 103 C-54.33 102.01 -54.66 101.02 -55 100 C-55.66 100 -56.32 100 -57 100 Z M-51 106 C-47.41672247 107.00217064 -47.41672247 107.00217064 -44 106 C-44 105.34 -44 104.68 -44 104 C-48.04622502 103.63019987 -48.04622502 103.63019987 -51 106 Z " fill="#FEF2FD" transform="translate(397,255)"/>
<path d="M0 0 C2.5625 1.4375 2.5625 1.4375 4 3 C4 3.66 4 4.32 4 5 C4.74765625 4.69964844 5.4953125 4.39929688 6.265625 4.08984375 C7.25046875 3.70957031 8.2353125 3.32929688 9.25 2.9375 C10.22453125 2.55464844 11.1990625 2.17179688 12.203125 1.77734375 C15.07330273 0.97962676 16.31613739 0.77088593 19 2 C19.99 3.485 19.99 3.485 21 5 C18.58065905 7.88092573 16.58968396 8.46689543 13 9.375 C10.25774896 10.27168074 10.25774896 10.27168074 8 12 C6.66755859 15.23845031 6.12197021 18.26896818 5.5703125 21.72265625 C4.80169443 26.13957791 3.30874058 29.17614842 1 33 C-2.45245824 35.30163882 -3.94738713 35.34490322 -8 35 C-10.33944729 32.66055271 -10.31880066 32.12400261 -10.375 28.9375 C-10.28954631 23.67355273 -8.43227445 19.59308969 -6 15 C-7.32 14.34 -8.64 13.68 -10 13 C-9.67 11.68 -9.34 10.36 -9 9 C-7.68 9.33 -6.36 9.66 -5 10 C-5 10.99 -5 11.98 -5 13 C-4.34 13 -3.68 13 -3 13 C-2.34 11.02 -1.68 9.04 -1 7 C-8.27575478 7.46615381 -8.27575478 7.46615381 -15 10 C-16.27489266 11.79927039 -16.27489266 11.79927039 -17 14 C-17.391875 14.763125 -17.78375 15.52625 -18.1875 16.3125 C-19.28215753 19.93329028 -18.92879623 22.35115769 -18 26 C-16.948125 27.051875 -16.948125 27.051875 -15.875 28.125 C-15.25625 28.74375 -14.6375 29.3625 -14 30 C-14.25 32.75 -14.25 32.75 -15 35 C-16.2375 35.37125 -17.475 35.7425 -18.75 36.125 C-29.84966972 39.87749498 -38.24998832 43.99997819 -43.875 54.5 C-45.46408455 59.44381861 -45.87284291 63.0880584 -43.6875 67.875 C-42.10128715 70.26971972 -42.10128715 70.26971972 -39 71 C-28.88059239 72.12437862 -21.29286548 67.529061 -13.1875 61.8125 C-8.93329322 58.366054 -6.36107054 54.29615371 -3.703125 49.55078125 C-1.78810102 46.68263753 0.15113343 44.9281129 3 43 C5.3125 43.25 5.3125 43.25 7 44 C6.57453536 49.9185171 4.85312356 53.48005723 1.5 58.3125 C0.67658492 59.53742552 -0.14635383 60.76267142 -0.96875 61.98828125 C-1.97421875 63.47908203 -1.97421875 63.47908203 -3 65 C-3.33 65.66 -3.66 66.32 -4 67 C5.8672742 62.59496687 12.57169809 57.00214909 17 47 C17.5120923 45.50408507 18.01293517 44.00424993 18.5 42.5 C20 39 20 39 22.625 37.9375 C25 38 25 38 26 39 C26.966319 44.38377731 24.84194678 47.82677936 22.02734375 52.2109375 C15.2851437 61.4863341 7.07714303 71.67587819 -4.8125 73.625 C-8.53870024 72.8943725 -10.1510049 71.42817579 -13 69 C-13.86882812 69.55429688 -14.73765625 70.10859375 -15.6328125 70.6796875 C-16.79666681 71.41178941 -17.9607411 72.14354169 -19.125 72.875 C-19.69476563 73.23980469 -20.26453125 73.60460937 -20.8515625 73.98046875 C-28.07501674 78.49512765 -34.5608326 80.01873705 -43 79 C-47.45146251 76.81473658 -50.18885145 74.0605479 -53 70 C-55.30538781 63.08383656 -54.17040839 56.91623282 -51.25390625 50.3515625 C-45.46719218 39.49922022 -35.31491265 34.5953928 -24 31 C-24.65585189 27.39007621 -24.65585189 27.39007621 -26 24 C-26.82298635 17.49705866 -25.79522153 12.36970972 -22 7 C-15.49335368 0.49335368 -8.96913025 -2.30288479 0 0 Z " fill="#FDF6FD" transform="translate(107,143)"/>
<path d="M0 0 C2.8125 0.1875 2.8125 0.1875 5 1 C4.67 2.98 4.34 4.96 4 7 C4.59167969 6.77183594 5.18335938 6.54367188 5.79296875 6.30859375 C13.64147627 3.45342707 13.64147627 3.45342707 18 5 C17.9375 6.8125 17.9375 6.8125 17 9 C13.5736647 11.05580118 11.31569403 12.07583251 7.2890625 11.84375 C3.07052087 11.62230425 -0.32131243 11.53232758 -3.65087891 14.44335938 C-10.00994371 21.46674791 -15.44080942 29.8222131 -18 39 C-11.89829093 36.91289629 -7.13421045 34.80457543 -2.5703125 30.171875 C-1 29 -1 29 3 29 C3.495 30.485 3.495 30.485 4 32 C-2.19070702 38.78980769 -9.80100699 44.51380447 -19.1875 45.25 C-22 45 -22 45 -25 43 C-25 42.34 -25 41.68 -25 41 C-25.825 41.495 -26.65 41.99 -27.5 42.5 C-31.81968538 44.35129373 -34.34409434 44.38799214 -39 44 C-41 42 -41 42 -41.15234375 40.08203125 C-40.65573356 34.83602175 -39.53793621 31.57763253 -36.15625 27.5078125 C-34.77942744 25.88220115 -34.77942744 25.88220115 -34 23 C-42.91968453 26.57146322 -47.1713931 31.24639522 -52.3984375 39.1015625 C-55.63196313 43.86366389 -55.63196313 43.86366389 -58.03515625 44.75390625 C-60 45 -60 45 -61.75 43.9375 C-64.78307124 42.67372032 -66.66389727 43.66264259 -69.71484375 44.53515625 C-75.12483161 45.63564951 -80.25296122 44.96265402 -85.0625 42.3125 C-87.61256349 39.26887583 -88.148342 38.00523398 -88 34 C-85.58324321 26.61746932 -81.74474232 21.80472644 -75 18 C-70.91535538 16.20275637 -67.45155405 15.4317165 -63 16 C-60.125 17.625 -60.125 17.625 -58 20 C-57.3125 22.9375 -57.3125 22.9375 -58 26 C-62.45670523 31.50534176 -68.34840246 32.42501458 -75.05078125 34.0078125 C-76.51064453 34.49894531 -76.51064453 34.49894531 -78 35 C-78.33 35.99 -78.66 36.98 -79 38 C-70.32304501 38.47138387 -64.97834553 37.42760208 -58 32 C-57.34 32 -56.68 32 -56 32 C-55.76152344 31.45730469 -55.52304688 30.91460937 -55.27734375 30.35546875 C-53.6687852 27.38922775 -51.69066638 24.92990003 -49.5625 22.3125 C-48.78003906 21.33925781 -47.99757812 20.36601562 -47.19140625 19.36328125 C-45 17 -45 17 -42 16 C-40.33157466 16.32441604 -38.66519519 16.65939189 -37 17 C-35.824375 16.9175 -34.64875 16.835 -33.4375 16.75 C-30 17 -30 17 -27.5 19.125 C-26 22 -26 22 -25.875 24.8125 C-27.21288042 28.60316119 -29.1837221 31.18306025 -31.72265625 34.265625 C-33.19767115 35.90939954 -33.19767115 35.90939954 -33 38 C-26.58158782 33.73561277 -22.55274917 29.3573146 -18.640625 22.73046875 C-16.66929405 19.4496108 -14.42059616 16.47282537 -12.06640625 13.4609375 C-10.90173611 12.16683967 -10.90173611 12.16683967 -11 11 C-16.08959486 10.82747136 -19.2809815 11.03374229 -24 13 C-26.3125 12.625 -26.3125 12.625 -28 12 C-27.67 10.35 -27.34 8.7 -27 7 C-21.28793577 4.76319609 -16.81971623 3.79673288 -10.6875 4.625 C-7.71050872 5.06389903 -7.71050872 5.06389903 -5 5 C-2.06026719 2.64581624 -2.06026719 2.64581624 0 0 Z M-70.04296875 23.77734375 C-70.75066406 24.16019531 -71.45835937 24.54304688 -72.1875 24.9375 C-72.90292969 25.31777344 -73.61835938 25.69804687 -74.35546875 26.08984375 C-75.16951172 26.54037109 -75.16951172 26.54037109 -76 27 C-76 27.33 -76 27.66 -76 28 C-70.6092003 27.76995266 -70.6092003 27.76995266 -66 25.4375 C-65.67 24.963125 -65.34 24.48875 -65 24 C-67.85302199 22.69736489 -67.85302199 22.69736489 -70.04296875 23.77734375 Z " fill="#FDF6FD" transform="translate(214,170)"/>
<path d="M0 0 C3 1 3 1 4 3 C4.13357453 6.67329964 4.1671568 9.49852959 3 13 C4.65 13 6.3 13 8 13 C8.495 14.485 8.495 14.485 9 16 C8.04906703 17.69514137 7.04892238 19.36368108 6 21 C6 21.66 6 22.32 6 23 C7.57974609 23.69222656 7.57974609 23.69222656 9.19140625 24.3984375 C27.3033782 32.51679542 44.07920175 43.72377711 58 58 C58 58.66 58 59.32 58 60 C59.485 60.495 59.485 60.495 61 61 C62.82421875 62.84765625 62.82421875 62.84765625 64.6875 65.0625 C65.62142578 66.16271484 65.62142578 66.16271484 66.57421875 67.28515625 C67.04472656 67.85105469 67.51523437 68.41695313 68 69 C69.32 67.68 70.64 66.36 72 65 C73.98 65.99 73.98 65.99 76 67 C75.54177532 70.46941546 75.10868317 73.67395049 74 77 C75.37900326 79.57902951 76.79591657 81.98663092 78.375 84.4375 C79.22086779 85.76653772 80.06217792 87.09848945 80.8984375 88.43359375 C81.27661621 89.02197021 81.65479492 89.61034668 82.04443359 90.21655273 C83.06690491 92.12486979 83.56167045 93.88701936 84 96 C82.1640625 95.79296875 82.1640625 95.79296875 80 95 C78.6484375 92.98828125 78.6484375 92.98828125 77.375 90.3125 C73.90462219 83.57381701 69.74200767 77.54738654 65.15478516 71.53271484 C64.16609927 70.22045904 63.22442012 68.87301321 62.29296875 67.51953125 C60.59676057 65.36813809 59.47620909 64.18803414 57 63 C52.15766555 62.48825329 47.67050344 62.56833814 43 64 C41.25005987 66.45772272 41.25005987 66.45772272 40 69 C36.8125 69.8125 36.8125 69.8125 34 70 C33 67 33 67 33 63 C32.525625 63.515625 32.05125 64.03125 31.5625 64.5625 C27.69002384 66.73486467 24.24770076 65.75333154 20 65 C20 63.68 20 62.36 20 61 C20.680625 60.34 21.36125 59.68 22.0625 59 C22.701875 58.34 23.34125 57.68 24 57 C23.79623822 55.09415804 23.79623822 55.09415804 23 53 C22.96111651 50.66699067 22.9551365 48.33290199 23 46 C26 45 26 45 28.5 45.9375 C31.17806607 48.14690451 31.39814839 48.77561315 32.3125 51.9375 C33.15755611 54.63670864 33.63615935 55.73835364 35.9609375 57.41015625 C37.92823373 58.37309598 39.96176158 59.19807013 42 60 C42 57.03 42 54.06 42 51 C42.66 50.67 43.32 50.34 44 50 C41.79252608 48.41545708 39.58405258 46.83233947 37.375 45.25 C36.44880859 44.58484375 36.44880859 44.58484375 35.50390625 43.90625 C33.67443304 42.59673234 31.83783906 41.29774044 30 40 C28.94941406 39.24976563 27.89882813 38.49953125 26.81640625 37.7265625 C21.72876902 34.60765036 16.9797987 34.70789855 11.1875 35.5625 C7.78623908 36.75462468 7.78623908 36.75462468 6.0625 39.9375 C3.63908485 43.53590432 1.94863901 44.24101379 -2 45.65234375 C-4.29658161 46.05155422 -5.80057183 45.71186849 -8 45 C-7.05650832 40.09384326 -5.16640693 36.16640693 -1.625 32.625 C1.29784814 30.81561782 2.63528133 30.55727386 6 31 C6.99 31.33 7.98 31.66 9 32 C11.16715557 31.12516085 11.16715557 31.12516085 13 30 C-0.68354 23.70512516 -15.7121579 17.0687094 -31 17 C-31.33 15.35 -31.66 13.7 -32 12 C-22.11207943 13.59046977 -12.42745031 15.58661282 -3 19 C-3.87887015 16.44209319 -3.87887015 16.44209319 -6 14 C-8.28657981 13.30593574 -10.54826919 12.92925892 -12.90234375 12.52734375 C-15 12 -15 12 -17.0625 10 C-18 8 -18 8 -18 6 C-14.83598119 4.41799059 -11.46125163 4.93831433 -8 5 C-4.75434142 5.34055197 -4.75434142 5.34055197 -2.3125 2.5 C-1.549375 1.675 -0.78625 0.85 0 0 Z M0 4 C-1.35827971 5.64639965 -2.69254251 7.31295807 -4 9 C-3.67 9.66 -3.34 10.32 -3 11 C-2.01 11 -1.02 11 0 11 C2.30671915 8.28450846 2.30671915 8.28450846 1.625 5.8125 C1.41875 5.214375 1.2125 4.61625 1 4 C0.67 4 0.34 4 0 4 Z M3 17 C2.67 17.66 2.34 18.32 2 19 C2.66 19 3.32 19 4 19 C3.67 18.34 3.34 17.68 3 17 Z M-1.625 36.25 C-3.41188103 38.15328527 -3.41188103 38.15328527 -3 42 C-0.50447516 41.21869929 -0.50447516 41.21869929 2 40 C2.33 39.01 2.66 38.02 3 37 C2.67 36.34 2.34 35.68 2 35 C-0.07748408 34.79676308 -0.07748408 34.79676308 -1.625 36.25 Z M27 49 C27 49.99 27 50.98 27 52 C27.66 52 28.32 52 29 52 C28.67 51.01 28.34 50.02 28 49 C27.67 49 27.34 49 27 49 Z M44 55 C44.33 56.32 44.66 57.64 45 59 C45.66 59 46.32 59 47 59 C46.67 57.68 46.34 56.36 46 55 C45.34 55 44.68 55 44 55 Z M50 56 C50.33 57.32 50.66 58.64 51 60 C51.99 59.67 52.98 59.34 54 59 C53.34 58.01 52.68 57.02 52 56 C51.34 56 50.68 56 50 56 Z M26 59 C25.67 60.32 25.34 61.64 25 63 C26.94074861 62.72382467 26.94074861 62.72382467 29 62 C29.66 61.01 30.32 60.02 31 59 C29.35 59 27.7 59 26 59 Z M38 63 C37.67 63.99 37.34 64.98 37 66 C37.66 66 38.32 66 39 66 C38.67 65.01 38.34 64.02 38 63 Z " fill="#FEF0FD" transform="translate(314,37)"/>
<path d="M0 0 C0.99 0 1.98 0 3 0 C3.49306641 0.96486328 3.49306641 0.96486328 3.99609375 1.94921875 C8.09251033 9.7313001 12.79693872 16.92627287 18 24 C18.68835938 25.01707031 19.37671875 26.03414063 20.0859375 27.08203125 C23.25768263 31.29726874 25.22639925 33.71893759 30.57421875 34.56640625 C34.35038431 34.43833486 37.42735342 34.24445659 41 33 C42.74656605 30.55644578 42.74656605 30.55644578 44 28 C47.1875 26.6875 47.1875 26.6875 50 26 C50.66 28.31 51.32 30.62 52 33 C52.845625 32.46375 53.69125 31.9275 54.5625 31.375 C58.84517642 29.66192943 60.77749945 30.39544979 65 32 C64.45773019 35.79588866 62.79872437 37.47211993 60 40 C60.350625 41.0725 60.70125 42.145 61.0625 43.25 C62.23076923 47.92307692 62.23076923 47.92307692 61 51 C58.1875 50.8125 58.1875 50.8125 55 50 C52.25530539 46.70636647 51.63696915 44.23535988 52 40 C49.03 39.01 46.06 38.02 43 37 C43.04125 38.27875 43.0825 39.5575 43.125 40.875 C43.1953125 43.0546875 43.1953125 43.0546875 43 45 C42.34 45.66 41.68 46.32 41 47 C43.18449406 48.5876212 45.37241595 50.17012174 47.5625 51.75 C48.17158203 52.1934375 48.78066406 52.636875 49.40820312 53.09375 C51.25503584 54.42268783 53.119667 55.71895369 55 57 C55.5767749 57.39993164 56.1535498 57.79986328 56.74780273 58.21191406 C61.24022939 61.08492575 64.67777834 61.43618484 69.9375 61.25 C70.62134766 61.23195313 71.30519531 61.21390625 72.00976562 61.1953125 C73.67379978 61.14876609 75.33709886 61.07704561 77 61 C77.42732422 59.83210938 77.42732422 59.83210938 77.86328125 58.640625 C79.33431111 55.22338726 80.84992995 53.96004359 84 52 C87.8125 51.25 87.8125 51.25 91 51 C92.24284687 53.93763806 92.01320986 54.96662773 90.8125 58 C88.33481481 62.10099617 86.73235162 64.53082144 82 65.8125 C79.25390057 65.98413121 77.58540937 65.77562281 75 65 C73.68 65 72.36 65 71 65 C71 65.66 71 66.32 71 67 C71.79148437 67.25910156 72.58296875 67.51820313 73.3984375 67.78515625 C76.12378799 68.70444475 78.83246552 69.64933704 81.5390625 70.62109375 C96.49933803 76.60757063 96.49933803 76.60757063 112.1953125 78.94140625 C115 79 115 79 117 81 C116.625 83.125 116.625 83.125 116 85 C115.01 85 114.02 85 113 85 C113 84.34 113 83.68 113 83 C111.989375 82.9175 110.97875 82.835 109.9375 82.75 C105.57006854 82.21489128 101.3676221 81.13649803 97.125 80 C96.45847412 79.82178711 95.79194824 79.64357422 95.10522461 79.45996094 C90.28004163 78.14002082 90.28004163 78.14002082 88 77 C88.62533375 79.52363988 88.62533375 79.52363988 90 82 C92.31006947 82.69621948 92.31006947 82.69621948 95 83 C98.25 84.3125 98.25 84.3125 101 86 C101.875 88.1875 101.875 88.1875 102 90 C98.52728445 92.3151437 97.07260203 92.25453763 93 92 C91.515 91.505 91.515 91.505 90 91 C89.236875 91.825 88.47375 92.65 87.6875 93.5 C85 96 85 96 82 96 C80.87743869 93.75487738 80.86586238 92.48543351 80.875 90 C80.87113281 88.948125 80.87113281 88.948125 80.8671875 87.875 C81 86 81 86 82 84 C80.35 84 78.7 84 77 84 C76.375 81.6875 76.375 81.6875 76 79 C76.99 77.515 76.99 77.515 78 76 C78.66 76 79.32 76 80 76 C77.28226278 72.69845257 73.65778224 71.2677782 69.875 69.5 C50.31175599 60.01581114 34.54694661 46.92989287 19.42944336 31.46118164 C18.2936718 30.30019227 17.14844968 29.14844968 16 28 C15.401875 28.515625 14.80375 29.03125 14.1875 29.5625 C13.465625 30.036875 12.74375 30.51125 12 31 C11.01 30.67 10.02 30.34 9 30 C8.1875 28.125 8.1875 28.125 8 26 C8.66 25.01 9.32 24.02 10 23 C9.68583798 19.12324062 8.36345978 16.68632074 6.125 13.5625 C0 4.71364183 0 4.71364183 0 0 Z M46 31 C45.67 31.66 45.34 32.32 45 33 C45.66 33 46.32 33 47 33 C46.67 32.34 46.34 31.68 46 31 Z M54 35 C54 35.99 54 36.98 54 38 C55.98 37.67 57.96 37.34 60 37 C60.33 36.01 60.66 35.02 61 34 C57.37114676 33.84850702 57.37114676 33.84850702 54 35 Z M31 37 C31.33 38.32 31.66 39.64 32 41 C32.99 41 33.98 41 35 41 C34.67 39.68 34.34 38.36 34 37 C33.01 37 32.02 37 31 37 Z M37 38 C37.33 38.99 37.66 39.98 38 41 C38.66 41 39.32 41 40 41 C39.67 40.01 39.34 39.02 39 38 C38.34 38 37.68 38 37 38 Z M56 44 C56 44.99 56 45.98 56 47 C56.66 47 57.32 47 58 47 C58 46.01 58 45.02 58 44 C57.34 44 56.68 44 56 44 Z M82.25 56.5 C81.8375 56.995 81.425 57.49 81 58 C81.66 59.32 82.32 60.64 83 62 C83.99 61.67 84.98 61.34 86 61 C87.22520264 57.99152582 87.22520264 57.99152582 88 55 C84.12202338 54.56613908 84.12202338 54.56613908 82.25 56.5 Z M80 78 C80 78.66 80 79.32 80 80 C80.99 79.67 81.98 79.34 83 79 C82.01 78.67 81.02 78.34 80 78 Z M84.4375 86.5 C83.963125 86.995 83.48875 87.49 83 88 C83.66 89.32 84.32 90.64 85 92 C86.62831762 90.19038423 86.62831762 90.19038423 88 88 C87.67 87.01 87.34 86.02 87 85 C85.75923698 84.88457803 85.75923698 84.88457803 84.4375 86.5 Z M95 87 C95 87.66 95 88.32 95 89 C95.66 88.67 96.32 88.34 97 88 C96.34 87.67 95.68 87.34 95 87 Z " fill="#FEF1FE" transform="translate(103,261)"/>
<path d="M0 0 C1.11242674 3.33728023 1.00671255 5.5087093 0.75 9 C0.68296875 10.051875 0.6159375 11.10375 0.546875 12.1875 C0 15 0 15 -1.234375 16.85546875 C-3.59342574 18.38467642 -5.20556308 18.36655905 -8 18.3125 C-8.86625 18.30863281 -9.7325 18.30476563 -10.625 18.30078125 C-13 18 -13 18 -16 16 C-16 15.34 -16 14.68 -16 14 C-15.34 13.67 -14.68 13.34 -14 13 C-14.13019531 12.40832031 -14.26039063 11.81664062 -14.39453125 11.20703125 C-15.14771747 6.89204854 -15.44365186 4.76491699 -13.1875 0.875 C-8.63248522 -1.80442046 -5.0424503 -0.98890773 0 0 Z M-9 3 C-9.66 3.66 -10.32 4.32 -11 5 C-10.67958603 7.60280568 -10.67958603 7.60280568 -10 10 C-8.35 10 -6.7 10 -5 10 C-4.32041397 7.60280568 -4.32041397 7.60280568 -4 5 C-4.66 4.34 -5.32 3.68 -6 3 C-6.99 3 -7.98 3 -9 3 Z M-10 14 C-6 15 -6 15 -6 15 Z " fill="#FEF3FE" transform="translate(271,237)"/>
<path d="M0 0 C2.79750031 2.18341487 3.75038246 3.67510688 4.40625 7.15625 C4.69607124 11.50356859 4.42280967 13.43625378 1.75 17 C-1.42322534 19.30780025 -3.34444507 20.12050833 -7.25390625 19.8359375 C-13.4112963 18.60654321 -13.4112963 18.60654321 -16.0625 15.875 C-17.28571617 12.12380376 -17.85749147 8.89411262 -17 5 C-12.13609154 -1.17847831 -7.31434982 -1.87479725 0 0 Z M-12 4.5625 C-13.41970326 8.02302669 -12.86301515 10.41516784 -12 14 C-10.06268472 16.36410488 -10.06268472 16.36410488 -6.5625 16.3125 C-3.15573049 16.25440855 -3.15573049 16.25440855 -1.0625 14.9375 C0.6140629 11.88023824 0.36528977 9.4093712 0 6 C-0.91666667 3.91666667 -0.91666667 3.91666667 -3 3 C-7.84723976 2.36652388 -7.84723976 2.36652388 -12 4.5625 Z " fill="#FEF3FE" transform="translate(236,231)"/>
<path d="M0 0 C0.87269531 -0.02578125 1.74539062 -0.0515625 2.64453125 -0.078125 C5.72185698 0.31894929 7.03379755 1.02745775 9.1875 3.25 C9.99331681 6.31766124 9.84996345 9.15658371 9.1875 12.25 C6.40068962 14.95484537 4.73037411 15.21927128 0.875 15.4375 C-0.4553125 15.3446875 -0.4553125 15.3446875 -1.8125 15.25 C-2.1425 16.9 -2.4725 18.55 -2.8125 20.25 C-3.8025 19.92 -4.7925 19.59 -5.8125 19.25 C-5.83933987 16.27077407 -5.85926037 13.29178705 -5.875 10.3125 C-5.88337891 9.46236328 -5.89175781 8.61222656 -5.90039062 7.73632812 C-5.90361328 6.92744141 -5.90683594 6.11855469 -5.91015625 5.28515625 C-5.91539307 4.5362915 -5.92062988 3.78742676 -5.92602539 3.01586914 C-5.68930235 -0.66631957 -3.1151693 0.05473211 0 0 Z M0.1875 4.25 C-0.4725 5.57 -1.1325 6.89 -1.8125 8.25 C-0.8225 9.735 -0.8225 9.735 0.1875 11.25 C1.8375 10.92 3.4875 10.59 5.1875 10.25 C5.1875 8.6 5.1875 6.95 5.1875 5.25 C3.5375 4.92 1.8875 4.59 0.1875 4.25 Z " fill="#FEF2FE" transform="translate(180.8125,235.75)"/>
<path d="M0 0 C1.17691406 0.07863281 2.35382813 0.15726563 3.56640625 0.23828125 C4.51386719 0.38652344 5.46132812 0.53476563 6.4375 0.6875 C6.7675 1.3475 7.0975 2.0075 7.4375 2.6875 C2.9825 3.1825 2.9825 3.1825 -1.5625 3.6875 C-2.2225 5.3375 -2.8825 6.9875 -3.5625 8.6875 C-0.5925 8.6875 2.3775 8.6875 5.4375 8.6875 C5.7675 9.6775 6.0975 10.6675 6.4375 11.6875 C3.03187148 12.46592938 -0.07015756 12.78728121 -3.5625 12.6875 C-3.5625 14.0075 -3.5625 15.3275 -3.5625 16.6875 C-0.2625 16.6875 3.0375 16.6875 6.4375 16.6875 C6.7675 17.6775 7.0975 18.6675 7.4375 19.6875 C4.32120851 20.72626383 2.0780571 20.82111625 -1.1875 20.8125 C-2.16976562 20.81507813 -3.15203125 20.81765625 -4.1640625 20.8203125 C-6.5625 20.6875 -6.5625 20.6875 -7.5625 19.6875 C-7.71870555 18.27422053 -7.81306173 16.8539541 -7.87890625 15.43359375 C-7.92080078 14.57958984 -7.96269531 13.72558594 -8.00585938 12.84570312 C-8.04517578 11.94787109 -8.08449219 11.05003906 -8.125 10.125 C-8.16818359 9.22330078 -8.21136719 8.32160156 -8.25585938 7.39257812 C-8.36228142 5.15771515 -8.46429988 2.92273692 -8.5625 0.6875 C-5.64018196 -0.77365902 -3.23492061 -0.23791403 0 0 Z " fill="#FEF1FE" transform="translate(151.5625,230.3125)"/>
<path d="M0 0 C2.3125 1.0625 2.3125 1.0625 4 3 C4.625 6.4375 4.625 6.4375 5 10 C5.95584438 12.33588323 5.95584438 12.33588323 7 14 C2.54881676 15.11279581 -1.43725883 15.28969785 -6 15 C-8.5 13.5 -8.5 13.5 -10 12 C-9.835 11.071875 -9.67 10.14375 -9.5 9.1875 C-8.92251612 6.04378647 -8.92251612 6.04378647 -9 3 C-6.60771965 -0.58842053 -4.0813703 -0.49975963 0 0 Z M-4 4 C-4 4.66 -4 5.32 -4 6 C-3.01 5.67 -2.02 5.34 -1 5 C-1.99 4.67 -2.98 4.34 -4 4 Z M-4 9 C-4.33 9.66 -4.66 10.32 -5 11 C-3.68 11 -2.36 11 -1 11 C-1 10.34 -1 9.68 -1 9 C-1.99 9 -2.98 9 -4 9 Z " fill="#FEF5FE" transform="translate(283,236)"/>
<path d="M0 0 C2.05918035 2.7143741 2.02244763 3.8054539 1.625 7.25 C1.41875 8.1575 1.2125 9.065 1 10 C-6.85958904 12.38013699 -6.85958904 12.38013699 -11 11 C-13 9 -13 9 -14 6.125 C-14 2.35724432 -13.4970475 0.81924718 -11 -2 C-6.33723219 -3.62183228 -3.81788233 -3.07551632 0 0 Z M-8 1 C-4 2 -4 2 -4 2 Z M-8 6 C-8 6.66 -8 7.32 -8 8 C-6.35 8 -4.7 8 -3 8 C-2.67 7.34 -2.34 6.68 -2 6 C-3.98 6 -5.96 6 -8 6 Z " fill="#FEF4FD" transform="translate(343,239)"/>
<path d="M0 0 C0.88429688 -0.02578125 1.76859375 -0.0515625 2.6796875 -0.078125 C5.125 0.25 5.125 0.25 6.93359375 1.41015625 C8.60424926 3.99008656 8.41991028 5.89420879 8.3125 8.9375 C8.28542969 9.93136719 8.25835937 10.92523438 8.23046875 11.94921875 C8.19566406 12.70847656 8.16085937 13.46773437 8.125 14.25 C6.805 14.25 5.485 14.25 4.125 14.25 C4.125 10.95 4.125 7.65 4.125 4.25 C2.475 4.91 0.825 5.57 -0.875 6.25 C-0.875 8.89 -0.875 11.53 -0.875 14.25 C-1.865 14.58 -2.855 14.91 -3.875 15.25 C-4.535 14.92 -5.195 14.59 -5.875 14.25 C-5.90185938 12.10423363 -5.92133088 9.95837355 -5.9375 7.8125 C-5.94910156 6.61753906 -5.96070313 5.42257813 -5.97265625 4.19140625 C-5.81578568 -0.53353526 -4.29087976 0.074624 0 0 Z " fill="#FEF2FE" transform="translate(296.875,235.75)"/>
<path d="M0 0 C2 2 2 2 2.4375 5.375 C2 9 2 9 0.0625 11.5625 C-3.82427426 13.38690424 -5.93191697 12.90127612 -10.01171875 11.96875 C-12 11 -12 11 -13.28125 9.1015625 C-14.31161628 6.08886111 -13.85589075 4.02853651 -13 1 C-8.23402118 -2.17731922 -5.15064578 -2.64492621 0 0 Z M-10 4 C-9.59471099 6.78237655 -9.59471099 6.78237655 -8 9 C-6.33382885 9.04063832 -4.66611905 9.042721 -3 9 C-1.99782936 5.41672247 -1.99782936 5.41672247 -3 2 C-6.95457848 1.65176193 -6.95457848 1.65176193 -10 4 Z " fill="#FEF1FE" transform="translate(206,238)"/>
<path d="M0 0 C1.50433594 0.01353516 1.50433594 0.01353516 3.0390625 0.02734375 C3.80992187 0.03894531 4.58078125 0.05054688 5.375 0.0625 C5.705 1.0525 6.035 2.0425 6.375 3.0625 C5.16015625 4.88671875 5.16015625 4.88671875 3.4375 6.75 C2.87160156 7.37261719 2.30570312 7.99523437 1.72265625 8.63671875 C1.27792969 9.10722656 0.83320313 9.57773438 0.375 10.0625 C2.355 10.7225 4.335 11.3825 6.375 12.0625 C6.045 13.0525 5.715 14.0425 5.375 15.0625 C3.58341511 15.08946365 1.79171527 15.10887917 0 15.125 C-0.99773437 15.13660156 -1.99546875 15.14820313 -3.0234375 15.16015625 C-5.625 15.0625 -5.625 15.0625 -7.625 14.0625 C-7.11977778 9.68390745 -4.44672778 7.24598776 -1.625 4.0625 C-3.275 4.0625 -4.925 4.0625 -6.625 4.0625 C-6.955 3.0725 -7.285 2.0825 -7.625 1.0625 C-4.98041621 -0.25979189 -2.94738699 -0.03427194 0 0 Z " fill="#FEF3FE" transform="translate(321.625,235.9375)"/>
<path d="M0 0 C0.66 0.66 1.32 1.32 2 2 C1.01 3.98 0.02 5.96 -1 8 C-0.484375 8.598125 0.03125 9.19625 0.5625 9.8125 C1.036875 10.534375 1.51125 11.25625 2 12 C1.67 12.99 1.34 13.98 1 15 C0.401875 14.67 -0.19625 14.34 -0.8125 14 C-3.05386471 12.79212012 -3.05386471 12.79212012 -6 13 C-8.15028304 13.94978897 -8.15028304 13.94978897 -10 15 C-10.33 14.01 -10.66 13.02 -11 12 C-10.34 11.01 -9.68 10.02 -9 9 C-9.35515029 6.15879766 -10.09349251 3.71952248 -11 1 C-8.23723823 1.52268466 -5.6739124 2.10869587 -3 3 C-3 2.34 -3 1.68 -3 1 C-2.01 0.67 -1.02 0.34 0 0 Z " fill="#FEF1FE" transform="translate(171,236)"/>
<path d="M0 0 C3.81701322 0.04788368 3.81701322 0.04788368 6.125 1.5625 C7.125 3.25 7.125 3.25 7.125 6.25 C4.95625748 5.74396008 3.12532373 5.25016187 1.125 4.25 C-0.02314997 6.54629994 -0.18269809 8.32698086 -0.4375 10.875 C-0.52128906 11.69226563 -0.60507812 12.50953125 -0.69140625 13.3515625 C-0.75199219 13.97804687 -0.81257813 14.60453125 -0.875 15.25 C-2.195 14.92 -3.515 14.59 -4.875 14.25 C-4.90185938 12.10423363 -4.92133088 9.95837355 -4.9375 7.8125 C-4.94910156 6.61753906 -4.96070313 5.42257813 -4.97265625 4.19140625 C-4.8254458 -0.24257264 -4.61298734 0.29761209 0 0 Z " fill="#FEEFFE" transform="translate(350.875,235.75)"/>
<path d="M0 0 C1.91015625 0.23046875 1.91015625 0.23046875 3.91015625 2.23046875 C3.91015625 3.55046875 3.91015625 4.87046875 3.91015625 6.23046875 C0.94015625 5.73546875 0.94015625 5.73546875 -2.08984375 5.23046875 C-2.41984375 8.20046875 -2.74984375 11.17046875 -3.08984375 14.23046875 C-4.40984375 14.23046875 -5.72984375 14.23046875 -7.08984375 14.23046875 C-7.11670313 12.08470238 -7.13617463 9.9388423 -7.15234375 7.79296875 C-7.16394531 6.59800781 -7.17554688 5.40304688 -7.1875 4.171875 C-7.01383767 -1.05883438 -4.69209989 0.09367169 0 0 Z " fill="#FEF0FE" transform="translate(250.08984375,235.76953125)"/>
<path d="M0 0 C0.99 0.33 1.98 0.66 3 1 C3.33 4.96 3.66 8.92 4 13 C2.02 13.99 2.02 13.99 0 15 C-1 14 -1 14 -1.1328125 11.09375 C-1.13023437 9.9078125 -1.12765625 8.721875 -1.125 7.5 C-1.12757813 6.3140625 -1.13015625 5.128125 -1.1328125 3.90625 C-1 1 -1 1 0 0 Z " fill="#FEF4FE" transform="translate(309,236)"/>
<path d="M0 0 C0.99 0.33 1.98 0.66 3 1 C3 2.32 3 3.64 3 5 C2.01 5 1.02 5 0 5 C0 5.99 0 6.98 0 8 C-0.99 8.33 -1.98 8.66 -3 9 C-3.99 8.01 -4.98 7.02 -6 6 C-4 3 -4 3 -1 2 C-0.67 1.34 -0.34 0.68 0 0 Z " fill="#FEEAFE" transform="translate(403,143)"/>
<path d="M0 0 C0 1.32 0 2.64 0 4 C-0.99 4.33 -1.98 4.66 -3 5 C-3.33 5.66 -3.66 6.32 -4 7 C-5.32 7 -6.64 7 -8 7 C-8.33 7.66 -8.66 8.32 -9 9 C-9 6 -9 6 -7.6875 4.5 C-7.130625 4.005 -6.57375 3.51 -6 3 C-5.505 2.443125 -5.01 1.88625 -4.5 1.3125 C-3 0 -3 0 0 0 Z " fill="#FCFBF8" transform="translate(139,121)"/>
<path d="M0 0 C-0.66 1.98 -1.32 3.96 -2 6 C-2.33 5.01 -2.66 4.02 -3 3 C-4.65 3.66 -6.3 4.32 -8 5 C-8 3.68 -8 2.36 -8 1 C-3.375 -1.125 -3.375 -1.125 0 0 Z " fill="#FEECFE" transform="translate(323,51)"/>
<path d="M0 0 C0.66 0 1.32 0 2 0 C1.67 3.96 1.34 7.92 1 12 C0.34 12 -0.32 12 -1 12 C-1.02687279 10.18757948 -1.04633715 8.37504767 -1.0625 6.5625 C-1.07410156 5.55316406 -1.08570313 4.54382813 -1.09765625 3.50390625 C-1 1 -1 1 0 0 Z " fill="#FBFCFD" transform="translate(348,238)"/>
<path d="M0 0 C2.97 0 5.94 0 9 0 C9.33 0.99 9.66 1.98 10 3 C6.71023192 4.09658936 5.28696233 3.79953138 2 3 C2 2.34 2 1.68 2 1 C1.34 0.67 0.68 0.34 0 0 Z " fill="#FFECFE" transform="translate(148,239)"/>
<path d="M0 0 C1.98 0 3.96 0 6 0 C5.01 0.66 4.02 1.32 3 2 C2.67 2.99 2.34 3.98 2 5 C5.3 5.33 8.6 5.66 12 6 C12 6.33 12 6.66 12 7 C8.7 7 5.4 7 2 7 C0 3 0 3 0 0 Z " fill="#FFECFE" transform="translate(133,203)"/>
<path d="M0 0 C0.99 0.33 1.98 0.66 3 1 C2.67 2.65 2.34 4.3 2 6 C0.68 5.67 -0.64 5.34 -2 5 C-2 3.68 -2 2.36 -2 1 C-1.34 0.67 -0.68 0.34 0 0 Z " fill="#FEE5FE" transform="translate(369,119)"/>
<path d="M0 0 C1.98 0.495 1.98 0.495 4 1 C4 2.32 4 3.64 4 5 C3.01 5.33 2.02 5.66 1 6 C0.34 5.67 -0.32 5.34 -1 5 C-0.67 3.35 -0.34 1.7 0 0 Z " fill="#FEEAFE" transform="translate(102,252)"/>
<path d="M0 0 C1.32 0.33 2.64 0.66 4 1 C3.67 2.32 3.34 3.64 3 5 C1.35 4.67 -0.3 4.34 -2 4 C-1.34 2.68 -0.68 1.36 0 0 Z " fill="#FDEAFD" transform="translate(393,137)"/>
<path d="M0 0 C1.32 0.66 2.64 1.32 4 2 C3.67 3.32 3.34 4.64 3 6 C1.68 5.67 0.36 5.34 -1 5 C-0.67 3.35 -0.34 1.7 0 0 Z " fill="#FEECFE" transform="translate(389,248)"/>
<path d="M0 0 C0.99 0.66 1.98 1.32 3 2 C3 3.32 3 4.64 3 6 C1.35 5.67 -0.3 5.34 -2 5 C-1.125 1.125 -1.125 1.125 0 0 Z " fill="#FEEAFF" transform="translate(100,244)"/>
<path d="M0 0 C1.65 0.33 3.3 0.66 5 1 C4.34 2.32 3.68 3.64 3 5 C1.68 4.67 0.36 4.34 -1 4 C-0.67 2.68 -0.34 1.36 0 0 Z " fill="#FEE9FE" transform="translate(403,173)"/>
<path d="M0 0 C2.0625 0.4375 2.0625 0.4375 4 1 C4 1.99 4 2.98 4 4 C2.68 4.33 1.36 4.66 0 5 C-0.5625 3.0625 -0.5625 3.0625 -1 1 C-0.67 0.67 -0.34 0.34 0 0 Z " fill="#FEE7FE" transform="translate(279,345)"/>
<path d="M0 0 C1.32 0 2.64 0 4 0 C3.67 1.65 3.34 3.3 3 5 C1.68 4.67 0.36 4.34 -1 4 C-0.67 2.68 -0.34 1.36 0 0 Z " fill="#FEEDFE" transform="translate(348,257)"/>
<path d="M0 0 C1.9375 0.375 1.9375 0.375 4 1 C4.33 1.66 4.66 2.32 5 3 C4.67 3.66 4.34 4.32 4 5 C2.35 4.67 0.7 4.34 -1 4 C-0.67 2.68 -0.34 1.36 0 0 Z " fill="#FEEEFF" transform="translate(93,250)"/>
<path d="M0 0 C1.32 0 2.64 0 4 0 C4 1.65 4 3.3 4 5 C2.68 5 1.36 5 0 5 C-0.5625 3.0625 -0.5625 3.0625 -1 1 C-0.67 0.67 -0.34 0.34 0 0 Z " fill="#FDE8FD" transform="translate(224,51)"/>
<path d="M0 0 C1.32 0.66 2.64 1.32 4 2 C3.67 2.99 3.34 3.98 3 5 C1.35 4.67 -0.3 4.34 -2 4 C-1.34 2.68 -0.68 1.36 0 0 Z " fill="#FDF1FF" transform="translate(131,270)"/>
<path d="M0 0 C1.98 0.495 1.98 0.495 4 1 C3.67 2.32 3.34 3.64 3 5 C1.68 4.67 0.36 4.34 -1 4 C-0.67 2.68 -0.34 1.36 0 0 Z " fill="#FEE8FF" transform="translate(401,247)"/>
<path d="M0 0 C0.99 0.66 1.98 1.32 3 2 C2.67 3.32 2.34 4.64 2 6 C1.01 6 0.02 6 -1 6 C-1.625 4.125 -1.625 4.125 -2 2 C-1.34 1.34 -0.68 0.68 0 0 Z " fill="#FEE8FE" transform="translate(170,128)"/>
<path d="M0 0 C1.32 0 2.64 0 4 0 C4.33 0.99 4.66 1.98 5 3 C4.67 3.66 4.34 4.32 4 5 C2.68 4.67 1.36 4.34 0 4 C0 2.68 0 1.36 0 0 Z " fill="#FEF0FE" transform="translate(262,345)"/>
<path d="M0 0 C0.99 0.66 1.98 1.32 3 2 C2.67 4.31 2.34 6.62 2 9 C0.68 8.67 -0.64 8.34 -2 8 C-1.01 7.67 -0.02 7.34 1 7 C0.67 4.69 0.34 2.38 0 0 Z " fill="#FFEAFE" transform="translate(384,283)"/>
<path d="M0 0 C1.32 0 2.64 0 4 0 C4 1.65 4 3.3 4 5 C2.68 5 1.36 5 0 5 C0 3.35 0 1.7 0 0 Z " fill="#FEEEFE" transform="translate(402,157)"/>
<path d="M0 0 C1.32 0.66 2.64 1.32 4 2 C3.34 3.32 2.68 4.64 2 6 C1.01 5.34 0.02 4.68 -1 4 C-0.67 2.68 -0.34 1.36 0 0 Z " fill="#FFEFFE" transform="translate(275,37)"/>
<path d="M0 0 C0.99 0.33 1.98 0.66 3 1 C2.67 2.32 2.34 3.64 2 5 C0.68 4.67 -0.64 4.34 -2 4 C-2 3.01 -2 2.02 -2 1 C-1.34 0.67 -0.68 0.34 0 0 Z " fill="#FEEFFE" transform="translate(182,34)"/>
<path d="M0 0 C1.32 0.66 2.64 1.32 4 2 C3.67 2.99 3.34 3.98 3 5 C1.68 5 0.36 5 -1 5 C-0.67 3.35 -0.34 1.7 0 0 Z " fill="#FFF0FF" transform="translate(309,230)"/>
<path d="M0 0 C0.99 0.66 1.98 1.32 3 2 C2.67 2.99 2.34 3.98 2 5 C0.68 4.67 -0.64 4.34 -2 4 C-2 3.01 -2 2.02 -2 1 C-1.34 0.67 -0.68 0.34 0 0 Z " fill="#FEE7FF" transform="translate(225,352)"/>
<path d="M0 0 C1.32 0 2.64 0 4 0 C3.67 1.65 3.34 3.3 3 5 C2.01 4.67 1.02 4.34 0 4 C0 2.68 0 1.36 0 0 Z " fill="#FEEEFE" transform="translate(150,133)"/>
<path d="M0 0 C2.475 0.495 2.475 0.495 5 1 C4.67 1.99 4.34 2.98 4 4 C2.68 4 1.36 4 0 4 C0 2.68 0 1.36 0 0 Z " fill="#FEECFE" transform="translate(229,40)"/>
<path d="M0 0 C0.99 0.33 1.98 0.66 3 1 C2.67 2.32 2.34 3.64 2 5 C0.68 4.34 -0.64 3.68 -2 3 C-2 2.34 -2 1.68 -2 1 C-1.34 0.67 -0.68 0.34 0 0 Z " fill="#FFE8FE" transform="translate(223,39)"/>
<path d="M0 0 C0.99 0 1.98 0 3 0 C2.67 1.32 2.34 2.64 2 4 C1.01 4 0.02 4 -1 4 C-0.67 2.68 -0.34 1.36 0 0 Z " fill="#FFEDFF" transform="translate(318,356)"/>
</svg>
