<?xml version="1.0" encoding="UTF-8"?>
<svg version="1.1" xmlns="http://www.w3.org/2000/svg" width="507" height="430">
<path d="M0 0 C0.733396 -0.01393799 1.46679199 -0.02787598 2.22241211 -0.04223633 C6.79847313 -0.00198079 9.51241275 0.78157211 13.25 3.375 C15.24427359 3.18946109 15.24427359 3.18946109 17.25 2.375 C19.24788438 2.02921232 21.24759451 1.69356451 23.25 1.375 C23.25 2.695 23.25 4.015 23.25 5.375 C22.46625 5.74625 21.6825 6.1175 20.875 6.5 C18.08263359 8.07727704 18.08263359 8.07727704 17.6484375 10.57421875 C17.37984312 12.33588186 17.11162193 14.0976019 16.84375 15.859375 C15.92471468 19.75318254 14.08679635 21.60912356 11.25 24.375 C8.23675805 25.88162097 5.56713623 25.55270373 2.25 25.375 C0.25 23.375 0.25 23.375 -0.3125 20.75 C0.43491952 16.26548291 2.60352034 14.2987768 5.71875 11.109375 C7.47061499 9.51072113 7.47061499 9.51072113 7.25 7.375 C-0.96490475 4.63669842 -8.91330454 7.08173922 -16.46875 10.6640625 C-22.12585544 13.77547049 -25.50260317 16.24573592 -27.75 22.375 C-29.88005951 31.54657855 -24.9445034 40.41851409 -21.39257812 48.65429688 C-20.75 50.375 -20.75 50.375 -20.75 52.375 C-19.63625 52.065625 -18.5225 51.75625 -17.375 51.4375 C-14.06116322 50.56791162 -11.04293205 50.2910737 -7.625 50.1875 C-4.57829591 49.95241481 -3.1622828 49.71366087 -0.78125 47.7578125 C0.69571454 46.02307585 2.01948704 44.29079864 3.25 42.375 C4.57 42.705 5.89 43.035 7.25 43.375 C6.92 45.025 6.59 46.675 6.25 48.375 C7.49716797 48.43107422 7.49716797 48.43107422 8.76953125 48.48828125 C9.85621094 48.55402344 10.94289063 48.61976563 12.0625 48.6875 C13.14144531 48.74550781 14.22039062 48.80351562 15.33203125 48.86328125 C18.25 49.375 18.25 49.375 20.125 50.66796875 C21.50235482 52.75791339 21.56435273 53.89432442 21.4375 56.375 C21.39689453 57.3959375 21.39689453 57.3959375 21.35546875 58.4375 C21.32066406 59.076875 21.28585937 59.71625 21.25 60.375 C21.25 61.365 21.25 62.355 21.25 63.375 C25.51988482 59.39393737 28.76073035 55.05044146 32.0625 50.25 C33.12193506 48.73144927 34.18183158 47.21322037 35.2421875 45.6953125 C35.75491211 44.95829102 36.26763672 44.22126953 36.79589844 43.46191406 C48.90899544 26.07730137 48.90899544 26.07730137 54.375 24.4375 C57.25 24.375 57.25 24.375 60.25 26.375 C60.88201124 30.48307307 60.64178707 32.69300029 58.5625 36.3125 C54.14157365 41.08244686 47.84143369 44.14948774 42.25 47.375 C43.4875 47.313125 44.725 47.25125 46 47.1875 C48.76081041 47.20218516 50.18942616 47.34774177 52.75 48.5 C54.25 50.375 54.25 50.375 54.875 52.9375 C54.06466299 57.39435353 52.02323566 60.44366775 49.5625 64.203125 C48.0775968 66.23734361 48.0775968 66.23734361 48.25 68.375 C52.84982591 65.32836206 56.52768871 62.27685717 59.8125 57.8125 C63.47181184 52.84688919 67.2795899 49.3651367 73.25 47.375 C74.91267874 47.23279721 76.5815173 47.15479433 78.25 47.125 C79.11625 47.09921875 79.9825 47.0734375 80.875 47.046875 C83.25 47.375 83.25 47.375 85.02734375 48.7109375 C86.25 50.375 86.25 50.375 86.8125 53.25 C86.18747396 56.72236691 85.19938297 58.17087237 82.37109375 60.2734375 C77.21693399 62.95018345 71.0442798 64.375 65.25 64.375 C65.25 65.695 65.25 67.015 65.25 68.375 C72.13195711 69.98567081 77.33860675 68.73753862 83.390625 65.08203125 C85.45612037 63.61174543 87.35349475 62.05680654 89.25 60.375 C89.85457031 59.86066406 90.45914063 59.34632813 91.08203125 58.81640625 C93.80997693 56.15234689 95.14013156 54.41875021 95.546875 50.5546875 C95.51642962 48.61125745 95.42593229 46.66751518 95.265625 44.73046875 C95.25789063 43.56451172 95.25789063 43.56451172 95.25 42.375 C97.25 40.375 97.25 40.375 100.375 40.25 C101.32375 40.29125 102.2725 40.3325 103.25 40.375 C105.20402299 46.10680077 105.20402299 46.10680077 105.625 48.5625 C106.12434918 50.57658245 106.12434918 50.57658245 108.25 51.8125 C110.25 53.375 110.25 53.375 111.05859375 55.609375 C111.31252838 59.27847131 110.16686578 61.04643143 108.3125 64.1875 C107.74660156 65.16332031 107.18070313 66.13914062 106.59765625 67.14453125 C106.15292969 67.88058594 105.70820313 68.61664063 105.25 69.375 C112.67607067 66.2482334 116.7661625 62.08463217 121.515625 55.6640625 C124.7622875 51.40011242 128.16056715 48.93352875 133.25 47.375 C141.78070658 46.24854171 141.78070658 46.24854171 145.0078125 48.72265625 C146.25 50.375 146.25 50.375 146.8125 53.25 C146.18747396 56.72236691 145.19938297 58.17087237 142.37109375 60.2734375 C137.21693399 62.95018345 131.0442798 64.375 125.25 64.375 C125.25 65.695 125.25 67.015 125.25 68.375 C131.31525136 69.79452691 135.63863781 69.10337708 141.25 66.375 C143.94619705 64.5749265 146.53104029 62.69837806 149.0859375 60.703125 C149.80007813 60.26484375 150.51421875 59.8265625 151.25 59.375 C152.24 59.705 153.23 60.035 154.25 60.375 C153.50416395 64.64744354 151.68989433 66.27196471 148.390625 68.9140625 C141.05342753 73.92156588 133.06997501 75.75974855 124.25 74.375 C121.45290199 72.93843607 119.47175894 71.59675894 117.25 69.375 C116.78851563 69.7359375 116.32703125 70.096875 115.8515625 70.46875 C110.93873377 73.96404317 107.35993615 74.90420885 101.3515625 74.74609375 C99.25 74.375 99.25 74.375 97.25 72.375 C96.75239471 69.3182818 96.73963491 67.24151914 98.3359375 64.53125 C99.21650871 63.33000834 100.12329101 62.14741712 101.05859375 60.98828125 C102.45739801 59.26813513 102.45739801 59.26813513 103.25 56.375 C99.52275902 58.42107285 96.87406285 60.63110958 94 63.75 C87.09138849 70.83161513 80.21134276 74.47520667 70.3125 74.625 C69.29285156 74.65078125 68.27320313 74.6765625 67.22265625 74.703125 C62.87624414 74.22336335 60.2969006 72.4219006 57.25 69.375 C56.445625 70.035 55.64125 70.695 54.8125 71.375 C50.91032154 74.00128718 46.82181498 74.16135218 42.25 73.375 C41.59 72.715 40.93 72.055 40.25 71.375 C40.35866692 65.94165418 42.06854353 62.58748583 45.09375 58.26953125 C46.29540453 56.30060407 46.81059963 54.62692689 47.25 52.375 C36.94154692 56.02591047 31.62916877 62.69284728 26.20703125 71.99609375 C24.25 74.375 24.25 74.375 21.51171875 74.72265625 C20.76535156 74.60792969 20.01898438 74.49320312 19.25 74.375 C18.125 70.625 18.125 70.625 19.25 68.375 C18.56292969 68.79652344 17.87585938 69.21804687 17.16796875 69.65234375 C16.26691406 70.20019531 15.36585938 70.74804688 14.4375 71.3125 C13.54417969 71.85777344 12.65085937 72.40304688 11.73046875 72.96484375 C8.41964553 74.84705979 5.69761142 75.5641112 1.9375 75.6875 C0.82955078 75.74357422 0.82955078 75.74357422 -0.30078125 75.80078125 C-3.7415248 75.20262966 -5.96575026 73.41196193 -8.75 71.375 C-9.81691385 72.76392005 -10.88378156 74.15287556 -11.95043945 75.54199219 C-12.86254716 76.72761776 -13.77646487 77.91185296 -14.69213867 79.09472656 C-16.7650836 81.77491253 -18.81179278 84.46049573 -20.796875 87.20703125 C-21.37953125 88.00496094 -21.9621875 88.80289063 -22.5625 89.625 C-23.06394531 90.33140625 -23.56539063 91.0378125 -24.08203125 91.765625 C-26.20049571 93.80967033 -27.87171004 94.04270167 -30.75 94.375 C-30.49328339 87.88220906 -26.82033062 83.46313333 -23.25 78.3125 C-22.62013184 77.38671143 -21.99026367 76.46092285 -21.34130859 75.50708008 C-19.48816811 72.78890403 -17.62112885 70.08081413 -15.75 67.375 C-14.77314188 65.95332808 -13.79654667 64.53147545 -12.8203125 63.109375 C-10.81009011 60.18860833 -8.78585619 57.27798012 -6.75 54.375 C-10.71568959 54.83957145 -14.19263573 55.51714804 -17.75 57.375 C-19.17575286 60.13794965 -19.67243837 62.60514862 -20.23046875 65.65625 C-21.50587664 72.33056495 -26.56872429 76.45713881 -31.75 80.375 C-35.69149075 82.34574537 -40.45246724 81.81935346 -44.75 81.375 C-47.4375 79.8125 -47.4375 79.8125 -48.75 77.375 C-49.51221285 73.77181196 -49.461315 71.54991967 -47.52734375 68.35546875 C-42.13166235 61.68421255 -35.2164883 56.92340434 -26.75 55.375 C-26.98710693 54.79121582 -27.22421387 54.20743164 -27.46850586 53.60595703 C-28.55494177 50.90916807 -29.62124378 48.20482776 -30.6875 45.5 C-31.06068359 44.5821875 -31.43386719 43.664375 -31.81835938 42.71875 C-34.65419545 35.46309735 -37.04897199 27.96783557 -34.75 20.25 C-31.31971155 12.56677475 -25.17419803 7.08008181 -17.75 3.375 C-17.11964844 3.0553125 -16.48929687 2.735625 -15.83984375 2.40625 C-10.66336025 0.25187537 -5.53278282 0.06875577 0 0 Z M8.25 14.375 C6.61323743 16.3350281 6.61323743 16.3350281 5.25 18.375 C5.58 19.035 5.91 19.695 6.25 20.375 C7.62562854 19.08534824 8.95766393 17.74810707 10.25 16.375 C10.25 15.715 10.25 15.055 10.25 14.375 C9.59 14.375 8.93 14.375 8.25 14.375 Z M1.25 57.375 C-0.07 59.025 -1.39 60.675 -2.75 62.375 C4.18 62.87 4.18 62.87 11.25 63.375 C14.4736068 58.04582039 14.4736068 58.04582039 14.25 54.375 C9.21871564 52.48826836 5.40525914 54.41757898 1.25 57.375 Z M68.25 57.375 C68.25 58.035 68.25 58.695 68.25 59.375 C69.6891134 59.09140113 71.12625518 58.79778601 72.5625 58.5 C73.36300781 58.33757812 74.16351563 58.17515625 74.98828125 58.0078125 C77.50301118 57.43021001 77.50301118 57.43021001 80.25 55.375 C80.25 54.715 80.25 54.055 80.25 53.375 C75.17387682 52.75971234 72.42017994 54.75841651 68.25 57.375 Z M128.25 57.375 C128.25 58.035 128.25 58.695 128.25 59.375 C129.6891134 59.09140113 131.12625518 58.79778601 132.5625 58.5 C133.36300781 58.33757812 134.16351563 58.17515625 134.98828125 58.0078125 C137.50301118 57.43021001 137.50301118 57.43021001 140.25 55.375 C140.25 54.715 140.25 54.055 140.25 53.375 C135.17387682 52.75971234 132.42017994 54.75841651 128.25 57.375 Z M-39.6875 67.9375 C-41.47553518 70.05063249 -42.71137926 71.82565819 -43.75 74.375 C-41.91182407 76.67322615 -41.91182407 76.67322615 -39.125 76.4375 C-33.47797264 74.65973213 -29.08547951 70.82337911 -26.25 65.625 C-25.64153477 63.27105416 -25.64153477 63.27105416 -25.75 60.375 C-30.81257297 60.375 -36.0435924 64.7587721 -39.6875 67.9375 Z M-2.75 67.375 C-2.42 68.035 -2.09 68.695 -1.75 69.375 C2.50731568 69.78249675 2.50731568 69.78249675 6.125 67.875 C6.49625 67.38 6.8675 66.885 7.25 66.375 C3.17224809 65.4482382 0.82818963 65.03541447 -2.75 67.375 Z " fill="#340317" transform="translate(291.75,150.625)"/>
<path d="M0 0 C1.69672386 1.29486821 3.3603279 2.63360658 5 4 C7.94604038 5.19137673 10.94731496 6.12210365 14 7 C14.48352719 26.12618657 14.48352719 26.12618657 9.625 32.375 C7.40069694 34.59930306 5.90711759 35.92328978 3 37 C3 38.65 3 40.3 3 42 C3.61520508 41.67725098 4.23041016 41.35450195 4.86425781 41.02197266 C7.65929848 39.55592058 10.45464588 38.09045432 13.25 36.625 C14.21808594 36.11710937 15.18617188 35.60921875 16.18359375 35.0859375 C17.58544922 34.35117188 17.58544922 34.35117188 19.015625 33.6015625 C19.87446289 33.15119629 20.73330078 32.70083008 21.61816406 32.23681641 C23.7357756 31.13720385 25.86241112 30.06014023 28 29 C27.01 28.34 26.02 27.68 25 27 C24.3125 23.875 24.3125 23.875 24 21 C27 20 27 20 31 20 C30.01 18.515 30.01 18.515 29 17 C28.5483871 10.67741935 28.5483871 10.67741935 31 7 C34 7 34 7 36.1875 8.875 C38 11 38 11 38 13 C38.99 12.67 39.98 12.34 41 12 C48.05061082 11.52530541 48.05061082 11.52530541 51 13 C49.92598892 15.91517292 49.22189824 17.77810176 47 20 C44.31160615 20.26991906 41.70858064 20.08737357 39 20 C37.42726432 22.8424854 37.42726432 22.8424854 37 26 C38.24136719 25.6390625 39.48273438 25.278125 40.76171875 24.90625 C42.4035476 24.43715604 44.04548019 23.96842508 45.6875 23.5 C46.50412109 23.26152344 47.32074219 23.02304688 48.16210938 22.77734375 C52.19171125 21.63535132 55.76504847 20.65499377 60 21 C60 21.99 60 22.98 60 24 C58.77925781 24.30292969 57.55851562 24.60585937 56.30078125 24.91796875 C43.60295145 28.12637243 31.62870106 31.84362885 20 38 C20.79664063 37.95359375 21.59328125 37.9071875 22.4140625 37.859375 C27.21192241 37.69594425 31.04767431 37.6324357 35.5625 39.375 C39.02492368 43.10376396 39.93460767 47.1029335 41 52 C34.93707386 52.41813284 31.80292012 52.13274522 27 48 C25.96642853 46.35394174 24.95939668 44.69036558 24 43 C18.86660218 41.28886739 14.37322597 41.04525392 9.28125 43.09375 C2.98942081 46.41640137 -2.52964567 50.48101164 -8 55 C-8.95648438 55.76054688 -9.91296875 56.52109375 -10.8984375 57.3046875 C-17.01589713 62.10036287 -17.01589713 62.10036287 -22 68 C-19.69 68.66 -17.38 69.32 -15 70 C-14.896875 69.236875 -14.79375 68.47375 -14.6875 67.6875 C-13.92498691 64.70676703 -13.37778754 63.86826164 -11 62 C-8.73828125 61.48828125 -8.73828125 61.48828125 -6.3125 61.3125 C-5.10013672 61.21388672 -5.10013672 61.21388672 -3.86328125 61.11328125 C-3.24839844 61.07589844 -2.63351563 61.03851563 -2 61 C-0.7922442 64.62326739 -1.45688872 65.64146369 -3 69 C-0.72893254 68.35498084 1.54185907 67.70901747 3.8125 67.0625 C5.70935547 66.52302734 5.70935547 66.52302734 7.64453125 65.97265625 C9.77501982 65.35508739 11.89563892 64.70145369 14 64 C15.69393215 65.64553409 17.35732623 67.30419392 19 69 C19.48855469 69.50402344 19.97710937 70.00804688 20.48046875 70.52734375 C21.875 72.0625 21.875 72.0625 24 75 C23.8125 77.375 23.8125 77.375 23 79 C18.44975424 79.95794648 15.33038127 80.58835856 11.125 78.375 C7.96907446 75.97649659 6.94437823 74.77751292 6 71 C5.01 71.495 5.01 71.495 4 72 C4.33 72.33 4.66 72.66 5 73 C5.07179964 74.51928038 5.08392007 76.04167482 5.0625 77.5625 C5.05347656 78.38878906 5.04445312 79.21507813 5.03515625 80.06640625 C5.02355469 80.70449219 5.01195312 81.34257813 5 82 C1.42236811 82.32523926 -0.39542581 82.42956587 -3.375 80.3125 C-5.29775454 77.57627239 -5.14046327 76.25766736 -5 73 C-5.75023437 73.01160156 -6.50046875 73.02320312 -7.2734375 73.03515625 C-8.29695313 73.04417969 -9.32046875 73.05320312 -10.375 73.0625 C-11.47585937 73.083125 -12.57671875 73.10375 -13.7109375 73.125 C-17 73 -17 73 -19.6015625 72.25 C-22.54615084 71.40594862 -24.02562462 71.15275368 -27 72 C-34.62487584 78.41520763 -40.35039047 88.33296469 -45 97 C-43.68 97 -42.36 97 -41 97 C-40.87625 95.6078125 -40.87625 95.6078125 -40.75 94.1875 C-40 91 -40 91 -38.1875 89.125 C-36 88 -36 88 -32 88 C-30.875 93.625 -30.875 93.625 -32 97 C-31.071875 96.525625 -30.14375 96.05125 -29.1875 95.5625 C-26 94 -26 94 -23 93 C-23.0825 92.0925 -23.165 91.185 -23.25 90.25 C-23 87 -23 87 -21.3125 84.6875 C-18.80401508 82.85698398 -17.05917167 82.33990796 -14 82 C-12.3557649 86.93270529 -13.81384408 89.54024193 -16 94 C-15.401875 94.268125 -14.80375 94.53625 -14.1875 94.8125 C-12.02775192 95.98493467 -10.64209744 97.19369282 -9 99 C-9.495 100.485 -9.495 100.485 -10 102 C-11.41433206 102.2236337 -12.83167618 102.42826476 -14.25 102.625 C-15.03890625 102.74101562 -15.8278125 102.85703125 -16.640625 102.9765625 C-19.32152459 103.00319395 -20.72694089 102.36592084 -23 101 C-23.33 102.98 -23.66 104.96 -24 107 C-27.375 106.6875 -27.375 106.6875 -31 106 C-33 103 -33 103 -33 100 C-37.62 100 -42.24 100 -47 100 C-47.66 101.32 -48.32 102.64 -49 104 C-49.66 104 -50.32 104 -51 104 C-51 105.65 -51 107.3 -51 109 C-52.65 108.67 -54.3 108.34 -56 108 C-55.34 106.68 -54.68 105.36 -54 104 C-53.34 104 -52.68 104 -52 104 C-51.85691406 102.68708984 -51.85691406 102.68708984 -51.7109375 101.34765625 C-50.93410391 97.68970907 -49.70534059 95.52289965 -47.625 92.4375 C-47.01914063 91.52871094 -46.41328125 90.61992187 -45.7890625 89.68359375 C-44.90347656 88.35521484 -44.90347656 88.35521484 -44 87 C-42.99027459 85.3392073 -41.98705738 83.67436421 -41 82 C-41.66 81.34 -42.32 80.68 -43 80 C-43.125 76.875 -43.125 76.875 -43 74 C-41.02 73.01 -41.02 73.01 -39 72 C-37.68 72.99 -36.36 73.98 -35 75 C-34.55269531 74.48050781 -34.10539062 73.96101563 -33.64453125 73.42578125 C-26.56506239 65.25948561 -26.56506239 65.25948561 -23 62 C-22.34 62 -21.68 62 -21 62 C-20.7215625 61.278125 -20.443125 60.55625 -20.15625 59.8125 C-18.69974137 56.26964116 -16.96479718 52.90692134 -15.21875 49.5 C-14.01882619 47.03861782 -12.9851014 44.55396658 -12 42 C-12.7425 42.0825 -13.485 42.165 -14.25 42.25 C-17 42 -17 42 -19.3125 40.125 C-21 38 -21 38 -21 36 C-20.34 35.67 -19.68 35.34 -19 35 C-19.639375 34.236875 -20.27875 33.47375 -20.9375 32.6875 C-24.84537785 27.59541674 -24.52026559 22.18248944 -24 16 C-23.328125 13.93359375 -23.328125 13.93359375 -22.5 12.1875 C-20.76492455 9.08759887 -20.76492455 9.08759887 -21 5.6875 C-21 4.800625 -21 3.91375 -21 3 C-17.79521464 0.86347643 -17.0852708 0.78726232 -13.4375 0.9375 C-8.67966405 1.11718839 -4.89478589 -0.41481236 0 0 Z M-5 3 C-5.66 4.32 -6.32 5.64 -7 7 C-2.87026372 6.43260132 -2.87026372 6.43260132 1 5 C-1.81509993 2.7226499 -1.81509993 2.7226499 -5 3 Z M-17 5 C-17.12375 6.051875 -17.2475 7.10375 -17.375 8.1875 C-17.91140782 11.45958771 -18.63880035 14.00536076 -20 17 C-17.50447516 16.21869929 -17.50447516 16.21869929 -15 15 C-14.67 14.01 -14.34 13.02 -14 12 C-11.9375 10.3125 -11.9375 10.3125 -10 9 C-10.33 7.68 -10.66 6.36 -11 5 C-12.98 5 -14.96 5 -17 5 Z M3 7 C3.33 7.99 3.66 8.98 4 10 C4.99 9.67 5.98 9.34 7 9 C5.68 8.34 4.36 7.68 3 7 Z M-8 11 C-8.66 11.66 -9.32 12.32 -10 13 C-8.68 12.67 -7.36 12.34 -6 12 C-6.66 11.67 -7.32 11.34 -8 11 Z M6.1875 12.375 C1.04309525 14.64585649 -4.47078514 15.2282705 -10 16 C-8.13678996 18.29102513 -8.13678996 18.29102513 -5.1875 18.25 C-2.03686185 18.00289113 0.15915182 17.33686973 3 16 C2.835 17.134375 2.67 18.26875 2.5 19.4375 C1.92423916 23.97060294 1.90494734 28.43747238 2 33 C5.83499344 31.49339543 7.84179217 29.49992553 10 26 C10.28614917 23.23866047 10.38589883 20.91854388 10.25 18.1875 C10.22292969 17.14819336 10.22292969 17.14819336 10.1953125 16.08789062 C10.14851064 14.39132336 10.07677624 12.69547524 10 11 C8.62796074 10.92679831 8.62796074 10.92679831 6.1875 12.375 Z M32 12 C32.27034634 14.43717258 32.27034634 14.43717258 33 17 C34.485 17.99 34.485 17.99 36 19 C35.67 17.02 35.34 15.04 35 13 C34.01 12.67 33.02 12.34 32 12 Z M43 15 C43 15.66 43 16.32 43 17 C43.99 16.67 44.98 16.34 46 16 C45.01 15.67 44.02 15.34 43 15 Z M-20 23 C-20.33 23.99 -20.66 24.98 -21 26 C-18.3993407 30.78521311 -15.47936305 34.01375796 -11 37 C-6.24514983 37.57386123 -4.33742107 37.16871054 0 35 C0 30.05 0 25.1 0 20 C-10.49813361 19.31123255 -10.49813361 19.31123255 -20 23 Z M28 24 C28.33 24.66 28.66 25.32 29 26 C29.66 26 30.32 26 31 26 C31 25.34 31 24.68 31 24 C30.01 24 29.02 24 28 24 Z M31 42 C31 42.66 31 43.32 31 44 C30.01 44.495 30.01 44.495 29 45 C31.67247634 47.34287418 31.67247634 47.34287418 35 48 C34.67 46.35 34.34 44.7 34 43 C33.01 42.67 32.02 42.34 31 42 Z M-8 43 C-10.19797403 45.19797403 -10.45897517 46.17546145 -11.125 49.125 C-11.41375 50.40375 -11.7025 51.6825 -12 53 C-10.22611914 51.90073597 -8.45600316 50.79539498 -6.6875 49.6875 C-5.20830078 48.76517578 -5.20830078 48.76517578 -3.69921875 47.82421875 C-1.49827965 46.33675339 0.23328988 44.9596614 2 43 C-1.74023976 41.75325341 -4.16600177 42.23320035 -8 43 Z M-11 66 C-11.80528889 68.05000871 -11.80528889 68.05000871 -12 70 C-10.08533633 69.87822312 -10.08533633 69.87822312 -8 69 C-6.22851628 66.52066803 -6.22851628 66.52066803 -5 64 C-7.56128588 64 -8.85331506 64.61504198 -11 66 Z M9 69 C9.32721168 72.05397571 10.03116777 73.03116777 12.25 75.25 C15.20989673 77.13357065 16.57508802 77.39141851 20 77 C19.01508224 73.35580428 18.34173648 72.21085868 15.0625 70.1875 C12.08126448 68.81923607 12.08126448 68.81923607 9 69 Z M-2 72 C-1.72965366 74.43717258 -1.72965366 74.43717258 -1 77 C0.485 77.99 0.485 77.99 2 79 C1.67 77.02 1.34 75.04 1 73 C0.01 72.67 -0.98 72.34 -2 72 Z M-18 86 C-18 89 -18 89 -18 89 Z M-36 92 C-36.33 93.65 -36.66 95.3 -37 97 C-36.34 96.01 -35.68 95.02 -35 94 C-35.33 93.34 -35.66 92.68 -36 92 Z M-22 96 C-20.27144074 98.14567913 -20.27144074 98.14567913 -18 100 C-15.78141747 99.86358623 -15.78141747 99.86358623 -14 99 C-17.06117568 96.37613513 -17.73173127 96 -22 96 Z M-30 100 C-29.67 100.99 -29.34 101.98 -29 103 C-28.34 102.67 -27.68 102.34 -27 102 C-27.99 101.34 -28.98 100.68 -30 100 Z " fill="#431727" transform="translate(153,41)"/>
<path d="M0 0 C2.0625 0.4375 2.0625 0.4375 4 1 C4 2.32 4 3.64 4 5 C3.01 5 2.02 5 1 5 C0.94199219 5.66 0.88398438 6.32 0.82421875 7 C-0.54214773 11.97331495 -3.73426696 15.92449985 -6.66992188 20.1171875 C-7.95409495 22.05349399 -9.10996667 23.85292411 -10 26 C-9.41908767 28.8125983 -9.41908767 28.8125983 -8 31 C-8.375 33.8125 -8.375 33.8125 -9 36 C-10.75 36.6875 -10.75 36.6875 -13 37 C-15.25 35.5625 -15.25 35.5625 -17 34 C-17 34.66 -17 35.32 -17 36 C-19.40007047 38.55864655 -21.9312557 40.93608928 -24.5 43.32421875 C-31.90746069 50.32658393 -36.16396513 57.20278863 -39 67 C-38.236875 67.103125 -37.47375 67.20625 -36.6875 67.3125 C-33.73355011 68.0681616 -32.66273336 68.46214383 -31 71 C-30.8125 74.1875 -30.8125 74.1875 -31 77 C-30.34 77 -29.68 77 -29 77 C-25.67546259 82.2638509 -25.22545298 86.94264514 -26 93 C-26.96761608 95.01586684 -27.96567096 97.01753602 -29 99 C-29.12504126 101.08847075 -29.12504126 101.08847075 -29 103.25 C-29 104.4875 -29 105.725 -29 107 C-32.83632485 109.5575499 -34.41123236 108.85656825 -38.74609375 108.09375 C-41.42306327 107.98240291 -42.67329668 108.75303991 -45 110 C-49.43701169 109.72268677 -51.56444077 108.65028855 -55 106 C-57.95897671 104.56939909 -60.97113198 103.27497222 -64 102 C-64.3038083 83.16388532 -64.3038083 83.16388532 -59 77 C-57.06336184 75.21488365 -55.08848851 73.61383203 -53 72 C-53.33 70.35 -53.66 68.7 -54 67 C-54.76292358 67.43082886 -54.76292358 67.43082886 -55.54125977 67.87036133 C-57.87961752 69.18809376 -60.22102082 70.50032266 -62.5625 71.8125 C-63.36236328 72.26431641 -64.16222656 72.71613281 -64.98632812 73.18164062 C-69.5711986 75.74542534 -74.12875478 78.03188616 -79 80 C-78.505 80.53625 -78.01 81.0725 -77.5 81.625 C-75.62510456 84.59358445 -75.76498575 86.55312427 -76 90 C-77.98 90 -79.96 90 -82 90 C-81.649375 90.515625 -81.29875 91.03125 -80.9375 91.5625 C-79.6384359 94.94006667 -80.32782319 97.50468057 -81 101 C-83.475 101.495 -83.475 101.495 -86 102 C-86 101.34 -86 100.68 -86 100 C-87.485 99.505 -87.485 99.505 -89 99 C-89.66 98.34 -90.32 97.68 -91 97 C-93.66949409 96.75684344 -93.66949409 96.75684344 -96.625 96.875 C-98.12933594 96.90207031 -98.12933594 96.90207031 -99.6640625 96.9296875 C-100.43492187 96.95289063 -101.20578125 96.97609375 -102 97 C-101.2734375 92.2109375 -101.2734375 92.2109375 -98.8125 90.3125 C-96 89 -96 89 -92.8125 88.0625 C-89.87712837 87.29548304 -89.87712837 87.29548304 -88.82421875 84.93359375 C-88.55222656 84.29550781 -88.28023438 83.65742188 -88 83 C-89.03447266 83.39832031 -89.03447266 83.39832031 -90.08984375 83.8046875 C-97.31423238 86.52002698 -104.22453604 89 -112 89 C-112 88.01 -112 87.02 -112 86 C-111.4423999 85.84966309 -110.8847998 85.69932617 -110.31030273 85.54443359 C-97.17166707 81.97331598 -84.14544072 78.29543626 -72 72 C-74.7977697 71.28057351 -76.56390408 70.87376171 -79.375 71.6875 C-82.66827806 72.07955691 -84.64110864 71.1173436 -87.41796875 69.375 C-90.20351567 66.95398144 -90.93313282 64.51438601 -92 61 C-92 59.68 -92 58.36 -92 57 C-87.49023341 57.19650399 -83.95266558 57.44427841 -80 59.75 C-77.75506771 62.27554883 -77.51859745 63.73715772 -77 67 C-64.82620452 68.57419769 -57.66753396 65.77463405 -47.97851562 58.53662109 C-41.36061304 53.39680386 -34.82925175 48.0337869 -29 42 C-31.31 41.67 -33.62 41.34 -36 41 C-36.20625 41.763125 -36.4125 42.52625 -36.625 43.3125 C-38.46297567 46.90490699 -40.26807727 47.60967585 -44 49 C-46.875 49.1875 -46.875 49.1875 -49 49 C-49.99435406 45.90645403 -49.87840996 44.09720845 -49 41 C-52.82182302 41.92250901 -56.53374631 42.83860449 -60.25 44.125 C-63 45 -63 45 -67 45 C-67.33 44.01 -67.66 43.02 -68 42 C-69.65385233 40.65080468 -71.321702 39.31866272 -73 38 C-74.875 35.9375 -74.875 35.9375 -76 34 C-75.67 33.01 -75.34 32.02 -75 31 C-71.27063013 29.13531507 -66.95400887 30.07988473 -63 31 C-59.69539832 33.56275232 -58.31687199 35.04938402 -57 39 C-57 38.01 -57 37.02 -57 36 C-57 33.33333333 -57 30.66666667 -57 28 C-54.8125 27.25 -54.8125 27.25 -52 27 C-48.73405708 28.92987536 -47.27300544 30.07598158 -46.1875 33.75 C-46.125625 34.4925 -46.06375 35.235 -46 36 C-45.38253906 35.97679687 -44.76507813 35.95359375 -44.12890625 35.9296875 C-37.59429624 35.79044162 -30.955442 36.022279 -25 39 C-25 38.34 -25 37.68 -25 37 C-23.88343146 35.88343146 -22.76237363 34.7711496 -21.625 33.67578125 C-15.89175541 27.76337276 -11.18643269 21.06460517 -7 14 C-8.32 13.67 -9.64 13.34 -11 13 C-11.103125 13.94875 -11.20625 14.8975 -11.3125 15.875 C-12 19 -12 19 -15 21 C-17.6875 21.125 -17.6875 21.125 -20 21 C-20 18.36 -20 15.72 -20 13 C-23.7245298 14.09201355 -23.7245298 14.09201355 -27 16 C-27.83767042 18.04102438 -28.17973584 19.95506697 -28.5546875 22.125 C-29 24 -29 24 -30.8125 26 C-33.37640566 27.17207116 -35.21122775 27.23239769 -38 27 C-38.28571429 19.57142857 -38.28571429 19.57142857 -36 16 C-37.98 14.35 -39.96 12.7 -42 11 C-41.375 9.0625 -41.375 9.0625 -40 7 C-36.10978259 5.67378952 -34.43384224 5.81521534 -30.625 7.4375 C-29.75875 7.953125 -28.8925 8.46875 -28 9 C-28 7.02 -28 5.04 -28 3 C-27.01 2.67 -26.02 2.34 -25 2 C-22.23760649 3.41488448 -20.19636905 4.80363095 -18 7 C-18 7.99 -18 8.98 -18 10 C-13.38 10 -8.76 10 -4 10 C-3.525625 8.535625 -3.05125 7.07125 -2.5625 5.5625 C-1.125 1.125 -1.125 1.125 0 0 Z M-24 6 C-23.34 7.32 -22.68 8.64 -22 10 C-22 9.01 -22 8.02 -22 7 C-22.66 6.67 -23.32 6.34 -24 6 Z M-37 10 C-35.18777466 12.0624994 -35.18777466 12.0624994 -33 14 C-32.01 14 -31.02 14 -30 14 C-30.66 12.68 -31.32 11.36 -32 10 C-33.65 10 -35.3 10 -37 10 Z M-27 10 C-26 12 -26 12 -26 12 Z M-16 14 C-15 17 -15 17 -15 17 Z M-35 21 C-35 21.66 -35 22.32 -35 23 C-34.01 22.67 -33.02 22.34 -32 22 C-32.99 21.67 -33.98 21.34 -35 21 Z M-53 31 C-52.67 32.98 -52.34 34.96 -52 37 C-51.34 37 -50.68 37 -50 37 C-50.33 35.02 -50.66 33.04 -51 31 C-51.66 31 -52.32 31 -53 31 Z M-71 33 C-70.00344362 36.68725859 -69.3417689 37.79351462 -66 39.8125 C-63.22781069 41.12268282 -63.22781069 41.12268282 -61 41 C-61.32627286 37.98197607 -61.61081236 36.40308719 -63.75 34.1875 C-66.37152557 32.80391706 -68.07674878 32.75639573 -71 33 Z M-44.6875 41.5 C-45.120625 41.995 -45.55375 42.49 -46 43 C-45.67 43.99 -45.34 44.98 -45 46 C-42.9837767 45.28436734 -42.9837767 45.28436734 -41 44 C-40.19471111 41.94999129 -40.19471111 41.94999129 -40 40 C-43.00259517 39.66781808 -43.00259517 39.66781808 -44.6875 41.5 Z M-48.0625 61.9375 C-48.63033203 62.31068359 -49.19816406 62.68386719 -49.78320312 63.06835938 C-51.207866 64.01756453 -52.60638917 65.00576482 -54 66 C-54 66.33 -54 66.66 -54 67 C-48.06 66.505 -48.06 66.505 -42 66 C-41.67 63.36 -41.34 60.72 -41 58 C-43.40724225 58 -46.05497429 60.59532567 -48.0625 61.9375 Z M-87 61 C-86.67 62.65 -86.34 64.3 -86 66 C-85.01 66.33 -84.02 66.66 -83 67 C-82.34 66.67 -81.68 66.34 -81 66 C-81.71563266 63.9837767 -81.71563266 63.9837767 -83 62 C-85.05000871 61.19471111 -85.05000871 61.19471111 -87 61 Z M-50 75 C-49.814375 76.19625 -49.62875 77.3925 -49.4375 78.625 C-48.87050735 82.27895263 -49.29920243 85.376617 -50 89 C-47.41603321 89.08112454 -44.83462432 89.14054748 -42.25 89.1875 C-41.15558594 89.22520508 -41.15558594 89.22520508 -40.0390625 89.26367188 C-36.65513396 89.30981636 -34.42141443 89.25324128 -31.484375 87.48828125 C-30.99453125 86.99714844 -30.5046875 86.50601563 -30 86 C-30.26920035 82.14146168 -30.73289412 80.31904314 -33.25 77.3125 C-39.2905572 72.23294054 -42.996985 70.33132333 -50 75 Z M-58 80 C-60.44872936 83.61763501 -60.43300271 87.51805982 -60.625 91.75 C-60.66367187 92.44738281 -60.70234375 93.14476562 -60.7421875 93.86328125 C-60.83598624 95.57510818 -60.91906174 97.28751682 -61 99 C-59.783125 98.566875 -58.56625 98.13375 -57.3125 97.6875 C-51.31551229 95.67573096 -45.17436743 94.34557312 -39 93 C-39 92.67 -39 92.34 -39 92 C-40.58323688 91.972807 -42.16661062 91.95351694 -43.75 91.9375 C-44.63171875 91.92589844 -45.5134375 91.91429687 -46.421875 91.90234375 C-48.7818838 91.99173802 -50.74498524 92.33087179 -53 93 C-52.835 92.05125 -52.67 91.1025 -52.5 90.125 C-51.81458208 85.4236123 -51.91416559 80.73996714 -52 76 C-54.3190939 76 -56.3868716 78.58359458 -58 80 Z M-83 83 C-82.67 83.99 -82.34 84.98 -82 86 C-81.01 85.67 -80.02 85.34 -79 85 C-80.32 84.34 -81.64 83.68 -83 83 Z M-87 91 C-87.25030977 93.41619823 -87.25030977 93.41619823 -87 96 C-85.515 96.99 -85.515 96.99 -84 98 C-83.67 97.01 -83.34 96.02 -83 95 C-84.32 93.68 -85.64 92.36 -87 91 Z M-96 92 C-96.66 92.66 -97.32 93.32 -98 94 C-97.01 94.33 -96.02 94.66 -95 95 C-94.67 94.01 -94.34 93.02 -94 92 C-94.66 92 -95.32 92 -96 92 Z M-35 94 C-36.6446674 96.46326712 -36.6446674 96.46326712 -38 99 C-38.66 99.66 -39.32 100.32 -40 101 C-39.6814823 103.10820797 -39.6814823 103.10820797 -39 105 C-36.69 105.33 -34.38 105.66 -32 106 C-32.04125 104.80375 -32.0825 103.6075 -32.125 102.375 C-32.13851708 98.57670047 -31.42009753 95.55024382 -30 92 C-32.00548596 92 -33.32676237 92.9665297 -35 94 Z M-57 100 C-57 100.66 -57 101.32 -57 102 C-54.525 102.495 -54.525 102.495 -52 103 C-52.66 102.01 -53.32 101.02 -54 100 C-54.99 100 -55.98 100 -57 100 Z M-44 103 C-45.98 103.33 -47.96 103.66 -50 104 C-50 104.66 -50 105.32 -50 106 C-48.15274948 106.69159401 -48.15274948 106.69159401 -46 107 C-45.01 106.34 -44.02 105.68 -43 105 C-43.33 104.34 -43.66 103.68 -44 103 Z " fill="#421625" transform="translate(392,266)"/>
<path d="M0 0 C0.721875 0.515625 1.44375 1.03125 2.1875 1.5625 C4.88866259 2.6598473 5.76284834 2.73465608 8.5 1.625 C11.84045232 0.30435606 14.62788629 0.42290731 18.1875 0.5625 C18.6825 2.5425 18.6825 2.5425 19.1875 4.5625 C18.36765625 4.82160156 17.5478125 5.08070313 16.703125 5.34765625 C9.7185789 8.07812727 9.7185789 8.07812727 5.640625 14.08984375 C4.93625585 16.69245545 4.48677052 19.23820123 4.03125 21.90625 C2.80297209 27.22878761 0.73208999 30.53277334 -3.8125 33.5625 C-7.13490324 33.2383631 -8.42026303 32.95473697 -10.8125 30.5625 C-11.54961221 23.43708193 -9.85523383 18.48090432 -5.46875 12.83203125 C-4.25575733 11.40394395 -3.0346114 9.98279163 -1.8125 8.5625 C-1.4825 7.5725 -1.1525 6.5825 -0.8125 5.5625 C-6.88107544 5.13663506 -11.07833284 5.50976599 -15.8125 9.5625 C-18.26035126 12.34095186 -19.69003478 14.92452762 -19.96875 18.65234375 C-19.6115087 23.44830818 -18.1300171 25.3555668 -14.8125 28.5625 C-15.1953125 31.17578125 -15.1953125 31.17578125 -15.8125 33.5625 C-16.8025 33.85382813 -17.7925 34.14515625 -18.8125 34.4453125 C-30.24964665 37.94003643 -38.3277175 42.03875262 -44.8125 52.5625 C-46.16827336 56.62982007 -46.46839049 60.31411843 -45.8125 64.5625 C-43.48375087 67.85014584 -41.83209025 69.19173991 -38.0625 70.5625 C-27.3334079 70.5625 -17.30158004 63.45575139 -9.62890625 56.49609375 C-7.0612726 53.76280632 -5.08597813 50.77289968 -3.13671875 47.578125 C-1.83656813 45.59913468 -0.65317735 44.05325692 1.1875 42.5625 C3.875 42.875 3.875 42.875 6.1875 43.5625 C5.6296404 48.16269611 3.74431036 51.20150603 1.25 55.0625 C-1.17254867 58.82602389 -3.30743721 62.33886829 -4.8125 66.5625 C7.02220723 59.7967023 13.88737209 53.3957482 17.984375 40.1875 C19.1875 37.5625 19.1875 37.5625 21.203125 36.5625 C21.85796875 36.5625 22.5128125 36.5625 23.1875 36.5625 C23.8475 37.2225 24.5075 37.8825 25.1875 38.5625 C24.84437119 47.98710452 17.91653667 55.93677086 11.625 62.5625 C10.50444375 63.59074498 9.35864867 64.59227074 8.1875 65.5625 C7.58550781 66.06652344 6.98351562 66.57054687 6.36328125 67.08984375 C0.8453655 71.13034595 -4.14354809 71.11415962 -10.8125 70.5625 C-11.4725 69.2425 -12.1325 67.9225 -12.8125 66.5625 C-13.69292969 67.11679688 -14.57335937 67.67109375 -15.48046875 68.2421875 C-16.65351486 68.97416827 -17.8266993 69.70592739 -19 70.4375 C-19.8672168 70.98470703 -19.8672168 70.98470703 -20.75195312 71.54296875 C-28.86383017 76.58424827 -35.28738238 77.46805696 -44.8125 76.5625 C-49.4017662 75.01320393 -51.67775487 71.78388332 -53.8125 67.5625 C-55.1712621 58.92303768 -53.79965816 51.72128146 -48.8125 44.5625 C-42.07675936 36.02164773 -33.12079028 32.209514 -22.8125 29.5625 C-23.286875 28.923125 -23.76125 28.28375 -24.25 27.625 C-26.92071328 22.39040197 -27.5934443 17.09914391 -25.8125 11.4375 C-23.47406323 6.07411291 -19.39654754 2.12652877 -14.4375 -0.875 C-9.3883431 -1.95696219 -4.67524166 -2.38956796 0 0 Z M-0.8125 16.5625 C0.1875 18.5625 0.1875 18.5625 0.1875 18.5625 Z M-1.8125 18.5625 C-3.43757196 21.3956162 -3.43757196 21.3956162 -4.8125 24.5625 C-4.4825 25.5525 -4.1525 26.5425 -3.8125 27.5625 C-2.18742804 24.7293838 -2.18742804 24.7293838 -0.8125 21.5625 C-1.1425 20.5725 -1.4725 19.5825 -1.8125 18.5625 Z " fill="#340417" transform="translate(103.8125,155.4375)"/>
<path d="M0 0 C0.7425 0.0825 1.485 0.165 2.25 0.25 C2.875 2.125 2.875 2.125 3.25 4.25 C2.59 4.91 1.93 5.57 1.25 6.25 C1.83007812 6.105625 2.41015625 5.96125 3.0078125 5.8125 C7.51659675 4.74110572 11.58054247 4.01054064 16.25 4.25 C15.28326324 6.71263469 14.71798427 7.98979298 12.3671875 9.296875 C11.62726563 9.52890625 10.88734375 9.7609375 10.125 10 C9.40054688 10.24234375 8.67609375 10.4846875 7.9296875 10.734375 C5.25 11.25 5.25 11.25 1.33203125 10.8984375 C-1.20937557 10.86271013 -2.37021193 10.97054992 -4.43554688 12.49023438 C-6.08093467 14.28955225 -7.51557582 16.14446275 -8.9375 18.125 C-9.4521582 18.80377197 -9.96681641 19.48254395 -10.49707031 20.18188477 C-14.23355523 25.22208578 -17.38990144 30.41836111 -19.75 36.25 C-18.00690822 37.02976748 -18.00690822 37.02976748 -15.75 37.25 C-13.15907075 36.13763479 -13.15907075 36.13763479 -10.625 34.4375 C-9.75617188 33.89480469 -8.88734375 33.35210937 -7.9921875 32.79296875 C-5.68242778 31.30352989 -5.68242778 31.30352989 -3.75 29.25 C-1.125 29.125 -1.125 29.125 1.25 29.25 C0.50948815 33.54496871 -1.36210874 35.13402213 -4.6640625 37.7890625 C-10.47901095 41.8617043 -15.79749556 43.71124346 -22.90234375 43.5859375 C-24.75 43.25 -24.75 43.25 -26.75 41.25 C-29.36580479 41.5769756 -31.39078137 42.07039068 -33.75 43.25 C-37.25 43.4375 -37.25 43.4375 -40.75 43.25 C-42.75 41.25 -42.75 41.25 -43.125 38.5546875 C-42.66047943 34.46109999 -40.99055979 31.72070077 -38.75 28.375 C-38.17765625 27.48554688 -38.17765625 27.48554688 -37.59375 26.578125 C-36.65790125 25.12755944 -35.70558369 23.68764153 -34.75 22.25 C-43.9279539 24.09833794 -48.41615919 29.31532815 -53.5234375 36.875 C-55.15526316 39.23782449 -56.61414712 41.32773241 -58.75 43.25 C-61.80906275 43.69186462 -63.68638044 43.06696522 -66.75 42.25 C-68.235 42.745 -68.235 42.745 -69.75 43.25 C-71.8716468 43.39554833 -73.99856706 43.47080412 -76.125 43.5 C-77.24648437 43.52578125 -78.36796875 43.5515625 -79.5234375 43.578125 C-83.07639283 43.21680751 -84.91250117 42.37554458 -87.75 40.25 C-89.36011058 37.02977884 -89.20779749 33.74234085 -88.75 30.25 C-85.70494237 24.15988473 -80.1160883 18.83919263 -73.75 16.25 C-69.13111067 15.6134223 -65.1084216 15.4286288 -61.0625 17.875 C-59.75 20.25 -59.75 20.25 -59.6875 23.25 C-61.03378947 27.05128791 -62.41002554 28.01739675 -65.75 30.25 C-68.38777269 31.1356356 -70.87082261 31.87151265 -73.5625 32.5 C-74.25537109 32.67273438 -74.94824219 32.84546875 -75.66210938 33.0234375 C-77.35525594 33.44380492 -79.05227443 33.84852527 -80.75 34.25 C-80.42 35.24 -80.09 36.23 -79.75 37.25 C-73.51645462 39.27169039 -68.39272043 36.951566 -62.75 34.25 C-55.8193903 30.04163379 -51.37147202 22.72634854 -46.75 16.25 C-45.86828125 16.41628906 -44.9865625 16.58257812 -44.078125 16.75390625 C-40.2848267 17.31933921 -36.74043931 17.23448634 -32.921875 17.08984375 C-30.75 17.25 -30.75 17.25 -28.75 19.25 C-27.98317456 23.3397357 -28.15552737 25.23545361 -30.28125 28.86328125 C-32.05156188 31.37001386 -33.88975742 33.80982568 -35.75 36.25 C-36.245 37.24 -36.245 37.24 -36.75 38.25 C-30.1603687 34.38408297 -26.02676744 30.50944361 -21.75 24.25 C-20.17360637 22.140099 -18.59121752 20.03610814 -17 17.9375 C-14.84464286 15.0746872 -12.73786824 12.23180237 -10.75 9.25 C-12.54206547 9.39084796 -14.33364917 9.53783701 -16.125 9.6875 C-17.62160156 9.80931641 -17.62160156 9.80931641 -19.1484375 9.93359375 C-21.72927613 10.09965626 -21.72927613 10.09965626 -23.75 11.25 C-25.74960012 11.289992 -27.75047242 11.29346799 -29.75 11.25 C-29.75 9.93 -29.75 8.61 -29.75 7.25 C-22.83403708 4.38822224 -17.35085596 4.06710804 -9.88671875 4.53515625 C-5.16471945 4.10588359 -4.44876371 0.40443306 0 0 Z M-77.75 26.25 C-78.08 26.91 -78.41 27.57 -78.75 28.25 C-77.1243193 27.94106068 -75.49947252 27.6277305 -73.875 27.3125 C-72.97007812 27.13847656 -72.06515625 26.96445313 -71.1328125 26.78515625 C-68.75043683 26.35036299 -68.75043683 26.35036299 -66.75 25.25 C-66.75 24.26 -66.75 23.27 -66.75 22.25 C-71.8361111 22.25 -73.52539118 23.53987359 -77.75 26.25 Z " fill="#340417" transform="translate(211.75,181.75)"/>
<path d="M0 0 C1.32 0.66 2.64 1.32 4 2 C4.0270043 3.45823212 4.04639787 4.91660675 4.0625 6.375 C4.07410156 7.18710937 4.08570313 7.99921875 4.09765625 8.8359375 C4 11 4 11 3 13 C4.65 13 6.3 13 8 13 C8.625 15.3125 8.625 15.3125 9 18 C8.34 18.99 7.68 19.98 7 21 C6.34 21 5.68 21 5 21 C5 21.66 5 22.32 5 23 C5.81355957 23.23674438 5.81355957 23.23674438 6.64355469 23.47827148 C12.64250942 25.33542753 17.85332248 27.87388359 23.25 31.0625 C24.07701416 31.54783203 24.90402832 32.03316406 25.75610352 32.53320312 C40.86069604 41.5592792 57.98755745 54.27581978 68 69 C68.598125 68.34 69.19625 67.68 69.8125 67 C72 65 72 65 75 65 C76.38550197 67.77100394 76.1877467 69.9334706 76 73 C75.34 73.99 74.68 74.98 74 76 C75.29033905 78.27159689 76.58221402 80.54229625 77.875 82.8125 C78.23980469 83.45509766 78.60460937 84.09769531 78.98046875 84.75976562 C80.58083901 87.56768798 82.20642866 90.30964298 84 93 C84 93.99 84 94.98 84 96 C83.01 96 82.02 96 81 96 C79.5081407 93.79424484 78.21579971 91.63837366 76.9375 89.3125 C72.5609035 81.68352018 67.6670836 74.73669871 62 68 C61.22785156 67.06027344 60.45570313 66.12054688 59.66015625 65.15234375 C56.16477671 62.32421728 54.12037386 62.48035636 49.6875 62.6875 C48.43324219 62.73261719 47.17898438 62.77773437 45.88671875 62.82421875 C44.93410156 62.88222656 43.98148437 62.94023438 43 63 C42.80664062 63.93392578 42.80664062 63.93392578 42.609375 64.88671875 C42 67 42 67 40.25 68.8125 C37.3995411 70.31690887 36.01911587 69.92250763 33 69 C33 67.35 33 65.7 33 64 C32.40832031 64.16757813 31.81664062 64.33515625 31.20703125 64.5078125 C23.35852373 66.53075571 23.35852373 66.53075571 19 64 C19 61 19 61 20.3125 59.61328125 C21.875 58.40885417 23.4375 57.20442708 25 56 C24.34 55.01 23.68 54.02 23 53 C22.92094936 50.66800612 22.91201231 48.33167378 23 46 C24.6875 45.25 24.6875 45.25 27 45 C30.78493509 47.12325627 32.19280776 49.10537625 33.4375 53.125 C34.04506483 55.21299288 34.04506483 55.21299288 35 57 C38.04021368 58.59995382 38.04021368 58.59995382 41 59 C40.938125 57.88625 40.87625 56.7725 40.8125 55.625 C40.9053125 53.830625 40.9053125 53.830625 41 52 C41.99 51.34 42.98 50.68 44 50 C29.54417725 38.07487442 29.54417725 38.07487442 12 35 C8.63850461 36.12049846 8.39520093 36.58022938 6.625 39.4375 C4.41289607 42.65031761 2.94363514 44.15493533 -1 45 C-3.3320802 45.07646165 -5.66845878 45.09143299 -8 45 C-5.26455026 35.3015873 -5.26455026 35.3015873 -1 32 C1.76452033 30.61773984 4.0461363 30.90474613 7.125 30.9375 C8.22070312 30.94652344 9.31640625 30.95554687 10.4453125 30.96484375 C11.70988281 30.98224609 11.70988281 30.98224609 13 31 C0.96356784 24.34456104 -12.18391797 19.33951687 -25.8359375 17.32421875 C-27.93815463 17.00926564 -29.94761342 16.54824025 -32 16 C-32 14.68 -32 13.36 -32 12 C-24.38207912 12.88580475 -16.41067784 14.21412035 -9.2890625 17.09765625 C-6.94491919 18.18336637 -6.94491919 18.18336637 -4 18 C-4.4100567 15.92064793 -4.4100567 15.92064793 -6 14 C-8.0022273 13.74164809 -10.00686898 13.48967146 -12.01953125 13.33203125 C-14 13 -14 13 -16.5625 11.1875 C-18 9 -18 9 -17.58984375 6.86328125 C-17.39519531 6.24839844 -17.20054687 5.63351563 -17 5 C-15.35425434 4.97311849 -13.70838587 4.95365877 -12.0625 4.9375 C-11.14597656 4.92589844 -10.22945313 4.91429687 -9.28515625 4.90234375 C-7 5 -7 5 -6 6 C-5.195625 5.195625 -4.39125 4.39125 -3.5625 3.5625 C-2.375 2.375 -1.1875 1.1875 0 0 Z M-1 5 C-3.30671915 7.71549154 -3.30671915 7.71549154 -2.625 10.1875 C-2.41875 10.785625 -2.2125 11.38375 -2 12 C0.58777208 8.94419026 0.58777208 8.94419026 1 5 C0.34 5 -0.32 5 -1 5 Z M-14 8 C-12.02 8.99 -12.02 8.99 -10 10 C-10 9.34 -10 8.68 -10 8 C-11.32 8 -12.64 8 -14 8 Z M3 17 C2.67 17.66 2.34 18.32 2 19 C2.99 18.67 3.98 18.34 5 18 C4.34 17.67 3.68 17.34 3 17 Z M0 35 C-2.58777208 38.05580974 -2.58777208 38.05580974 -3 42 C0.65316671 40.75023244 1.78065836 40.32901247 4 37 C3.01 37 2.02 37 1 37 C0.67 36.34 0.34 35.68 0 35 Z M26 49 C26 49.66 26 50.32 26 51 C26.99 50.67 27.98 50.34 29 50 C28.01 49.67 27.02 49.34 26 49 Z M45 55 C45.33 56.65 45.66 58.3 46 60 C46.33 59.34 46.66 58.68 47 58 C46.34 57.01 45.68 56.02 45 55 Z M50 55 C50 56.65 50 58.3 50 60 C51.32 59.67 52.64 59.34 54 59 C52.68 57.68 51.36 56.36 50 55 Z M25.25 60.5 C24.8375 60.995 24.425 61.49 24 62 C25.32 62.33 26.64 62.66 28 63 C28.99 61.68 29.98 60.36 31 59 C27.12202338 58.56613908 27.12202338 58.56613908 25.25 60.5 Z M38 63 C38 63.99 38 64.98 38 66 C38.66 65.01 39.32 64.02 40 63 C39.34 63 38.68 63 38 63 Z " fill="#3E1523" transform="translate(310,48)"/>
<path d="M0 0 C0.66 0 1.32 0 2 0 C2.69222656 1.28970703 2.69222656 1.28970703 3.3984375 2.60546875 C7.58672064 10.25363796 12.13569013 17.30396266 17.6484375 24.06640625 C20 27 20 27 21.6640625 29.58984375 C23.33067561 32.02138955 24.46457343 33.47604679 27 35 C32.09637026 35.65026301 36.89709978 35.47285562 42 35 C42.12375 34.21625 42.2475 33.4325 42.375 32.625 C43 30 43 30 45 28 C47.5625 27.3125 47.5625 27.3125 50 27 C51 28 51 28 51.0625 31.5625 C51.041875 32.696875 51.02125 33.83125 51 35 C51.5775 34.525625 52.155 34.05125 52.75 33.5625 C55.04225842 31.97065388 56.24181201 31.24336953 59 31 C62.25 31.9375 62.25 31.9375 65 33 C65 36.93631364 63.57142871 38.12605026 61 41 C60.01 41.495 60.01 41.495 59 42 C59.515625 42.721875 60.03125 43.44375 60.5625 44.1875 C62.21442982 47.4195366 62.06351675 48.61608307 61 52 C55.62686567 51.40298507 55.62686567 51.40298507 53.25 49.875 C52 48 52 48 51.25 44.5 C50.40200106 41.0269009 50.40200106 41.0269009 48.3203125 39.87890625 C46.1666167 38.93987603 46.1666167 38.93987603 43 38 C43 40.64 43 43.28 43 46 C42.01 46.33 41.02 46.66 40 47 C43.45667812 49.50026577 46.92085413 51.98686269 50.41015625 54.44140625 C52.39420777 55.83894831 54.30000408 57.24418936 56.18359375 58.77734375 C62.29170596 63.47065937 69.69077429 62.42827494 77 62 C77.185625 61.09314453 77.185625 61.09314453 77.375 60.16796875 C78.38721802 56.65683748 80.13046467 55.21193348 83 53 C85.99941079 52.30666886 88.92694372 52.07364623 92 52 C91.45635613 56.5666085 90.50493876 60.11302606 88 64 C84.41327932 66.52700776 82.70521352 67.07171663 78.3125 66.625 C77.219375 66.41875 76.12625 66.2125 75 66 C73.515 66.495 73.515 66.495 72 67 C85.85468121 73.64459201 100.59388169 79.54659261 116 81 C116.33 82.32 116.66 83.64 117 85 C113.16128507 86.2458987 111.12687143 85.41845186 107.41796875 83.89453125 C103.64285202 82.49792102 99.74845854 81.65462275 95.83203125 80.74609375 C93.1048844 80.02763162 90.59194397 79.10406388 88 78 C88.91367303 81.08158143 88.91367303 81.08158143 91 84 C93.0713996 84.56963489 94.98335037 84.68658182 97.125 84.8046875 C99 85 99 85 101 86.3125 C102 88 102 88 102 92 C101.19175781 91.94199219 100.38351563 91.88398438 99.55078125 91.82421875 C92.7077831 91.30944877 92.7077831 91.30944877 87 94.5625 C86.34 95.366875 85.68 96.17125 85 97 C82.68983403 96.87165745 81.63394255 96.63394255 80 95 C79.64102564 88.53846154 79.64102564 88.53846154 82 85 C80.02 85 78.04 85 76 85 C75.25 83.375 75.25 83.375 75 81 C76.28166039 78.96649946 77.6125596 76.96285173 79 75 C78.48727539 74.76925781 77.97455078 74.53851563 77.44628906 74.30078125 C67.02539389 69.57801102 57.2517478 64.78461505 48 58 C47.01902344 57.30261719 46.03804687 56.60523438 45.02734375 55.88671875 C35.19911612 48.74698693 25.94734175 40.85005854 18.3046875 31.36328125 C17.87414062 30.91339844 17.44359375 30.46351563 17 30 C16.34 30 15.68 30 15 30 C14.34 30.66 13.68 31.32 13 32 C9.46428571 31.46428571 9.46428571 31.46428571 8 30 C7.63910301 25.54893716 7.63910301 25.54893716 9.20703125 23.1640625 C9.46871094 22.44992187 9.73039062 21.73578125 10 21 C8.83532892 18.32561533 8.83532892 18.32561533 6.875 15.6875 C5.89660156 14.23923828 5.89660156 14.23923828 4.8984375 12.76171875 C4.27195312 11.85035156 3.64546875 10.93898438 3 10 C1.50919988 7.68884338 0.2334551 5.46691021 -1 3 C-0.67 2.01 -0.34 1.02 0 0 Z M47 31 C46.34 32.32 45.68 33.64 45 35 C45.99 34.34 46.98 33.68 48 33 C47.67 32.34 47.34 31.68 47 31 Z M53 37 C53 37.66 53 38.32 53 39 C55.93443402 38.73343428 55.93443402 38.73343428 59 38 C59.66 37.01 60.32 36.02 61 35 C57.28400809 34.79913557 56.22791555 34.8480563 53 37 Z M30 38 C30.99 39.32 31.98 40.64 33 42 C33.66 41.67 34.32 41.34 35 41 C34.67 40.01 34.34 39.02 34 38 C32.68 38 31.36 38 30 38 Z M38 38 C38 39.32 38 40.64 38 42 C38.66 42 39.32 42 40 42 C39.34 40.68 38.68 39.36 38 38 Z M56 46 C56.66 46.66 57.32 47.32 58 48 C58 47.34 58 46.68 58 46 C57.34 46 56.68 46 56 46 Z M84 56 C82.18700508 57.22954016 82.18700508 57.22954016 81 59 C81 59.66 81 60.32 81 61 C82.32 61.33 83.64 61.66 85 62 C85.99 60.35 86.98 58.7 88 57 C86.16299211 56.22757731 86.16299211 56.22757731 84 56 Z M80 79 C79.67 79.66 79.34 80.32 79 81 C79.99 80.67 80.98 80.34 82 80 C81.34 79.67 80.68 79.34 80 79 Z M86 86 C85.01 86.495 85.01 86.495 84 87 C83.34444881 89.52733235 83.34444881 89.52733235 83 92 C83.99 92 84.98 92 86 92 C86.66 90.35 87.32 88.7 88 87 C87.34 86.67 86.68 86.34 86 86 Z M94 87 C94.33 87.99 94.66 88.98 95 90 C95.99 89.34 96.98 88.68 98 88 C96.68 87.67 95.36 87.34 94 87 Z " fill="#3E1322" transform="translate(99,271)"/>
<path d="M0 0 C0.33 0.99 0.66 1.98 1 3 C1.99 3 2.98 3 4 3 C4 2.34 4 1.68 4 1 C6.91517292 2.07401108 8.77810176 2.77810176 11 5 C11.125 8.125 11.125 8.125 11 11 C11.66 11 12.32 11 13 11 C16.32453741 16.2638509 16.77454702 20.94264514 16 27 C15.03238392 29.01586684 14.03432904 31.01753602 13 33 C12.87495874 35.08847075 12.87495874 35.08847075 13 37.25 C13 38.4875 13 39.725 13 41 C9.16367515 43.5575499 7.58876764 42.85656825 3.25390625 42.09375 C0.57693673 41.98240291 -0.67329668 42.75303991 -3 44 C-7.43701169 43.72268677 -9.56444077 42.65028855 -13 40 C-15.95897671 38.56939909 -18.97113198 37.27497222 -22 36 C-22.3038083 17.16388532 -22.3038083 17.16388532 -17 11 C-15.06336184 9.21488365 -13.08848851 7.61383203 -11 6 C-11.33 4.35 -11.66 2.7 -12 1 C-7.9472484 0.01751476 -4.16138263 -0.08159574 0 0 Z M-8 9 C-7.814375 10.19625 -7.62875 11.3925 -7.4375 12.625 C-6.87050735 16.27895263 -7.29920243 19.376617 -8 23 C-5.41603321 23.08112454 -2.83462432 23.14054748 -0.25 23.1875 C0.84441406 23.22520508 0.84441406 23.22520508 1.9609375 23.26367188 C5.34486604 23.30981636 7.57858557 23.25324128 10.515625 21.48828125 C11.00546875 20.99714844 11.4953125 20.50601562 12 20 C11.73079965 16.14146168 11.26710588 14.31904314 8.75 11.3125 C2.7094428 6.23294054 -0.996985 4.33132333 -8 9 Z M-16 14 C-18.44872936 17.61763501 -18.43300271 21.51805982 -18.625 25.75 C-18.66367187 26.44738281 -18.70234375 27.14476562 -18.7421875 27.86328125 C-18.83598624 29.57510818 -18.91906174 31.28751682 -19 33 C-17.783125 32.566875 -16.56625 32.13375 -15.3125 31.6875 C-9.31551229 29.67573096 -3.17436743 28.34557312 3 27 C3 26.67 3 26.34 3 26 C1.41676312 25.972807 -0.16661062 25.95351694 -1.75 25.9375 C-2.63171875 25.92589844 -3.5134375 25.91429687 -4.421875 25.90234375 C-6.7818838 25.99173802 -8.74498524 26.33087179 -11 27 C-10.835 26.05125 -10.67 25.1025 -10.5 24.125 C-9.81458208 19.4236123 -9.91416559 14.73996714 -10 10 C-12.3190939 10 -14.3868716 12.58359458 -16 14 Z M7 28 C5.3553326 30.46326712 5.3553326 30.46326712 4 33 C3.34 33.66 2.68 34.32 2 35 C2.3185177 37.10820797 2.3185177 37.10820797 3 39 C5.31 39.33 7.62 39.66 10 40 C9.95875 38.80375 9.9175 37.6075 9.875 36.375 C9.86148292 32.57670047 10.57990247 29.55024382 12 26 C9.99451404 26 8.67323763 26.9665297 7 28 Z M-15 34 C-15 34.66 -15 35.32 -15 36 C-12.525 36.495 -12.525 36.495 -10 37 C-10.66 36.01 -11.32 35.02 -12 34 C-12.99 34 -13.98 34 -15 34 Z M-2 37 C-3.98 37.33 -5.96 37.66 -8 38 C-8 38.66 -8 39.32 -8 40 C-6.15274948 40.69159401 -6.15274948 40.69159401 -4 41 C-3.01 40.34 -2.02 39.68 -1 39 C-1.33 38.34 -1.66 37.68 -2 37 Z " fill="#3B0E1E" transform="translate(350,332)"/>
<path d="M0 0 C0.33 0 0.66 0 1 0 C1 1.65 1 3.3 1 5 C2.98 4.01 4.96 3.02 7 2 C7.99 2.99 8.98 3.98 10 5 C9.195625 5.268125 8.39125 5.53625 7.5625 5.8125 C6.716875 6.204375 5.87125 6.59625 5 7 C4.67 7.99 4.34 8.98 4 10 C6.34444565 14.23803636 8.83632452 17.48242878 13 20 C17.57438521 20.4901127 20.86763795 20.00356948 25 18 C27.1519437 21.22791555 27.20086443 22.28400809 27 26 C23.17679443 27.42258812 20.08718695 28.24042276 16 28 C15.67 27.34 15.34 26.68 15 26 C13.7625 26.0825 12.525 26.165 11.25 26.25 C7.97754309 26.26160446 7.23008445 26.17256333 4.5 24.125 C3 22 3 22 3 20 C3.66 19.67 4.32 19.34 5 19 C4.360625 18.236875 3.72125 17.47375 3.0625 16.6875 C0.07830113 12.79899845 -0.11855457 10.0771388 -0.0625 5.3125 C-0.05347656 4.31863281 -0.04445312 3.32476562 -0.03515625 2.30078125 C-0.02355469 1.54152344 -0.01195312 0.78226563 0 0 Z " fill="#350317" transform="translate(129,57)"/>
<path d="M0 0 C1.69175663 1.30135125 3.35704805 2.63755204 5 4 C7.65347723 4.90436864 10.24327487 5.43931014 13 6 C13.08886184 9.19902639 12.91058531 11.92677456 12 15 C11.34 15 10.68 15 10 15 C9.505 13.515 9.505 13.515 9 12 C8.34 12 7.68 12 7 12 C7 10.68 7 9.36 7 8 C6.01 8 5.02 8 4 8 C3.67 8.66 3.34 9.32 3 10 C2.34 9.67 1.68 9.34 1 9 C1.33 10.32 1.66 11.64 2 13 C1.01 12.67 0.02 12.34 -1 12 C-1.33 9.69 -1.66 7.38 -2 5 C-1.34 5 -0.68 5 0 5 C-3.28696233 4.20046862 -4.71023192 3.90341064 -8 5 C-8.33 4.67 -8.66 4.34 -9 4 C-9.99 5.485 -9.99 5.485 -11 7 C-11 6.34 -11 5.68 -11 5 C-12.65 5.33 -14.3 5.66 -16 6 C-16.103125 6.886875 -16.20625 7.77375 -16.3125 8.6875 C-17.01190702 12.0573702 -18.08742511 14.17271538 -20 17 C-20.99 16.67 -21.98 16.34 -23 16 C-22.84273437 15.43539062 -22.68546875 14.87078125 -22.5234375 14.2890625 C-21.82106308 11.21748479 -21.67472178 8.16269762 -21.4765625 5.0234375 C-21 3 -21 3 -18 1 C-15.80859375 0.83984375 -15.80859375 0.83984375 -13.4375 0.9375 C-8.67966405 1.11718839 -4.89478589 -0.41481236 0 0 Z " fill="#3E1321" transform="translate(153,41)"/>
<path d="M0 0 C2.65563802 1.8968843 3.57242527 3.14485055 5 6 C5.37677003 10.99220285 5.07396361 13.98020143 2 18 C-1.98710695 19.99355348 -6.67537835 19.6480701 -11 19 C-13.86030195 17.29599033 -14.36790293 16.0953565 -16 13 C-16.79735035 8.53483803 -16.3033266 6.57527458 -14.1875 2.5625 C-10.41232949 -1.48387529 -5.08856929 -0.94087568 0 0 Z M-9.875 4 C-12.33870803 6.8804524 -12.33870803 6.8804524 -12.0625 10.625 C-11.25532715 13.97867514 -11.25532715 13.97867514 -9.25 16 C-6.33305134 17.29642163 -4.98207327 17.07048784 -2 16 C-0.06345052 14.98029682 -0.06345052 14.98029682 1 13 C1.53535443 8.33747833 1.53535443 8.33747833 -0.1875 4.125 C-4.13389023 1.67551641 -5.9413735 1.26356417 -9.875 4 Z " fill="#370A19" transform="translate(231,242)"/>
<path d="M0 0 C3.77473979 1.8873699 5.47649056 6.20341446 7 10 C7.12516084 12.65244709 6.7173863 14.40637261 6 17 C4.35 17.33 2.7 17.66 1 18 C1 17.34 1 16.68 1 16 C0.01 15.67 -0.98 15.34 -2 15 C-2.66 14.34 -3.32 13.68 -4 13 C-6.66949409 12.75684344 -6.66949409 12.75684344 -9.625 12.875 C-10.62789063 12.89304687 -11.63078125 12.91109375 -12.6640625 12.9296875 C-13.82035156 12.96449219 -13.82035156 12.96449219 -15 13 C-14.2734375 8.2109375 -14.2734375 8.2109375 -11.8125 6.3125 C-9 5 -9 5 -5.875 4 C-3.06993848 3.02432643 -1.84786202 2.25849802 0 0 Z M0 7 C-0.25030977 9.41619823 -0.25030977 9.41619823 0 12 C1.485 12.99 1.485 12.99 3 14 C3.33 13.01 3.66 12.02 4 11 C2.68 9.68 1.36 8.36 0 7 Z M-9 8 C-9.66 8.66 -10.32 9.32 -11 10 C-10.01 10.33 -9.02 10.66 -8 11 C-7.67 10.01 -7.34 9.02 -7 8 C-7.66 8 -8.32 8 -9 8 Z " fill="#421324" transform="translate(305,350)"/>
<path d="M0 0 C1.09054687 0.02320313 2.18109375 0.04640625 3.3046875 0.0703125 C4.40039062 0.08835938 5.49609375 0.10640625 6.625 0.125 C7.46804688 0.14820313 8.31109375 0.17140625 9.1796875 0.1953125 C9.26088253 2.44471545 9.31896569 4.69496121 9.3671875 6.9453125 C9.41939453 8.82476562 9.41939453 8.82476562 9.47265625 10.7421875 C9.16431116 14.37654833 8.91059178 15.80799271 6.1796875 18.1953125 C3.8046875 18.69140625 3.8046875 18.69140625 1.1796875 18.6328125 C0.3134375 18.63152344 -0.5528125 18.63023437 -1.4453125 18.62890625 C-4.19594303 18.12673522 -5.0928019 17.33765295 -6.8203125 15.1953125 C-5.8303125 14.5353125 -4.8403125 13.8753125 -3.8203125 13.1953125 C-2.8303125 13.8553125 -1.8403125 14.5153125 -0.8203125 15.1953125 C1.82601037 14.8831361 1.82601037 14.8831361 4.1796875 14.1953125 C3.0865625 14.1128125 1.9934375 14.0303125 0.8671875 13.9453125 C-2.8203125 13.1953125 -2.8203125 13.1953125 -4.8203125 11.5703125 C-6.26147538 8.14755065 -5.67589216 5.74925878 -4.8203125 2.1953125 C-2.8203125 0.1953125 -2.8203125 0.1953125 0 0 Z M1.1796875 2.1953125 C0.1896875 2.8553125 -0.8003125 3.5153125 -1.8203125 4.1953125 C-2.23697917 6.6953125 -2.23697917 6.6953125 -1.8203125 9.1953125 C-1.1603125 9.8553125 -0.5003125 10.5153125 0.1796875 11.1953125 C2.96206405 10.79002349 2.96206405 10.79002349 5.1796875 9.1953125 C5.22032582 7.52914135 5.2224085 5.86143155 5.1796875 4.1953125 C3.8596875 3.5353125 2.5396875 2.8753125 1.1796875 2.1953125 Z " fill="#370A1C" transform="translate(257.8203125,247.8046875)"/>
<path d="M0 0 C2 1 2 1 3.1875 4 C4.39202936 8.49130714 3.70025107 12.44836805 3 17 C8.28 17 13.56 17 19 17 C19.33 17.66 19.66 18.32 20 19 C19.34 19.99 18.68 20.98 18 22 C16.02880859 22.34057617 16.02880859 22.34057617 13.6484375 22.29296875 C12.79765625 22.28330078 11.946875 22.27363281 11.0703125 22.26367188 C10.18085938 22.23853516 9.29140625 22.21339844 8.375 22.1875 C7.4778125 22.17396484 6.580625 22.16042969 5.65625 22.14648438 C3.43724529 22.11107473 1.21854824 22.05726654 -1 22 C-1 16.72 -1 11.44 -1 6 C-5.77119784 10.44433762 -5.77119784 10.44433762 -8 14 C-8.66 14 -9.32 14 -10 14 C-9.67 15.98 -9.34 17.96 -9 20 C-9.66 20 -10.32 20 -11 20 C-11.42064893 13.90059045 -11.08964656 10.86336347 -7 6 C-2.57894737 2 -2.57894737 2 0 2 C0 1.34 0 0.68 0 0 Z " fill="#461929" transform="translate(340,337)"/>
<path d="M0 0 C-0.54364387 4.5666085 -1.49506124 8.11302606 -4 12 C-7.75861692 14.84188108 -10.46212793 15.15152301 -15 14.6875 C-16.28003906 14.50960938 -16.28003906 14.50960938 -17.5859375 14.328125 C-20.40615941 13.94479387 -23.15771503 13.92520303 -26 14 C-25 12 -25 12 -22.1875 10.875 C-19 10 -19 10 -15 10 C-14.938125 9.443125 -14.87625 8.88625 -14.8125 8.3125 C-13.64834483 4.99913528 -11.60541556 3.29524704 -9 1 C-5.8035914 -0.06546953 -3.34252724 -0.07427838 0 0 Z M-8 4 C-9.81299492 5.22954016 -9.81299492 5.22954016 -11 7 C-11 7.66 -11 8.32 -11 9 C-9.68 9.33 -8.36 9.66 -7 10 C-6.01 8.35 -5.02 6.7 -4 5 C-5.83700789 4.22757731 -5.83700789 4.22757731 -8 4 Z " fill="#401424" transform="translate(191,323)"/>
<path d="M0 0 C11.46693984 -0.36990129 11.46693984 -0.36990129 13.86328125 1.29296875 C15.77103468 4.15787682 15.35598841 6.67744148 15 10 C14 11.9375 14 11.9375 12 13 C9.28117977 13.23595284 6.74042978 13.13477523 4 13 C4 14.65 4 16.3 4 18 C2.68 18 1.36 18 0 18 C0 12.06 0 6.12 0 0 Z M4 4 C3.74969023 6.58380177 3.74969023 6.58380177 4 9 C6.475 9.99 6.475 9.99 9 11 C10.66621425 9.8354799 10.66621425 9.8354799 12 8 C11.76956136 5.34533951 11.76956136 5.34533951 11 3 C7.51418144 1.7979936 7.32007656 1.78661563 4 4 Z " fill="#36091A" transform="translate(171,248)"/>
<path d="M0 0 C4.05340796 3.01849529 5.97439772 6.41574222 8 11 C6.75336669 11.50833591 5.50250613 12.00631145 4.25 12.5 C3.55390625 12.7784375 2.8578125 13.056875 2.140625 13.34375 C0 14 0 14 -4 14 C-4.33 13.01 -4.66 12.02 -5 11 C-6.65385233 9.65080468 -8.321702 8.31866272 -10 7 C-11.875 4.9375 -11.875 4.9375 -13 3 C-12.67 2.01 -12.34 1.02 -12 0 C-8.26385326 -1.86807337 -3.96284747 -0.90632947 0 0 Z M-8 2 C-7.00344362 5.68725859 -6.3417689 6.79351462 -3 8.8125 C-0.22781069 10.12268282 -0.22781069 10.12268282 2 10 C1.67372714 6.98197607 1.38918764 5.40308719 -0.75 3.1875 C-3.37152557 1.80391706 -5.07674878 1.75639573 -8 2 Z " fill="#371320" transform="translate(329,297)"/>
<path d="M0 0 C1.17755859 -0.01160156 1.17755859 -0.01160156 2.37890625 -0.0234375 C3.05824219 0.10804688 3.73757813 0.23953125 4.4375 0.375 C6.8669516 4.0191774 6.59929575 6.08741272 6.4375 10.375 C7.4275 10.705 8.4175 11.035 9.4375 11.375 C9.1075 12.035 8.7775 12.695 8.4375 13.375 C3.8175 13.375 -0.8025 13.375 -5.5625 13.375 C-6.2225 11.725 -6.8825 10.075 -7.5625 8.375 C-6.9025 7.715 -6.2425 7.055 -5.5625 6.375 C-6.2225 5.385 -6.8825 4.395 -7.5625 3.375 C-5.18997105 0.49134745 -3.7079855 -0.03665225 0 0 Z M-1.5625 2.375 C-2.5525 3.86 -2.5525 3.86 -3.5625 5.375 C-1.5825 5.375 0.3975 5.375 2.4375 5.375 C2.1075 4.385 1.7775 3.395 1.4375 2.375 C0.4475 2.375 -0.5425 2.375 -1.5625 2.375 Z M-2.25 8.875 C-2.683125 9.37 -3.11625 9.865 -3.5625 10.375 C-2.2425 10.705 -0.9225 11.035 0.4375 11.375 C1.0975 10.055 1.7575 8.735 2.4375 7.375 C-0.56509517 7.04281808 -0.56509517 7.04281808 -2.25 8.875 Z " fill="#3A0A1B" transform="translate(276.5625,247.625)"/>
<path d="M0 0 C4.62 0 9.24 0 14 0 C14 0.66 14 1.32 14 2 C10.7 2 7.4 2 4 2 C4 4.31 4 6.62 4 9 C6.97 9 9.94 9 13 9 C13 9.66 13 10.32 13 11 C10.03 11 7.06 11 4 11 C4 12.98 4 14.96 4 17 C7.3 17 10.6 17 14 17 C14 17.66 14 18.32 14 19 C9.38 19 4.76 19 0 19 C0 12.73 0 6.46 0 0 Z " fill="#38091A" transform="translate(140,242)"/>
<path d="M0 0 C0.33 0.99 0.66 1.98 1 3 C1.99 3 2.98 3 4 3 C4 2.34 4 1.68 4 1 C6.91517292 2.07401108 8.77810176 2.77810176 11 5 C10.625 7.125 10.625 7.125 10 9 C9.67 8.34 9.34 7.68 9 7 C8.01 7.66 7.02 8.32 6 9 C4.125 8.6875 4.125 8.6875 2 8 C-2.0792614 6.84943909 -4.18105324 7.145083 -8 9 C-8.66 8.01 -9.32 7.02 -10 6 C-10.66 5.34 -11.32 4.68 -12 4 C-12 3.01 -12 2.02 -12 1 C-7.9472484 0.01751476 -4.16138263 -0.08159574 0 0 Z " fill="#360719" transform="translate(350,332)"/>
<path d="M0 0 C2 1.8125 2 1.8125 3 4 C3 4.99 3 5.98 3 7 C-0.3 7.33 -3.6 7.66 -7 8 C-7 8.66 -7 9.32 -7 10 C-3.7 9.67 -0.4 9.34 3 9 C2.34 10.32 1.68 11.64 1 13 C-0.43655854 13.08131463 -1.8744483 13.13933559 -3.3125 13.1875 C-4.51326172 13.23970703 -4.51326172 13.23970703 -5.73828125 13.29296875 C-8 13 -8 13 -9.7421875 11.640625 C-11.44104104 9.42472907 -11.79700035 7.77432849 -12 5 C-9.93185816 -0.72716202 -5.60384407 -0.84802548 0 0 Z M-7 3 C-7 3.66 -7 4.32 -7 5 C-5.02 5 -3.04 5 -1 5 C-1.66 4.01 -2.32 3.02 -3 2 C-5.0745356 1.8509288 -5.0745356 1.8509288 -7 3 Z " fill="#360717" transform="translate(337,248)"/>
<path d="M0 0 C2.125 1.5625 2.125 1.5625 3 4 C2.67272727 10.32727273 2.67272727 10.32727273 0 13 C-2.05859375 13.30078125 -2.05859375 13.30078125 -4.4375 13.3125 C-5.61119141 13.33763672 -5.61119141 13.33763672 -6.80859375 13.36328125 C-9.50611093 12.91609926 -10.34473433 12.13549707 -12 10 C-12.96097201 7.11708398 -13.22621077 5.62642982 -12.1875 2.75 C-9.46250812 -1.26577751 -4.36651909 -0.55878672 0 0 Z M-6 2 C-7.66621425 3.1645201 -7.66621425 3.1645201 -9 5 C-8.76956136 7.65466049 -8.76956136 7.65466049 -8 10 C-6.15274948 10.69159401 -6.15274948 10.69159401 -4 11 C-3.01 10.34 -2.02 9.68 -1 9 C-0.74969023 6.41619823 -0.74969023 6.41619823 -1 4 C-3.475 3.01 -3.475 3.01 -6 2 Z " fill="#360A18" transform="translate(201,248)"/>
<path d="M0 0 C9.1796875 -0.29296875 9.1796875 -0.29296875 12 0 C14.20914 3.31371 14.22481553 4.3446021 14.125 8.1875 C14.10695313 9.08855469 14.08890625 9.98960937 14.0703125 10.91796875 C14.03550781 11.94857422 14.03550781 11.94857422 14 13 C12.68 13 11.36 13 10 13 C9.67 9.7 9.34 6.4 9 3 C7.68 3.33 6.36 3.66 5 4 C4.67 6.97 4.34 9.94 4 13 C2.68 13 1.36 13 0 13 C0 8.71 0 4.42 0 0 Z " fill="#37101C" transform="translate(287,248)"/>
<path d="M0 0 C0.33 0 0.66 0 1 0 C1 1.65 1 3.3 1 5 C2.98 4.01 4.96 3.02 7 2 C7.99 2.99 8.98 3.98 10 5 C9.195625 5.268125 8.39125 5.53625 7.5625 5.8125 C6.716875 6.204375 5.87125 6.59625 5 7 C4.67 7.99 4.34 8.98 4 10 C6.35729128 14.26125732 8.89654004 17.36206146 13 20 C16.18762109 20.79690838 16.18762109 20.79690838 19 21 C19 21.66 19 22.32 19 23 C16.125 23.125 16.125 23.125 13 23 C12.34 22.34 11.68 21.68 11 21 C9.515 21.2475 9.515 21.2475 8 21.5 C6.515 21.7475 6.515 21.7475 5 22 C4.34 21.34 3.68 20.68 3 20 C3.66 19.67 4.32 19.34 5 19 C4.360625 18.236875 3.72125 17.47375 3.0625 16.6875 C0.07830113 12.79899845 -0.11855457 10.0771388 -0.0625 5.3125 C-0.05347656 4.31863281 -0.04445312 3.32476562 -0.03515625 2.30078125 C-0.02355469 1.54152344 -0.01195312 0.78226563 0 0 Z " fill="#421425" transform="translate(129,57)"/>
<path d="M0 0 C4.75 0.875 4.75 0.875 7 2 C7.33 1.34 7.66 0.68 8 0 C9.65 0 11.3 0 13 0 C12.484375 0.7425 11.96875 1.485 11.4375 2.25 C9.7932769 4.79084553 9.7932769 4.79084553 10.1875 7.0625 C11.03986879 9.09507174 11.95914244 11.0570659 13 13 C8.25 12.25 8.25 12.25 6 10 C5.01 11.485 5.01 11.485 4 13 C2.68 13 1.36 13 0 13 C0.309375 12.4225 0.61875 11.845 0.9375 11.25 C2.38072364 8.2375338 2.38072364 8.2375338 3 5 C1.64599355 2.27018168 1.64599355 2.27018168 0 0 Z " fill="#360A1A" transform="translate(156,248)"/>
<path d="M0 0 C4.29 0 8.58 0 13 0 C12.01641451 3.93434196 11.691807 4.67149983 8.9375 7.25 C8.11572266 8.03117187 8.11572266 8.03117187 7.27734375 8.828125 C6.85582031 9.21484375 6.43429687 9.6015625 6 10 C8.31 10.33 10.62 10.66 13 11 C13 11.66 13 12.32 13 13 C8.71 13 4.42 13 0 13 C0.98358549 9.06565804 1.308193 8.32850017 4.0625 5.75 C4.88427734 4.96882812 4.88427734 4.96882812 5.72265625 4.171875 C6.35494141 3.59179688 6.35494141 3.59179688 7 3 C4.69 2.67 2.38 2.34 0 2 C0 1.34 0 0.68 0 0 Z " fill="#3B091B" transform="translate(310,248)"/>
<path d="M0 0 C0.33 0.99 0.66 1.98 1 3 C-0.65 2.34 -2.3 1.68 -4 1 C-4.33 1.99 -4.66 2.98 -5 4 C-7.0625 4.6875 -7.0625 4.6875 -9 5 C-9 5.99 -9 6.98 -9 8 C-6.36 8.66 -3.72 9.32 -1 10 C-4.34765581 12.23177054 -5.47061285 12.24633323 -9.375 12.1875 C-10.31085938 12.18105469 -11.24671875 12.17460938 -12.2109375 12.16796875 C-14.89568683 12.00628217 -17.38056603 11.5953259 -20 11 C-19.34 10.01 -18.68 9.02 -18 8 C-16.35 8.33 -14.7 8.66 -13 9 C-12.896875 8.236875 -12.79375 7.47375 -12.6875 6.6875 C-11.94405866 3.78132022 -11.34113037 2.80086951 -9 1 C-5.8035914 -0.06546953 -3.34252724 -0.07427838 0 0 Z " fill="#3C1624" transform="translate(151,102)"/>
<path d="M0 0 C3.3 0 6.6 0 10 0 C10.66 1.32 11.32 2.64 12 4 C10.125 4.625 10.125 4.625 8 5 C7.34 4.34 6.68 3.68 6 3 C4.41727399 4.58272601 4.65264253 6.38034003 4.4375 8.5625 C4.35371094 9.38878906 4.26992188 10.21507812 4.18359375 11.06640625 C4.12300781 11.70449219 4.06242187 12.34257812 4 13 C2.68 13 1.36 13 0 13 C0 8.71 0 4.42 0 0 Z " fill="#39071B" transform="translate(342,248)"/>
<path d="M0 0 C3.3 0 6.6 0 10 0 C10.33 1.65 10.66 3.3 11 5 C10.01 5 9.02 5 8 5 C7.34 4.34 6.68 3.68 6 3 C5.34 3 4.68 3 4 3 C4 6.3 4 9.6 4 13 C2.68 13 1.36 13 0 13 C0 8.71 0 4.42 0 0 Z " fill="#330A19" transform="translate(239,248)"/>
<path d="M0 0 C3.3 0 6.6 0 10 0 C11 4 11 4 11 7 C3.69886364 8.46022727 3.69886364 8.46022727 0.4375 6.3125 C-0.2740625 5.1678125 -0.2740625 5.1678125 -1 4 C-0.67 2.68 -0.34 1.36 0 0 Z M3 3 C4.98 3.99 4.98 3.99 7 5 C7 4.34 7 3.68 7 3 C5.68 3 4.36 3 3 3 Z " fill="#451B2A" transform="translate(293,53)"/>
<path d="M0 0 C0 0.99 0 1.98 0 3 C0.66 3 1.32 3 2 3 C2 3.66 2 4.32 2 5 C1.31292969 5.12117188 0.62585938 5.24234375 -0.08203125 5.3671875 C-0.98308594 5.53476563 -1.88414062 5.70234375 -2.8125 5.875 C-4.15248047 6.11863281 -4.15248047 6.11863281 -5.51953125 6.3671875 C-8.22727846 6.91188449 -8.22727846 6.91188449 -11 9 C-13.32387947 9.39387788 -15.65793749 9.73486085 -18 10 C-15.09117267 6.83673624 -12.21520301 4.78533387 -8.4375 2.75 C-7.01244141 1.96882813 -7.01244141 1.96882813 -5.55859375 1.171875 C-3 0 -3 0 0 0 Z " fill="#441B2A" transform="translate(170,77)"/>
<path d="M0 0 C1.41687119 4.25061356 0.19320039 6.71851625 -1 11 C-1.99 11 -2.98 11 -4 11 C-4 9.02 -4 7.04 -4 5 C-6.97 5 -9.94 5 -13 5 C-12.34 3.68 -11.68 2.36 -11 1 C-10.05125 1.020625 -9.1025 1.04125 -8.125 1.0625 C-4.96309465 0.99926189 -3.14866406 0 0 0 Z " fill="#431422" transform="translate(156,57)"/>
<path d="M0 0 C6.39534884 0.69767442 6.39534884 0.69767442 9 2 C9.99 1.67 10.98 1.34 12 1 C12 1.99 12 2.98 12 4 C9.36 4.33 6.72 4.66 4 5 C4.99 5.99 5.98 6.98 7 8 C5.1875 8.625 5.1875 8.625 3 9 C0 7 0 7 -0.75 3.9375 C-0.8325 2.968125 -0.915 1.99875 -1 1 C-0.67 0.67 -0.34 0.34 0 0 Z " fill="#4A192C" transform="translate(178,61)"/>
<path d="M0 0 C1.18390076 3.55170229 0.74140113 5.41063315 0.0625 9.0625 C-0.71372131 13.00880341 -0.71372131 13.00880341 -1 17 C-1.99 17 -2.98 17 -4 17 C-5.33538155 11.79201195 -4.95807109 6.9950793 -3 2 C-2.01 1.34 -1.02 0.68 0 0 Z " fill="#441A2B" transform="translate(355,318)"/>
<path d="M0 0 C1.65 0.33 3.3 0.66 5 1 C5.103125 2.0725 5.20625 3.145 5.3125 4.25 C5.99183415 7.95545901 6.69872084 9.19844276 9 12 C9 12.99 9 13.98 9 15 C7.35 14.67 5.7 14.34 4 14 C4 12.68 4 11.36 4 10 C2.02 9.34 0.04 8.68 -2 8 C-0.35 6.02 1.3 4.04 3 2 C2.01 1.67 1.02 1.34 0 1 C0 0.67 0 0.34 0 0 Z " fill="#3B0A1C" transform="translate(182,344)"/>
<path d="M0 0 C0.99 1.32 1.98 2.64 3 4 C0.49484216 6.50515784 -1.61068165 7.05099086 -5 8 C-6.32 8 -7.64 8 -9 8 C-9.33 7.01 -9.66 6.02 -10 5 C-10.66 4.34 -11.32 3.68 -12 3 C-9.21176345 1.9673198 -8.1322726 1.95490707 -5.25 2.9375 C-4.5075 3.288125 -3.765 3.63875 -3 4 C-2.67 3.34 -2.34 2.68 -2 2 C-1.34 2.33 -0.68 2.66 0 3 C0 2.01 0 1.02 0 0 Z " fill="#3A0D1D" transform="translate(334,303)"/>
<path d="M0 0 C1.32 0 2.64 0 4 0 C4 4.29 4 8.58 4 13 C2.68 13 1.36 13 0 13 C0 8.71 0 4.42 0 0 Z " fill="#3C091B" transform="translate(304,248)"/>
<path d="M0 0 C1.65 0 3.3 0 5 0 C5 0.66 5 1.32 5 2 C5.66 2 6.32 2 7 2 C7 2.66 7 3.32 7 4 C7.66 4 8.32 4 9 4 C12 9.625 12 9.625 12 13 C11.01 13.33 10.02 13.66 9 14 C8.5875 12.9275 8.175 11.855 7.75 10.75 C6.3587365 7.45490223 4.62958728 5.44823644 2 3 C2 2.34 2 1.68 2 1 C1.34 0.67 0.68 0.34 0 0 Z " fill="#451626" transform="translate(354,339)"/>
<path d="M0 0 C1.97986082 0.11347619 3.95891598 0.2410935 5.9375 0.375 C7.03964844 0.44460938 8.14179688 0.51421875 9.27734375 0.5859375 C10.62505859 0.79089844 10.62505859 0.79089844 12 1 C12.33 1.66 12.66 2.32 13 3 C12.01 3.495 12.01 3.495 11 4 C10.67 4.99 10.34 5.98 10 7 C7.29120665 8.35439668 4.99066732 8.06501451 2 8 C2 7.34 2 6.68 2 6 C3.32 5.34 4.64 4.68 6 4 C4.02 3.01 2.04 2.02 0 1 C0 0.67 0 0.34 0 0 Z " fill="#431B2B" transform="translate(314,334)"/>
<path d="M0 0 C0.66 0.33 1.32 0.66 2 1 C2 2.32 2 3.64 2 5 C1.01 5.33 0.02 5.66 -1 6 C-0.34 7.32 0.32 8.64 1 10 C-3.31392226 9.5206753 -5.16569547 8.2542015 -8 5 C-7.67 4.34 -7.34 3.68 -7 3 C-2.52459016 1.73770492 -2.52459016 1.73770492 0 3 C0 2.01 0 1.02 0 0 Z " fill="#461827" transform="translate(140,312)"/>
<path d="M0 0 C1.32 0 2.64 0 4 0 C3.9278125 0.60328125 3.855625 1.2065625 3.78125 1.828125 C3.6884375 2.62734375 3.595625 3.4265625 3.5 4.25 C3.4071875 5.03890625 3.314375 5.8278125 3.21875 6.640625 C2.93845381 9.26890397 2.93845381 9.26890397 3 13 C1.68 13.33 0.36 13.66 -1 14 C-0.67 9.38 -0.34 4.76 0 0 Z " fill="#421522" transform="translate(340,345)"/>
<path d="M0 0 C2.625 0.25 2.625 0.25 4.4375 1.375 C6.11606106 4.02535957 5.82950238 6.18246424 5.625 9.25 C3.315 8.92 1.005 8.59 -1.375 8.25 C-1.045 7.26 -0.715 6.27 -0.375 5.25 C0.285 4.92 0.945 4.59 1.625 4.25 C0.635 4.25 -0.355 4.25 -1.375 4.25 C-2.035 3.26 -2.695 2.27 -3.375 1.25 C-2.375 0.25 -2.375 0.25 0 0 Z " fill="#421122" transform="translate(310.375,346.75)"/>
<path d="M0 0 C2.97 0 5.94 0 9 0 C9.33 0.66 9.66 1.32 10 2 C9.21625 2.28875 8.4325 2.5775 7.625 2.875 C4.90328368 3.84912254 4.90328368 3.84912254 3 6 C1.68252676 6.69748583 0.35085807 7.36959957 -1 8 C-0.67 5.36 -0.34 2.72 0 0 Z " fill="#441122" transform="translate(344,360)"/>
<path d="M0 0 C1.32 0 2.64 0 4 0 C3.26086957 8.86956522 3.26086957 8.86956522 0 12 C-0.66 12 -1.32 12 -2 12 C-1.85962479 10.18706911 -1.71255111 8.3746557 -1.5625 6.5625 C-1.48128906 5.55316406 -1.40007812 4.54382813 -1.31640625 3.50390625 C-1 1 -1 1 0 0 Z " fill="#441326" transform="translate(362,354)"/>
<path d="M0 0 C1.9375 0.6875 1.9375 0.6875 4 2 C4.33 3.65 4.66 5.3 5 7 C1.37 7 -2.26 7 -6 7 C-3 4 -3 4 -1 3 C-0.67 2.01 -0.34 1.02 0 0 Z " fill="#3B0E1F" transform="translate(196,356)"/>
<path d="M0 0 C-1.625 5.75 -1.625 5.75 -5 8 C-4.67 6.68 -4.34 5.36 -4 4 C-5.98 4 -7.96 4 -10 4 C-10.33 3.01 -10.66 2.02 -11 1 C-6.92630576 -1.03684712 -4.41062136 -1.0257259 0 0 Z " fill="#491D2C" transform="translate(163,303)"/>
<path d="M0 0 C0.99 0 1.98 0 3 0 C3.33 1.32 3.66 2.64 4 4 C2.68 4.33 1.36 4.66 0 5 C-0.33 6.32 -0.66 7.64 -1 9 C-2.32 8.67 -3.64 8.34 -5 8 C-5 6.68 -5 5.36 -5 4 C-3.68 4 -2.36 4 -1 4 C-0.67 2.68 -0.34 1.36 0 0 Z " fill="#38131F" transform="translate(399,154)"/>
<path d="M0 0 C5.61 0.66 11.22 1.32 17 2 C13.65234419 4.23177054 12.52938715 4.24633323 8.625 4.1875 C7.22121094 4.17783203 7.22121094 4.17783203 5.7890625 4.16796875 C3.10431317 4.00628217 0.61943397 3.5953259 -2 3 C-1.34 2.01 -0.68 1.02 0 0 Z " fill="#370E1C" transform="translate(133,110)"/>
<path d="M0 0 C0.66 1.32 1.32 2.64 2 4 C3.98 4 5.96 4 8 4 C7 7 7 7 4 9 C1.3125 9.125 1.3125 9.125 -1 9 C-1.125 2.25 -1.125 2.25 0 0 Z " fill="#3B121F" transform="translate(355,284)"/>
<path d="M0 0 C0.99 0.33 1.98 0.66 3 1 C2.34 2.98 1.68 4.96 1 7 C2.32 7.33 3.64 7.66 5 8 C1.62902617 9.49821059 -0.20442119 10 -4 10 C-3.52449439 8.51965236 -3.04448784 7.04074979 -2.5625 5.5625 C-2.29566406 4.73878906 -2.02882813 3.91507812 -1.75390625 3.06640625 C-1 1 -1 1 0 0 Z " fill="#421A29" transform="translate(306,83)"/>
<path d="M0 0 C0.33 0.66 0.66 1.32 1 2 C1.66 2.33 2.32 2.66 3 3 C2.01 3.33 1.02 3.66 0 4 C0 4.66 0 5.32 0 6 C0.66 6.33 1.32 6.66 2 7 C1.01 7.66 0.02 8.32 -1 9 C-3.26171875 8.5390625 -3.26171875 8.5390625 -5.6875 7.625 C-6.49574219 7.32851562 -7.30398438 7.03203125 -8.13671875 6.7265625 C-9.05904297 6.36691406 -9.05904297 6.36691406 -10 6 C-10 5.34 -10 4.68 -10 4 C-7.69 4.33 -5.38 4.66 -3 5 C-2.01 3.35 -1.02 1.7 0 0 Z " fill="#35101D" transform="translate(315,65)"/>
<path d="M0 0 C0.99 0 1.98 0 3 0 C2.67 1.65 2.34 3.3 2 5 C1.34 5 0.68 5 0 5 C0 6.65 0 8.3 0 10 C-1.65 9.67 -3.3 9.34 -5 9 C-4.34 7.68 -3.68 6.36 -3 5 C-2.34 5 -1.68 5 -1 5 C-0.67 3.35 -0.34 1.7 0 0 Z " fill="#441A28" transform="translate(102,140)"/>
<path d="M0 0 C0.66 0 1.32 0 2 0 C2 0.99 2 1.98 2 3 C3.32 2.67 4.64 2.34 6 2 C2.82679218 5.53586014 0.83256305 7.58578031 -4 8 C-2.87548273 5.0280615 -1.77706209 2.66559313 0 0 Z M-6 8 C-4 9 -4 9 -4 9 Z " fill="#3D1020" transform="translate(136,95)"/>
<path d="M0 0 C1.5 1.1875 1.5 1.1875 3 3 C3.1875 5.6875 3.1875 5.6875 3 8 C-0.38018531 9.04005702 -3.4780279 9.08004482 -7 9 C-5 8 -3 7 -1 6 C-0.67 5.01 -0.34 4.02 0 3 C-1.32 3.33 -2.64 3.66 -4 4 C-4 3.34 -4 2.68 -4 2 C-2.68 1.34 -1.36 0.68 0 0 Z " fill="#361321" transform="translate(153,75)"/>
<path d="M0 0 C0.66 0 1.32 0 2 0 C2.66 0.99 3.32 1.98 4 3 C7.58357241 3.25015873 7.58357241 3.25015873 11 3 C10.67 4.98 10.34 6.96 10 9 C7.69 8.01 5.38 7.02 3 6 C3 5.34 3 4.68 3 4 C2.34 4 1.68 4 1 4 C0.67 2.68 0.34 1.36 0 0 Z " fill="#37121F" transform="translate(169,76)"/>
<path d="M0 0 C1.65 0.33 3.3 0.66 5 1 C4.01 1.495 4.01 1.495 3 2 C2.67 2.99 2.34 3.98 2 5 C-0.97 5 -3.94 5 -7 5 C-7 4.34 -7 3.68 -7 3 C-5.02 3 -3.04 3 -1 3 C-0.67 2.01 -0.34 1.02 0 0 Z " fill="#451928" transform="translate(326,77)"/>
<path d="M0 0 C0.33 0 0.66 0 1 0 C1 1.65 1 3.3 1 5 C2.98 4.01 4.96 3.02 7 2 C7.99 2.99 8.98 3.98 10 5 C9.21625 5.28875 8.4325 5.5775 7.625 5.875 C4.90328368 6.84912254 4.90328368 6.84912254 3 9 C2.67 8.34 2.34 7.68 2 7 C1.34 8.32 0.68 9.64 0 11 C0 7.37 0 3.74 0 0 Z " fill="#330A19" transform="translate(129,57)"/>
<path d="M0 0 C0.53625 0.226875 1.0725 0.45375 1.625 0.6875 C-0.61443282 4.04664922 -1.64342083 4.50431636 -5.375 5.6875 C-6.365 5.6875 -7.355 5.6875 -8.375 5.6875 C-8.375 4.6975 -8.375 3.7075 -8.375 2.6875 C-2.95961538 -0.38942308 -2.95961538 -0.38942308 0 0 Z " fill="#431A2F" transform="translate(179.375,72.3125)"/>
<path d="M0 0 C0.33 0 0.66 0 1 0 C1 4.62 1 9.24 1 14 C0.34 14 -0.32 14 -1 14 C-1 13.01 -1 12.02 -1 11 C-1.66 11 -2.32 11 -3 11 C-2.44894091 7.0507432 -1.61064629 3.65079826 0 0 Z " fill="#3F1A2A" transform="translate(166,48)"/>
<path d="M0 0 C2.31 0 4.62 0 7 0 C7.66 1.32 8.32 2.64 9 4 C7.125 4.625 7.125 4.625 5 5 C4.34 4.34 3.68 3.68 3 3 C2.34 3 1.68 3 1 3 C0.67 2.01 0.34 1.02 0 0 Z " fill="#2D0918" transform="translate(345,248)"/>
<path d="M0 0 C2.625 0.375 2.625 0.375 5 1 C5 1.99 5 2.98 5 4 C4.34 4 3.68 4 3 4 C2.67 4.99 2.34 5.98 2 7 C1.34 6.67 0.68 6.34 0 6 C-0.99 6.33 -1.98 6.66 -3 7 C-2.25 2.25 -2.25 2.25 0 0 Z " fill="#3A0B1B" transform="translate(189,57)"/>
<path d="M0 0 C0.66 0 1.32 0 2 0 C1.67 1.98 1.34 3.96 1 6 C1.66 6.33 2.32 6.66 3 7 C1.02 7 -0.96 7 -3 7 C-2.25 2.25 -2.25 2.25 0 0 Z " fill="#3E101F" transform="translate(293,356)"/>
<path d="M0 0 C0 0.66 0 1.32 0 2 C-1.65 2.66 -3.3 3.32 -5 4 C-5 4.99 -5 5.98 -5 7 C-4.34 7 -3.68 7 -3 7 C-3 7.99 -3 8.98 -3 10 C-3.66 10 -4.32 10 -5 10 C-5 9.34 -5 8.68 -5 8 C-5.66 7.67 -6.32 7.34 -7 7 C-7.33 6.34 -7.66 5.68 -8 5 C-3.375 0 -3.375 0 0 0 Z " fill="#50192B" transform="translate(313,344)"/>
<path d="M0 0 C1.5625 1.625 1.5625 1.625 3 4 C2.6875 7.25 2.6875 7.25 2 10 C1.01 9.34 0.02 8.68 -1 8 C-0.34 8 0.32 8 1 8 C1 7.34 1 6.68 1 6 C0.01 5.67 -0.98 5.34 -2 5 C-2 4.34 -2 3.68 -2 3 C-2.66 3 -3.32 3 -4 3 C-3.67 2.34 -3.34 1.68 -3 1 C-2.01 1.33 -1.02 1.66 0 2 C0 1.34 0 0.68 0 0 Z " fill="#3B0B1F" transform="translate(362,278)"/>
<path d="M0 0 C4 4.625 4 4.625 4 8 C3.01 8 2.02 8 1 8 C-0.98 4.535 -0.98 4.535 -3 1 C-2.01 0.67 -1.02 0.34 0 0 Z " fill="#381320" transform="translate(390,136)"/>
<path d="M0 0 C2.125 0.375 2.125 0.375 4 1 C3.67 2.32 3.34 3.64 3 5 C1.68 5.33 0.36 5.66 -1 6 C-1.625 4.125 -1.625 4.125 -2 2 C-1.34 1.34 -0.68 0.68 0 0 Z " fill="#3F1C27" transform="translate(365,130)"/>
<path d="M0 0 C1.65 0.33 3.3 0.66 5 1 C5 1.66 5 2.32 5 3 C4.01 3 3.02 3 2 3 C2 3.99 2 4.98 2 6 C0.68 6.33 -0.64 6.66 -2 7 C-2 6.01 -2 5.02 -2 4 C-1.34 4 -0.68 4 0 4 C0 2.68 0 1.36 0 0 Z " fill="#471729" transform="translate(191,355)"/>
<path d="M0 0 C2.0625 0.4375 2.0625 0.4375 4 1 C4 2.32 4 3.64 4 5 C4.99 5.33 5.98 5.66 7 6 C5.02 6 3.04 6 1 6 C0.34 4.35 -0.32 2.7 -1 1 C-0.67 0.67 -0.34 0.34 0 0 Z " fill="#2F0916" transform="translate(270,255)"/>
<path d="M0 0 C1.65 0.33 3.3 0.66 5 1 C4.67 2.32 4.34 3.64 4 5 C2.35 4.67 0.7 4.34 -1 4 C-0.67 2.68 -0.34 1.36 0 0 Z " fill="#3A1420" transform="translate(275,356)"/>
<path d="M0 0 C1.32 0 2.64 0 4 0 C4.33 0.99 4.66 1.98 5 3 C4.67 3.66 4.34 4.32 4 5 C2.35 5 0.7 5 -1 5 C-0.67 3.35 -0.34 1.7 0 0 Z " fill="#3A1723" transform="translate(126,281)"/>
<path d="M0 0 C2.02045442 0.60183749 4.02111039 1.27306096 6 2 C6.33 2.66 6.66 3.32 7 4 C6.34 4.66 5.68 5.32 5 6 C4.67 4.68 4.34 3.36 4 2 C3.01 2 2.02 2 1 2 C1.33 3.65 1.66 5.3 2 7 C1.01 7.495 1.01 7.495 0 8 C-0.38063221 5.6739143 -0.71269945 3.33944736 -1 1 C-0.67 0.67 -0.34 0.34 0 0 Z " fill="#37141F" transform="translate(365,268)"/>
<path d="M0 0 C1.65 0.33 3.3 0.66 5 1 C4.67 2.32 4.34 3.64 4 5 C2.35 4.67 0.7 4.34 -1 4 C-0.67 2.68 -0.34 1.36 0 0 Z " fill="#411A25" transform="translate(89,261)"/>
<path d="M0 0 C3.3 0 6.6 0 10 0 C9.67 0.66 9.34 1.32 9 2 C7.02 2 5.04 2 3 2 C2.34 3.32 1.68 4.64 1 6 C0.34 5.34 -0.32 4.68 -1 4 C-0.67 2.68 -0.34 1.36 0 0 Z " fill="#34141F" transform="translate(293,53)"/>
<path d="M0 0 C4 4.5 4 4.5 4 9 C2.0625 8.375 2.0625 8.375 0 7 C-0.8125 3.9375 -0.8125 3.9375 -1 1 C-0.67 0.67 -0.34 0.34 0 0 Z " fill="#451829" transform="translate(183,53)"/>
<path d="M0 0 C-1.47692308 5.66153846 -1.47692308 5.66153846 -4.125 7.375 C-5.053125 7.684375 -5.053125 7.684375 -6 8 C-5.67 5.69 -5.34 3.38 -5 1 C-2 0 -2 0 0 0 Z " fill="#3C1123" transform="translate(348,306)"/>
<path d="M0 0 C1.65 0.33 3.3 0.66 5 1 C4.34 2.32 3.68 3.64 3 5 C1.68 4.67 0.36 4.34 -1 4 C-0.67 2.68 -0.34 1.36 0 0 Z " fill="#401C26" transform="translate(344,268)"/>
<path d="M0 0 C2.0625 0.4375 2.0625 0.4375 4 1 C4 2.32 4 3.64 4 5 C2.68 5.33 1.36 5.66 0 6 C-0.38218767 4.34385343 -0.71395102 2.67542976 -1 1 C-0.67 0.67 -0.34 0.34 0 0 Z " fill="#390E1D" transform="translate(392,266)"/>
<path d="M0 0 C1.65 0.33 3.3 0.66 5 1 C4.34 2.32 3.68 3.64 3 5 C1.68 4.67 0.36 4.34 -1 4 C-0.67 2.68 -0.34 1.36 0 0 Z " fill="#381422" transform="translate(146,144)"/>
<path d="M0 0 C1.32 0.66 2.64 1.32 4 2 C3.67 3.32 3.34 4.64 3 6 C1.68 5.67 0.36 5.34 -1 5 C-0.67 3.35 -0.34 1.7 0 0 Z " fill="#39141F" transform="translate(165,139)"/>
<path d="M0 0 C3.71888239 0.50712033 6.73454239 1.11608215 10 3 C6.67465243 4.10844919 4.37817425 3.84454356 1 3 C0.67 2.01 0.34 1.02 0 0 Z " fill="#3B1522" transform="translate(186,346)"/>
<path d="M0 0 C1.97986082 0.11347619 3.95891598 0.2410935 5.9375 0.375 C7.03964844 0.44460938 8.14179688 0.51421875 9.27734375 0.5859375 C10.62505859 0.79089844 10.62505859 0.79089844 12 1 C12.33 1.66 12.66 2.32 13 3 C11.39667209 3.08121924 9.79215974 3.13929134 8.1875 3.1875 C7.29417969 3.22230469 6.40085937 3.25710938 5.48046875 3.29296875 C2.58352485 2.95081002 1.77444972 2.24606427 0 0 Z " fill="#4F2434" transform="translate(314,334)"/>
<path d="M0 0 C0.99 0.99 1.98 1.98 3 3 C2.34 5.31 1.68 7.62 1 10 C0.67 10 0.34 10 0 10 C-0.12375 8.865625 -0.2475 7.73125 -0.375 6.5625 C-0.58125 5.386875 -0.7875 4.21125 -1 3 C-1.66 2.67 -2.32 2.34 -3 2 C-2.01 1.34 -1.02 0.68 0 0 Z " fill="#2E0715" transform="translate(232,243)"/>
<path d="M0 0 C1.67542976 0.28604898 3.34385343 0.61781233 5 1 C5 1.99 5 2.98 5 4 C3.68 4.33 2.36 4.66 1 5 C0.34 3.68 -0.32 2.36 -1 1 C-0.67 0.67 -0.34 0.34 0 0 Z " fill="#3C1221" transform="translate(399,184)"/>
<path d="M0 0 C1.65 0 3.3 0 5 0 C4.67 1.65 4.34 3.3 4 5 C2.68 4.67 1.36 4.34 0 4 C0 2.68 0 1.36 0 0 Z " fill="#411926" transform="translate(219,62)"/>
<path d="M0 0 C1.65 0.33 3.3 0.66 5 1 C4.67 1.99 4.34 2.98 4 4 C3.01 4.33 2.02 4.66 1 5 C0.34 4.67 -0.32 4.34 -1 4 C-0.67 2.68 -0.34 1.36 0 0 Z " fill="#37141E" transform="translate(313,367)"/>
<path d="M0 0 C-0.99 1.485 -0.99 1.485 -2 3 C-4.1640625 3.29296875 -4.1640625 3.29296875 -6.625 3.1875 C-7.44226563 3.16042969 -8.25953125 3.13335937 -9.1015625 3.10546875 C-10.04128906 3.05326172 -10.04128906 3.05326172 -11 3 C-10 1 -10 1 -7.1875 -0.1875 C-4.14038924 -0.96421451 -2.86250637 -1.10096399 0 0 Z " fill="#471F2C" transform="translate(176,334)"/>
<path d="M0 0 C1.98 0.495 1.98 0.495 4 1 C3.67 2.32 3.34 3.64 3 5 C1.68 5 0.36 5 -1 5 C-0.67 3.35 -0.34 1.7 0 0 Z " fill="#441523" transform="translate(98,263)"/>
<path d="M0 0 C1.32 0 2.64 0 4 0 C3.67 1.65 3.34 3.3 3 5 C1.68 4.67 0.36 4.34 -1 4 C-0.67 2.68 -0.34 1.36 0 0 Z " fill="#3B1522" transform="translate(397,258)"/>
<path d="M0 0 C1.32 0 2.64 0 4 0 C3.67 1.65 3.34 3.3 3 5 C1.68 4.67 0.36 4.34 -1 4 C-0.67 2.68 -0.34 1.36 0 0 Z " fill="#3B121E" transform="translate(385,260)"/>
<path d="M0 0 C2.475 0.495 2.475 0.495 5 1 C4.67 2.32 4.34 3.64 4 5 C2.68 4.67 1.36 4.34 0 4 C0 2.68 0 1.36 0 0 Z " fill="#3A1220" transform="translate(94,256)"/>
<path d="M0 0 C1.98 0.495 1.98 0.495 4 1 C3.67 2.32 3.34 3.64 3 5 C1.68 5 0.36 5 -1 5 C-0.67 3.35 -0.34 1.7 0 0 Z " fill="#38121D" transform="translate(399,168)"/>
<path d="M0 0 C2.475 0.495 2.475 0.495 5 1 C4.67 2.32 4.34 3.64 4 5 C2.68 4.67 1.36 4.34 0 4 C0 2.68 0 1.36 0 0 Z " fill="#431528" transform="translate(93,164)"/>
<path d="M0 0 C2.0625 0.4375 2.0625 0.4375 4 1 C4 1.99 4 2.98 4 4 C2.68 4.33 1.36 4.66 0 5 C-0.5625 3.0625 -0.5625 3.0625 -1 1 C-0.67 0.67 -0.34 0.34 0 0 Z " fill="#3B1422" transform="translate(389,148)"/>
<path d="M0 0 C1.32 0.66 2.64 1.32 4 2 C3.01 2.33 2.02 2.66 1 3 C1 4.32 1 5.64 1 7 C0.34 7 -0.32 7 -1 7 C-1.66 5.35 -2.32 3.7 -3 2 C-2.01 2 -1.02 2 0 2 C0 1.34 0 0.68 0 0 Z " fill="#471C2C" transform="translate(338,99)"/>
<path d="M0 0 C4.455 1.98 4.455 1.98 9 4 C8.67 4.66 8.34 5.32 8 6 C4 6 4 6 1.75 4.125 C0 2 0 2 0 0 Z " fill="#350C18" transform="translate(170,338)"/>
<path d="M0 0 C1.65 0.33 3.3 0.66 5 1 C5 1.66 5 2.32 5 3 C5.66 3.33 6.32 3.66 7 4 C5.02 4.99 5.02 4.99 3 6 C2.67 5.34 2.34 4.68 2 4 C2.66 4 3.32 4 4 4 C4 3.34 4 2.68 4 2 C2.35 2.33 0.7 2.66 -1 3 C-0.67 2.01 -0.34 1.02 0 0 Z " fill="#400F20" transform="translate(309,332)"/>
<path d="M0 0 C2.31 0 4.62 0 7 0 C6.67 0.99 6.34 1.98 6 3 C4.02 3 2.04 3 0 3 C0 2.01 0 1.02 0 0 Z " fill="#481C2E" transform="translate(355,303)"/>
<path d="M0 0 C1.65 0.33 3.3 0.66 5 1 C4.34 2.32 3.68 3.64 3 5 C1.68 4.34 0.36 3.68 -1 3 C-0.67 2.01 -0.34 1.02 0 0 Z " fill="#320F1A" transform="translate(218,50)"/>
<path d="M0 0 C1.65 0 3.3 0 5 0 C5 1.32 5 2.64 5 4 C3.35 3.67 1.7 3.34 0 3 C0 2.01 0 1.02 0 0 Z " fill="#3E1824" transform="translate(224,51)"/>
<path d="M0 0 C1.32 0.33 2.64 0.66 4 1 C4 2.32 4 3.64 4 5 C2.68 5 1.36 5 0 5 C0 3.35 0 1.7 0 0 Z " fill="#30121F" transform="translate(270,48)"/>
<path d="M0 0 C1.98 0.495 1.98 0.495 4 1 C3.67 2.32 3.34 3.64 3 5 C1.68 4.67 0.36 4.34 -1 4 C-0.67 2.68 -0.34 1.36 0 0 Z " fill="#3C1420" transform="translate(177,45)"/>
<path d="M0 0 C0.66 0.33 1.32 0.66 2 1 C2 1.99 2 2.98 2 4 C-0.31 4.66 -2.62 5.32 -5 6 C-3.35 4.02 -1.7 2.04 0 0 Z " fill="#370C1B" transform="translate(305,350)"/>
<path d="M0 0 C0.66 0 1.32 0 2 0 C3.125 7.75 3.125 7.75 2 10 C-0.4294516 6.3558226 -0.16179575 4.28758728 0 0 Z " fill="#361021" transform="translate(215,248)"/>
<path d="M0 0 C1.67542976 0.28604898 3.34385343 0.61781233 5 1 C4.34 2.32 3.68 3.64 3 5 C2.01 4.67 1.02 4.34 0 4 C-0.33 3.01 -0.66 2.02 -1 1 C-0.67 0.67 -0.34 0.34 0 0 Z " fill="#2F0A17" transform="translate(311,152)"/>
<path d="M0 0 C0.99 0 1.98 0 3 0 C2.71848913 1.31471568 2.42446661 2.62675767 2.125 3.9375 C1.96257812 4.66839844 1.80015625 5.39929688 1.6328125 6.15234375 C1 8 1 8 -1 9 C-0.67 6.03 -0.34 3.06 0 0 Z " fill="#501D2D" transform="translate(138,90)"/>
<path d="M0 0 C1.32 0.66 2.64 1.32 4 2 C3.67 2.99 3.34 3.98 3 5 C1.68 4.67 0.36 4.34 -1 4 C-0.67 2.68 -0.34 1.36 0 0 Z " fill="#391B25" transform="translate(259,356)"/>
<path d="M0 0 C0 0.66 0 1.32 0 2 C-2.31 2.33 -4.62 2.66 -7 3 C-7 2.01 -7 1.02 -7 0 C-3.86650268 -1.04449911 -3.01031744 -0.93423645 0 0 Z " fill="#3A131E" transform="translate(287,352)"/>
<path d="M0 0 C2.91517292 1.07401108 4.77810176 1.77810176 7 4 C6.625 6.125 6.625 6.125 6 8 C5.67 7.34 5.34 6.68 5 6 C4.34 5.67 3.68 5.34 3 5 C3 4.34 3 3.68 3 3 C2.01 2.67 1.02 2.34 0 2 C0 1.34 0 0.68 0 0 Z " fill="#3C0D1E" transform="translate(354,333)"/>
<path d="M0 0 C2.97 1.98 2.97 1.98 6 4 C5.67 4.66 5.34 5.32 5 6 C3.35 5.67 1.7 5.34 0 5 C0 3.33333333 0 1.66666667 0 0 Z " fill="#2F0F17" transform="translate(140,319)"/>
<path d="M0 0 C-0.33 0.66 -0.66 1.32 -1 2 C-1.66 2 -2.32 2 -3 2 C-3 2.66 -3 3.32 -3 4 C-2.01 4.33 -1.02 4.66 0 5 C-1.32 5 -2.64 5 -4 5 C-4.33 4.01 -4.66 3.02 -5 2 C-5.66 1.34 -6.32 0.68 -7 0 C-4.3333581 -1.33332095 -2.83319697 -0.67102033 0 0 Z " fill="#2B0E1C" transform="translate(329,306)"/>
<path d="M0 0 C0.66 1.32 1.32 2.64 2 4 C0.02 4.33 -1.96 4.66 -4 5 C-4.33 4.01 -4.66 3.02 -5 2 C-3.35 1.34 -1.7 0.68 0 0 Z " fill="#401926" transform="translate(157,302)"/>
<path d="M0 0 C1.98 0.99 3.96 1.98 6 3 C6 4.32 6 5.64 6 7 C2.58841744 5.86280581 1.88145399 4.95657056 0 2 C0 1.34 0 0.68 0 0 Z " fill="#411C29" transform="translate(328,299)"/>
<path d="M0 0 C0 1.98 0 3.96 0 6 C-1.32 6 -2.64 6 -4 6 C-4 4.68 -4 3.36 -4 2 C-1 0 -1 0 0 0 Z " fill="#451B2A" transform="translate(111,295)"/>
<path d="M0 0 C-0.66 1.32 -1.32 2.64 -2 4 C-3.32 4 -4.64 4 -6 4 C-6 3.01 -6 2.02 -6 1 C-4 0 -4 0 0 0 Z " fill="#360C1C" transform="translate(340,257)"/>
<path d="M0 0 C-1.32 1.32 -2.64 2.64 -4 4 C-5.32 3.01 -6.64 2.02 -8 1 C-4.93251126 -0.86240388 -3.40254489 -1.2151946 0 0 Z " fill="#350C1A" transform="translate(140,124)"/>
<path d="M0 0 C0.66 0 1.32 0 2 0 C3.0326802 2.78823655 3.04509293 3.8677274 2.0625 6.75 C1.711875 7.4925 1.36125 8.235 1 9 C0.34 8.67 -0.32 8.34 -1 8 C-0.67 5.36 -0.34 2.72 0 0 Z " fill="#4D2533" transform="translate(163,59)"/>
<path d="M0 0 C0.99 0.33 1.98 0.66 3 1 C3 2.32 3 3.64 3 5 C1.68 5 0.36 5 -1 5 C-0.67 3.35 -0.34 1.7 0 0 Z " fill="#3C121D" transform="translate(220,363)"/>
<path d="M0 0 C1.65 0 3.3 0 5 0 C3.25 3.875 3.25 3.875 1 5 C1 4.34 1 3.68 1 3 C0.01 2.67 -0.98 2.34 -2 2 C-1.34 2 -0.68 2 0 2 C0 1.34 0 0.68 0 0 Z " fill="#3E0E1E" transform="translate(114,120)"/>
<path d="M0 0 C2.97 0.495 2.97 0.495 6 1 C5.01 2.485 5.01 2.485 4 4 C2.35 3.67 0.7 3.34 -1 3 C-0.67 2.01 -0.34 1.02 0 0 Z " fill="#390E1B" transform="translate(329,79)"/>
<path d="M0 0 C0.99 0 1.98 0 3 0 C3 0.99 3 1.98 3 3 C3.66 3 4.32 3 5 3 C5 3.66 5 4.32 5 5 C3.35 4.67 1.7 4.34 0 4 C0 2.68 0 1.36 0 0 Z " fill="#4F2233" transform="translate(167,77)"/>
<path d="M0 0 C0 0.66 0 1.32 0 2 C0.99 2.33 1.98 2.66 3 3 C0.36 3.33 -2.28 3.66 -5 4 C-5 3.01 -5 2.02 -5 1 C-2 0 -2 0 0 0 Z " fill="#3E1522" transform="translate(202,64)"/>
<path d="M0 0 C2.31 0.33 4.62 0.66 7 1 C7 1.33 7 1.66 7 2 C5.35 2 3.7 2 2 2 C2 2.66 2 3.32 2 4 C2.66 4.33 3.32 4.66 4 5 C2.68 4.67 1.36 4.34 0 4 C0 2.68 0 1.36 0 0 Z " fill="#351420" transform="translate(278,60)"/>
<path d="M0 0 C1.32 0 2.64 0 4 0 C4 1.32 4 2.64 4 4 C3.01 4.33 2.02 4.66 1 5 C0.67 3.35 0.34 1.7 0 0 Z " fill="#340C1D" transform="translate(340,345)"/>
<path d="M0 0 C0.99 0 1.98 0 3 0 C5.1875 2.5 5.1875 2.5 7 5 C2.25 4.125 2.25 4.125 0 3 C0 2.01 0 1.02 0 0 Z " fill="#3D1624" transform="translate(167,338)"/>
<path d="M0 0 C3.63 0 7.26 0 11 0 C11 0.33 11 0.66 11 1 C3.57142857 3.42857143 3.57142857 3.42857143 0 2 C0 1.34 0 0.68 0 0 Z " fill="#401523" transform="translate(160,334)"/>
<path d="M0 0 C1.65 0 3.3 0 5 0 C5.33 0.66 5.66 1.32 6 2 C5.34 2 4.68 2 4 2 C3.67 2.66 3.34 3.32 3 4 C1.68 3.67 0.36 3.34 -1 3 C-0.67 2.01 -0.34 1.02 0 0 Z " fill="#471C2C" transform="translate(352,273)"/>
<path d="M0 0 C1.32 0.33 2.64 0.66 4 1 C3.67 2.65 3.34 4.3 3 6 C2.67 5.34 2.34 4.68 2 4 C1.34 4 0.68 4 0 4 C0 2.68 0 1.36 0 0 Z " fill="#3C0318" transform="translate(287,248)"/>
<path d="M0 0 C0.33 0.99 0.66 1.98 1 3 C2.32 3 3.64 3 5 3 C4.67 3.99 4.34 4.98 4 6 C-0.875 4.25 -0.875 4.25 -2 2 C-1.34 2 -0.68 2 0 2 C0 1.34 0 0.68 0 0 Z " fill="#49172A" transform="translate(135,133)"/>
<path d="M0 0 C0 1.65 0 3.3 0 5 C0.66 5.33 1.32 5.66 2 6 C0.35 5.67 -1.3 5.34 -3 5 C-3.33 3.68 -3.66 2.36 -4 1 C-1 0 -1 0 0 0 Z " fill="#3A1222" transform="translate(360,103)"/>
<path d="M0 0 C1.32 0.66 2.64 1.32 4 2 C3 5 3 5 1 8 C0.26919734 6.02253397 -0.39421747 4.01927511 -1 2 C-0.67 1.34 -0.34 0.68 0 0 Z " fill="#361021" transform="translate(187,81)"/>
<path d="M0 0 C0.99 0.33 1.98 0.66 3 1 C3 1.66 3 2.32 3 3 C3.99 3.33 4.98 3.66 6 4 C5.01 4.33 4.02 4.66 3 5 C2.34 5.66 1.68 6.32 1 7 C0.67 4.69 0.34 2.38 0 0 Z " fill="#300717" transform="translate(316,79)"/>
<path d="M0 0 C1.32 0 2.64 0 4 0 C4 0.99 4 1.98 4 3 C2.68 3 1.36 3 0 3 C0 2.01 0 1.02 0 0 Z " fill="#3C0A1C" transform="translate(304,242)"/>
</svg>
